<svg width="147" height="33" viewBox="0 0 147 33" fill="none" xmlns="http://www.w3.org/2000/svg">
<path d="M17.0025 0.199707H16.273C14.1782 0.199707 12.1039 0.612383 10.1687 1.41417C8.23347 2.21595 6.47515 3.39113 4.99418 4.87259C3.51321 6.35404 2.33859 8.11274 1.53743 10.0482C0.736278 11.9837 0.324272 14.0581 0.324952 16.1528V16.8617C0.324952 21.0919 2.00501 25.1489 4.99569 28.1405C7.98636 31.1321 12.0428 32.8135 16.273 32.8149H17.0025C21.2327 32.8135 25.2891 31.1321 28.2797 28.1405C31.2704 25.1489 32.9505 21.0919 32.9505 16.8617V16.1373C32.9478 11.9095 31.2664 7.85569 28.2758 4.8671C25.2853 1.87852 21.2304 0.199706 17.0025 0.199707ZM25.6441 16.7169C25.6441 17.8721 25.4165 19.016 24.9745 20.0832C24.5323 21.1505 23.8843 22.1203 23.0675 22.9372C22.2506 23.754 21.281 24.4019 20.2137 24.844C19.1464 25.286 18.0025 25.5136 16.8473 25.5136H16.4489C14.1158 25.5136 11.8783 24.5868 10.2286 22.9372C8.57891 21.2874 7.65212 19.0499 7.65212 16.7169V16.3133C7.65212 13.9802 8.57891 11.7427 10.2286 10.093C11.8783 8.44332 14.1158 7.51652 16.4489 7.51652H16.8473C18.0025 7.51652 19.1464 7.74405 20.2137 8.18613C21.281 8.62821 22.2506 9.27618 23.0675 10.093C23.8843 10.9099 24.5323 11.8796 24.9745 12.9469C25.4165 14.0142 25.6441 15.158 25.6441 16.3133V16.7169Z" fill="#222222"/>
<path d="M65.7316 0.877686V32.1475H58.451L44.6453 15.4854V32.1475H35.9779V0.877686H43.2585L57.0642 17.5398V0.877686H65.7316Z" fill="#222222"/>
<path d="M68.9342 0.878177H83.7231C86.8668 0.819072 89.9828 1.47554 92.8355 2.79794C95.3757 3.9812 97.5182 5.8757 99.0035 8.25192C100.502 10.7491 101.26 13.62 101.192 16.5312C101.26 19.4425 100.502 22.3133 99.0035 24.8105C97.519 27.1861 95.3761 29.0793 92.8355 30.2593C89.984 31.5858 86.8675 32.2443 83.7231 32.1842H68.9342V0.878177ZM83.3661 25.0951C86.0412 25.0951 88.1991 24.3345 89.8238 22.8131C91.4487 21.2918 92.2559 19.1909 92.2559 16.5158C92.2559 13.8404 91.4435 11.7344 89.8238 10.2131C88.2043 8.69176 86.0412 7.93627 83.3661 7.93627H77.7775V25.0951H83.3661Z" fill="#222222"/>
<path d="M140.908 2.45139L140.725 2.52901C140.207 2.75306 139.737 3.07734 139.343 3.48328C138.95 3.88922 138.64 4.36884 138.432 4.89469C138.224 5.42053 138.12 5.98225 138.13 6.54772C138.139 7.11317 138.26 7.67124 138.485 8.18997L138.564 8.37108C139.018 9.41792 139.869 10.2417 140.931 10.6617C141.991 11.0818 143.175 11.0638 144.224 10.6117L144.404 10.5289C145.453 10.0753 146.278 9.22402 146.698 8.1624C147.118 7.10077 147.099 5.91572 146.645 4.8679L146.564 4.6868C146.338 4.168 146.014 3.69857 145.608 3.30537C145.201 2.91215 144.721 2.60289 144.196 2.39527C143.67 2.18764 143.109 2.08572 142.543 2.09535C141.978 2.10499 141.42 2.22597 140.902 2.45139" fill="#FF0099"/>
<path d="M119.913 0.200097H119.189C117.094 0.200097 115.02 0.612772 113.085 1.41456C111.15 2.21634 109.391 3.39152 107.91 4.87298C106.429 6.35443 105.255 8.11313 104.454 10.0486C103.652 11.9841 103.24 14.0585 103.241 16.1532V16.8621C103.241 21.0923 104.921 25.1493 107.912 28.141C110.902 31.1325 114.959 32.8139 119.189 32.8153H119.913C124.144 32.8153 128.202 31.1345 131.194 28.1427C134.186 25.1509 135.867 21.0933 135.867 16.8621V16.1377C135.867 11.9067 134.186 7.84893 131.194 4.85714C128.202 1.86534 124.144 0.18457 119.913 0.18457" fill="#222222"/>
</svg>
