<svg width="107" height="67" viewBox="0 0 107 67" fill="none" xmlns="http://www.w3.org/2000/svg">
<g id="Group 1000004333">
<path id="Vector" d="M80.4241 18.2266C77.9525 18.2266 75.9415 20.2365 75.9415 22.7088V33.0625C75.9415 37.3407 73.1752 40.5264 69.5056 40.5264C65.8354 40.5264 63.0677 37.3407 63.0677 33.0625V22.7088C63.0677 20.1955 61.1509 18.2266 58.7051 18.2266C56.2336 18.2266 54.2233 20.2365 54.2233 22.7088V33.2581C54.2233 42.4445 60.793 49.1769 69.5056 49.1769C73.7315 49.1769 77.6341 47.5183 80.4955 44.5069C83.3388 41.5123 84.9059 37.4471 84.9059 33.0628V22.7091C84.9056 20.2365 82.8956 18.2266 80.4241 18.2266Z" fill="#652D8D"/>
<path id="Vector_2" d="M103.469 65.3643C103.092 65.3643 102.711 65.3035 102.343 65.1794L90.2524 62.1166C85.3228 64.9072 79.7541 66.3738 74.0462 66.3738H32.9545C14.7829 66.3738 0 51.5902 0 33.419C0 15.2474 14.7826 0.463867 32.9545 0.463867H47.1449C49.0944 0.463867 50.6754 2.04553 50.6754 3.99442C50.6754 5.94491 49.0944 7.52561 47.1449 7.52561H32.9545C18.6768 7.52561 7.06142 19.141 7.06142 33.419C7.06142 47.6964 18.6768 59.3101 32.9545 59.3101H74.0462C78.9874 59.3101 83.7909 57.915 87.9369 55.2727C88.8378 54.6989 89.9492 54.5645 90.9616 54.9039L98.8761 57.2387L95.5317 50.3344C95.1916 49.3223 95.3261 48.2107 95.9005 47.3104C98.5421 43.1637 99.9389 38.3599 99.9389 33.4193C99.9389 19.1413 88.3239 7.52594 74.0459 7.52594H59.8545C57.9049 7.52594 56.3246 5.94524 56.3246 3.99474C56.3246 2.04553 57.9049 0.46419 59.8545 0.46419H74.0459C92.2177 0.46419 106.999 15.2478 106.999 33.4193C106.999 39.1289 105.533 44.6953 102.744 49.6255L106.815 60.7069C107.244 61.9779 106.914 63.3811 105.966 64.3302C105.294 65.0026 104.391 65.3643 103.469 65.3643Z" fill="#AACE37"/>
<path id="Vector_3" d="M45.2071 37.1645C44.0101 37.1645 42.8843 37.631 42.0383 38.4779C40.6903 39.8259 38.8944 40.5677 36.9836 40.5677C35.0726 40.5677 33.2779 39.8259 31.9309 38.4766C30.5264 37.0744 29.7224 35.2321 29.7224 33.4229C29.7224 31.6137 30.5264 29.7711 31.9309 28.3666C33.2805 27.0177 35.0755 26.2732 36.9836 26.2732C38.8927 26.2732 40.6874 27.0174 42.0383 28.3666C42.8836 29.2135 44.0088 29.68 45.2071 29.68C46.4048 29.68 47.53 29.2132 48.3773 28.3666C50.1238 26.6198 50.1238 23.7768 48.3773 22.028C45.3348 18.9846 41.2887 17.3088 36.9839 17.3088C32.6805 17.3088 28.6353 18.9849 25.5929 22.028C19.3118 28.3107 19.3118 38.5348 25.5929 44.8191C28.6308 47.8564 32.676 49.5295 36.9839 49.5295C41.2922 49.5295 45.3384 47.8558 48.3773 44.8165C50.1238 43.0703 50.1238 40.2254 48.3773 38.4766C47.529 37.6297 46.4032 37.1645 45.2071 37.1645Z" fill="#652D8D"/>
</g>
</svg>
