<svg width="143" height="56" viewBox="0 0 143 56" fill="none" xmlns="http://www.w3.org/2000/svg">
<g id="Group 1000004142">
<path id="Vector" d="M15.9852 28.4188L-6.10352e-05 32.6964V20.8656C-6.10352e-05 13.8809 -6.10352e-05 10.3943 1.34181 7.71645C2.56649 5.26124 4.55878 3.26894 7.014 2.0384C9.22896 0.930921 12.0065 0.74341 16.8583 0.714111L17.749 4.03656L21.6574 18.5803C22.8117 22.8638 20.2686 27.2703 15.9793 28.4188H15.9852Z" fill="#DF643B"/>
<path id="Vector_2" d="M31.695 55.9008H20.1631C13.1842 55.9008 9.6918 55.9008 7.01392 54.5648C4.55871 53.3342 2.56641 51.3419 1.34173 48.8867C0.222531 46.6542 0.0350205 43.8532 0.00572205 38.9369L17.5497 34.2375C21.839 33.089 26.2513 35.6321 27.3998 39.9214L31.695 55.9008Z" fill="#7AC6D6"/>
<path id="Vector_3" d="M55.2568 24.1472V35.7377C55.2568 42.7225 55.2568 46.2148 53.9208 48.8869C52.6902 51.3421 50.6979 53.3344 48.2427 54.5649C45.9574 55.7076 43.0803 55.8716 37.9355 55.8951L33.2243 38.3629C32.0699 34.0794 34.6131 29.6729 38.9024 28.5244L55.2568 24.1472Z" fill="#F0B043"/>
<path id="Vector_4" d="M53.9208 7.71621C52.6903 5.26099 50.698 3.2687 48.2428 2.03816C45.5649 0.702148 42.0784 0.702148 35.0936 0.702148H23.1047L27.4877 17.0214C28.6362 21.3049 33.0486 23.8538 37.3379 22.7053L55.251 17.9121C55.2275 12.8376 55.0517 9.98977 53.9208 7.71621ZM41.2873 15.2635C39.7931 17.8476 36.4882 18.7383 33.9041 17.2441C31.3199 15.7499 30.4293 12.445 31.9235 9.86086C33.4177 7.27673 36.7226 6.38606 39.3067 7.88028C41.8908 9.3745 42.7815 12.6794 41.2873 15.2635Z" fill="#57B48D"/>
<path id="Vector_5" d="M70.8555 8.98806V10.2772C70.0058 9.22831 68.8222 8.68335 67.2928 8.68335C65.7634 8.68335 64.5856 9.25175 63.5309 10.3651C62.482 11.4784 61.9781 12.8379 61.9781 14.4552C61.9781 16.0724 62.482 17.4495 63.5309 18.5628C64.5798 19.6762 65.8279 20.2211 67.2928 20.2211C68.7577 20.2211 70.0058 19.6937 70.8555 18.6273V19.9164H73.674V8.98806H70.8555ZM67.8202 17.5315C66.9471 17.5315 66.2263 17.2502 65.6579 16.6818C65.0896 16.1135 64.8024 15.3693 64.8024 14.4552C64.8024 13.541 65.0896 12.8144 65.6579 12.2461C66.2263 11.6777 66.9471 11.373 67.8202 11.373C68.6933 11.373 69.414 11.6777 69.9824 12.2461C70.5508 12.8144 70.8555 13.5586 70.8555 14.4552C70.8555 15.3517 70.5508 16.1135 69.9824 16.6818C69.414 17.2502 68.6933 17.5315 67.8202 17.5315ZM82.3346 7.0192V4.30616C80.6295 4.21826 79.3403 4.56985 78.4907 5.35505C77.6176 6.16369 77.2016 7.34148 77.2016 8.87673V8.98806H75.6253V11.7011H77.2016V19.9223H80.0201V11.7011H82.3346V8.98806H80.0201V8.87673C80.0201 7.52313 80.7877 6.90787 82.3346 7.0192ZM90.4386 11.6952V8.9822H87.9717V5.92344L85.1532 6.7731V8.9822H83.2546V11.6952H85.1532V16.2424C85.1532 17.7483 85.5458 18.7972 86.331 19.3656C87.1162 19.9574 88.4932 20.1332 90.4386 19.9105V17.3557C89.8937 17.3967 89.4307 17.3967 89.085 17.3791C88.7159 17.3557 88.4287 17.2502 88.2529 17.0744C88.0537 16.8987 87.9658 16.635 87.9658 16.2424V11.6952H90.4328H90.4386ZM94.6869 15.6095H102.926C102.99 15.2169 103.037 14.8243 103.037 14.4493C103.037 12.832 102.51 11.455 101.467 10.3417C100.418 9.24589 99.1051 8.68335 97.5113 8.68335C95.8061 8.68335 94.4291 9.25175 93.3567 10.3417C92.2668 11.4316 91.7395 12.8144 91.7395 14.4493C91.7395 16.0842 92.2844 17.4846 93.3802 18.5804C94.4759 19.6761 95.9174 20.2211 97.7281 20.2211C99.8258 20.2211 101.402 19.4535 102.492 17.8831L100.218 16.5705C99.6501 17.3147 98.8414 17.6604 97.7691 17.6604C96.0874 17.6604 95.0619 16.9807 94.6869 15.6037V15.6095ZM94.6459 13.4238C94.7982 12.7265 95.1264 12.1992 95.6303 11.8066C96.1108 11.414 96.7436 11.2147 97.5113 11.2147C98.1441 11.2147 98.7125 11.414 99.2164 11.7597C99.7204 12.1289 100.049 12.6797 100.224 13.418H94.6517L94.6459 13.4238ZM108.047 10.869V8.98806H105.228V19.9164H108.047V14.6954C108.047 13.6465 108.375 12.9023 109.055 12.4453C109.735 12.0058 110.496 11.8359 111.369 11.9179V8.77126C110.625 8.77126 109.951 8.94704 109.336 9.29862C108.727 9.65021 108.311 10.1717 108.047 10.8749V10.869ZM65.1599 29.6728C65.1599 29.4091 65.2712 29.1923 65.5115 29.0165C65.7517 28.8642 66.0564 28.7763 66.4314 28.7763C67.2401 28.7763 67.8319 29.1454 68.1776 29.8896L70.5801 28.577C70.1406 27.8328 69.5781 27.2645 68.8515 26.8719C68.1073 26.4793 67.2987 26.2625 66.4256 26.2625C65.2478 26.2625 64.2399 26.5906 63.4547 27.2C62.6695 27.8094 62.2769 28.6649 62.2769 29.7373C62.2769 30.458 62.4527 31.0498 62.8453 31.5303C63.2379 32.0108 63.7008 32.339 64.2633 32.5558C64.8083 32.7726 65.3591 32.9718 65.9216 33.1007C66.4666 33.2531 66.9295 33.4289 67.3221 33.6047C67.7147 33.7804 67.9139 34.0207 67.9139 34.302C67.9139 34.9348 67.41 35.2395 66.408 35.2395C65.2946 35.2395 64.5739 34.7825 64.2633 33.8215L61.814 35.1985C62.6226 36.9447 64.152 37.8002 66.4021 37.8002C67.6502 37.8002 68.6991 37.5189 69.5253 36.9037C70.3574 36.2943 70.791 35.4387 70.791 34.302C70.791 33.5578 70.5977 32.9484 70.1992 32.4444C69.8066 31.9639 69.3496 31.6124 68.7987 31.3956C68.2304 31.1787 67.6854 31.0029 67.1346 30.8682C66.5662 30.7393 66.1091 30.5635 65.7165 30.3877C65.3239 30.2119 65.1481 29.9716 65.1481 29.6669L65.1599 29.6728ZM77.8813 37.8061C78.9302 37.8061 79.9146 37.5658 80.7877 37.0384C81.6608 36.5111 82.3405 35.8372 82.821 34.9641L80.3716 33.5636C80.1548 34.0207 79.8033 34.3723 79.3638 34.636C78.9243 34.8997 78.4262 35.0051 77.8578 35.0051C77.0082 35.0051 76.305 34.7414 75.7601 34.173C75.1917 33.6047 74.928 32.9073 74.928 32.0284C74.928 31.1494 75.1917 30.4521 75.7601 29.8837C76.305 29.3154 77.0082 29.0341 77.8578 29.0341C78.4028 29.0341 78.9067 29.163 79.3462 29.4267C79.7857 29.6904 80.1314 30.0595 80.3541 30.499L82.78 29.081C82.3229 28.2313 81.6666 27.5516 80.7935 27.0242C79.9205 26.5203 78.936 26.2566 77.8871 26.2566C76.223 26.2566 74.846 26.825 73.756 27.9149C72.6661 29.0282 72.1153 30.4053 72.1153 32.0225C72.1153 33.6398 72.6603 35.0403 73.756 36.1302C74.846 37.2435 76.223 37.7885 77.8871 37.7885L77.8813 37.8061ZM90.6085 26.2683C89.1202 26.2683 88.0303 26.7957 87.3506 27.7977V22.2017H84.532V37.5014H87.3506V31.6006C87.3506 30.7041 87.5674 30.0244 88.0068 29.5673C88.4463 29.1278 89.0147 28.8876 89.7589 28.8876C90.4152 28.8876 90.9367 29.0868 91.3293 29.4794C91.7219 29.872 91.9211 30.417 91.9211 31.1377V37.4955H94.7396V30.7861C94.7396 29.3857 94.347 28.2723 93.5618 27.4637C92.7766 26.6785 91.7922 26.2625 90.6085 26.2625V26.2683ZM102.568 37.8061C104.185 37.8061 105.539 37.2611 106.676 36.1478C107.789 35.0344 108.358 33.6574 108.358 32.0401C108.358 30.4228 107.789 29.0693 106.676 27.95C105.539 26.8367 104.185 26.2683 102.568 26.2683C100.951 26.2683 99.5739 26.8367 98.4605 27.95C97.3472 29.0634 96.7964 30.4228 96.7964 32.0401C96.7964 33.6574 97.3413 35.0344 98.4605 36.1478C99.5739 37.2611 100.951 37.8061 102.568 37.8061ZM102.568 35.052C101.719 35.052 101.015 34.7707 100.447 34.2023C99.8786 33.634 99.6149 32.9132 99.6149 32.0401C99.6149 31.167 99.8786 30.4463 100.447 29.8779C101.015 29.3095 101.713 29.0282 102.568 29.0282C103.424 29.0282 104.121 29.3095 104.689 29.8779C105.258 30.4463 105.539 31.167 105.539 32.0401C105.539 32.9132 105.252 33.634 104.689 34.2023C104.121 34.7707 103.4 35.052 102.568 35.052ZM115.764 37.8061C117.382 37.8061 118.735 37.2611 119.872 36.1478C120.985 35.0344 121.554 33.6574 121.554 32.0401C121.554 30.4228 120.985 29.0693 119.872 27.95C118.735 26.8367 117.382 26.2683 115.764 26.2683C114.147 26.2683 112.77 26.8367 111.657 27.95C110.543 29.0634 109.992 30.4228 109.992 32.0401C109.992 33.6574 110.537 35.0344 111.657 36.1478C112.77 37.2611 114.147 37.8061 115.764 37.8061ZM115.764 35.052C114.909 35.052 114.211 34.7707 113.643 34.2023C113.075 33.634 112.811 32.9132 112.811 32.0401C112.811 31.167 113.075 30.4463 113.643 29.8779C114.211 29.3095 114.909 29.0282 115.764 29.0282C116.62 29.0282 117.317 29.3095 117.885 29.8779C118.454 30.4463 118.741 31.167 118.741 32.0401C118.741 32.9132 118.454 33.634 117.885 34.2023C117.317 34.7707 116.596 35.052 115.764 35.052ZM123.757 37.5014H126.575V21.5454H123.757V37.5014Z" fill="black"/>
<path id="Vector_6" d="M62.224 41.9194V50.8906H63.4135V41.9194H62.224ZM68.1951 45.5583V44.4801H66.4899V42.6871L65.3765 43.0211V44.4801H64.1109V45.5583H65.3765V49.0331C65.3765 49.83 65.5934 50.3808 66.0563 50.6621C66.5016 50.9434 67.2223 51.0195 68.1951 50.8906V49.8886C67.8083 49.9121 67.5036 49.9121 67.2458 49.9121C66.988 49.9121 66.7946 49.8359 66.6715 49.707C66.5426 49.5781 66.4899 49.3495 66.4899 49.0273V45.5524H68.1951V45.5583ZM70.8436 41.9077H69.5604L69.0447 45.0192H70.0057L70.8378 41.9077H70.8436ZM71.8398 46.2146C71.8398 45.945 71.9394 45.74 72.1738 45.5876C72.3906 45.4353 72.6602 45.3591 72.9824 45.3591C73.6622 45.3591 74.1251 45.6403 74.3536 46.1794L75.2912 45.6521C75.0861 45.2419 74.7814 44.9079 74.3712 44.6794C73.961 44.4508 73.4981 44.3219 72.9883 44.3219C72.3379 44.3219 71.7988 44.5036 71.3593 44.861C70.9257 45.2184 70.7206 45.6814 70.7206 46.2322C70.7206 46.6658 70.8378 47.0115 71.0898 47.2811C71.3359 47.5623 71.6288 47.7557 71.9863 47.8729C72.332 48.0018 72.6777 48.1014 73.0352 48.1952C73.3809 48.2831 73.6739 48.4003 73.9317 48.5526C74.1778 48.705 74.3009 48.8983 74.3009 49.1444C74.3009 49.4491 74.172 49.6718 73.9434 49.8124C73.6973 49.9531 73.3926 50.0175 73.0352 50.0175C72.6367 50.0175 72.3027 49.9296 72.0214 49.748C71.7402 49.5663 71.5468 49.3261 71.4472 49.0155L70.4862 49.5663C70.6679 50.0293 70.9843 50.3867 71.4355 50.6562C71.8691 50.9375 72.4082 51.0664 73.0352 51.0664C73.7266 51.0664 74.3067 50.9024 74.7521 50.5391C75.1974 50.1933 75.4318 49.7304 75.4318 49.1444C75.4318 48.7108 75.3029 48.3651 75.0626 48.0838C74.8048 47.8026 74.5118 47.6092 74.1661 47.492C73.8087 47.3748 73.4629 47.2752 73.1172 47.1873C72.7598 47.0994 72.4609 46.9822 72.2207 46.8299C71.9628 46.6775 71.8515 46.4841 71.8515 46.2263L71.8398 46.2146ZM84.2389 44.486V45.5876C83.6764 44.7438 82.8795 44.3219 81.8306 44.3219C80.9106 44.3219 80.1371 44.6559 79.5101 45.2946C78.8714 45.9333 78.5609 46.7302 78.5609 47.6502C78.5609 48.5702 78.8656 49.3788 79.5101 50.0175C80.1371 50.6738 80.9047 50.9902 81.8306 50.9902C82.8677 50.9902 83.6764 50.5684 84.2389 49.707V50.6152C84.2389 51.2305 84.0455 51.7051 83.6647 52.0509C83.2779 52.4083 82.7681 52.5782 82.1001 52.5782C81.0512 52.5782 80.3598 52.2208 80.0141 51.5L79.0414 52.0509C79.2992 52.5607 79.6976 52.9474 80.2192 53.2169C80.7348 53.4865 81.3618 53.6154 82.0767 53.6154C82.9732 53.6154 83.7408 53.3576 84.3854 52.8361C85.0241 52.3087 85.3464 51.5704 85.3464 50.6211V44.486H84.2448H84.2389ZM81.9595 49.9296C81.3091 49.9296 80.77 49.7128 80.3305 49.2734C79.8969 48.8397 79.6742 48.3006 79.6742 47.6444C79.6742 46.9881 79.891 46.4666 80.3305 46.0329C80.7641 45.5993 81.3032 45.3767 81.9595 45.3767C82.6158 45.3767 83.149 45.5935 83.5885 46.0329C84.0221 46.4666 84.2389 47.0057 84.2389 47.6444C84.2389 48.2831 84.0221 48.8339 83.5885 49.2734C83.1549 49.707 82.6041 49.9296 81.9595 49.9296ZM87.6317 45.5583V44.4801H86.5183V50.8848H87.6317V47.492C87.6317 46.8006 87.8251 46.2849 88.2235 45.9685C88.6103 45.6638 89.079 45.5056 89.6298 45.5349V44.3688C88.6571 44.3688 87.9891 44.7673 87.6317 45.5583ZM92.8703 51.0547C93.8078 51.0547 94.5989 50.7324 95.2669 50.082C95.9232 49.4433 96.2513 48.6346 96.2513 47.6854C96.2513 46.7361 95.9173 45.945 95.2669 45.2888C94.5989 44.6501 93.8078 44.316 92.8703 44.316C91.9327 44.316 91.1299 44.6501 90.4736 45.2888C89.8173 45.945 89.5009 46.7361 89.5009 47.6854C89.5009 48.6346 89.8232 49.4433 90.4736 50.082C91.1299 50.7383 91.921 51.0547 92.8703 51.0547ZM92.8703 49.9648C92.2315 49.9648 91.7042 49.748 91.2706 49.3085C90.8369 48.8749 90.6143 48.3358 90.6143 47.6795C90.6143 47.0232 90.8311 46.49 91.2706 46.0505C91.7042 45.6169 92.2315 45.3942 92.8703 45.3942C93.509 45.3942 94.0481 45.611 94.4817 46.0505C94.9153 46.49 95.138 47.035 95.138 47.6795C95.138 48.3241 94.9212 48.869 94.4817 49.3085C94.0422 49.748 93.509 49.9648 92.8703 49.9648ZM104.349 44.4801L102.943 49.3613L101.431 44.4801H100.353L98.8413 49.3495L97.435 44.4801H96.2689L98.2553 50.8848H99.398L100.898 46.1443L102.398 50.8848H103.541L105.527 44.4801H104.361H104.349ZM109.635 45.5583V44.4801H107.93V42.6871L106.816 43.0211V44.4801H105.551V45.5583H106.816V49.0331C106.816 49.83 107.033 50.3808 107.496 50.6621C107.941 50.9434 108.662 51.0195 109.635 50.8906V49.8886C109.248 49.9121 108.943 49.9121 108.686 49.9121C108.428 49.9121 108.234 49.8359 108.111 49.707C107.982 49.5781 107.93 49.3495 107.93 49.0273V45.5524H109.635V45.5583ZM113.631 44.316C112.694 44.316 112.002 44.6852 111.557 45.406V41.9194H110.443V50.8906H111.557V47.4979C111.557 46.783 111.727 46.2556 112.072 45.9099C112.406 45.5642 112.852 45.3825 113.42 45.3825C113.907 45.3825 114.305 45.5349 114.586 45.8161C114.868 46.0974 115.008 46.5076 115.008 47.0232V50.8906H116.122V46.9588C116.122 46.1501 115.893 45.5114 115.442 45.0368C114.979 44.5622 114.381 44.3219 113.637 44.3219L113.631 44.316ZM123.335 45.5583V44.4801H121.63V42.6871L120.516 43.0211V44.4801H119.245V45.5583H120.516V49.0331C120.516 49.83 120.733 50.3808 121.196 50.6621C121.641 50.9434 122.362 51.0195 123.335 50.8906V49.8886C122.948 49.9121 122.643 49.9121 122.386 49.9121C122.128 49.9121 121.94 49.8359 121.811 49.707C121.682 49.5781 121.63 49.3495 121.63 49.0273V45.5524H123.335V45.5583ZM124.706 43.314C124.911 43.314 125.075 43.2496 125.233 43.0972C125.374 42.9566 125.45 42.775 125.45 42.5699C125.45 42.3648 125.374 42.2007 125.233 42.0425C125.081 41.8901 124.911 41.814 124.706 41.814C124.489 41.814 124.308 41.8901 124.167 42.0425C124.015 42.1948 123.95 42.3648 123.95 42.5699C123.95 42.775 124.015 42.9566 124.167 43.0972C124.308 43.2496 124.489 43.314 124.706 43.314ZM124.143 50.8848H125.257V44.4801H124.143V50.8848ZM133.367 44.3102C132.47 44.3102 131.79 44.6794 131.357 45.4001C130.958 44.6852 130.331 44.3102 129.476 44.3102C128.62 44.3102 128.005 44.6559 127.566 45.3356V44.4743H126.452V50.8789H127.566V47.3162C127.566 46.6775 127.718 46.1912 128.028 45.8572C128.333 45.5349 128.732 45.3708 129.206 45.3708C129.616 45.3708 129.95 45.5114 130.191 45.781C130.431 46.0622 130.56 46.449 130.56 46.9353V50.8789H131.673V47.3162C131.673 46.6599 131.814 46.1736 132.095 45.8572C132.376 45.5407 132.763 45.3708 133.249 45.3708C133.671 45.3708 134.017 45.5114 134.275 45.781C134.533 46.0622 134.662 46.449 134.662 46.9353V50.8789H135.775V46.8943C135.775 46.0974 135.546 45.4704 135.107 45.0134C134.662 44.5504 134.082 44.3102 133.367 44.3102ZM137.591 48.1893H142.959C142.982 48.0252 143 47.8553 143 47.6912C143 46.7713 142.695 45.9743 142.103 45.3063C141.512 44.6383 140.744 44.3043 139.812 44.3043C138.81 44.3043 138.008 44.6266 137.392 45.2653C136.765 45.904 136.455 46.7127 136.455 47.6737C136.455 48.6347 136.759 49.455 137.404 50.0937C138.043 50.7324 138.863 51.043 139.888 51.043C141.142 51.043 142.08 50.5684 142.707 49.5956L141.758 49.0566C141.371 49.6835 140.756 49.9941 139.912 49.9941C139.297 49.9941 138.787 49.8417 138.377 49.5195C137.966 49.2148 137.697 48.7636 137.597 48.1893H137.591ZM139.806 45.3591C140.322 45.3591 140.767 45.5232 141.154 45.8337C141.541 46.156 141.769 46.6131 141.869 47.2166H137.591C137.679 46.6541 137.925 46.2029 138.324 45.8689C138.711 45.5349 139.209 45.3591 139.812 45.3591H139.806Z" fill="#888A99"/>
</g>
</svg>
