<svg width="69" height="107" viewBox="0 0 69 107" fill="none" xmlns="http://www.w3.org/2000/svg">
<g id="Group 40">
<path id="Vector" d="M0.999664 74.9717H2.97703V82.1621H0.999664V74.9717Z" fill="#33333D"/>
<path id="Vector_2" d="M8.92661 74.9717H10.8982V82.1621H8.63088L6.10844 78.0276V82.1621H4.13107V74.9717H6.41577L8.93821 79.1294L8.92661 74.9717Z" fill="#33333D"/>
<path id="Vector_3" d="M16.8536 74.9717H18.8251V82.1621H16.5521L14.0354 78.0276V82.1621H12.058V74.9717H14.3311L16.8536 79.1294V74.9717Z" fill="#33333D"/>
<path id="Vector_4" d="M24.0731 82.1621H23.3135C21.0984 82.1621 19.7936 80.695 19.7936 78.5727C19.7936 76.4503 21.0984 74.9717 23.3135 74.9717H24.0731C26.236 74.9717 27.5175 76.375 27.5175 78.5727C27.5175 80.7704 26.236 82.1621 24.0731 82.1621ZM25.5518 78.5727C25.5518 77.2854 24.9719 76.6243 23.8701 76.6243H23.4932C22.4263 76.6243 21.7942 77.268 21.7942 78.5727C21.7942 79.8774 22.4089 80.4979 23.4758 80.4979H23.8527C24.9719 80.4979 25.5518 79.8426 25.5518 78.5727Z" fill="#33333D"/>
<path id="Vector_5" d="M33.4842 74.9717H35.4848L32.6376 82.1621H30.5907L27.7261 74.9717H29.7267L31.6054 79.976L33.4842 74.9717Z" fill="#33333D"/>
<path id="Vector_6" d="M39.2944 74.9717L42.1589 82.1621H40.1526L39.6945 80.9444H36.9459L36.4878 82.1621H34.493L37.346 74.9717H39.2944ZM39.1146 79.3845L38.3086 77.2854L37.5257 79.3845H39.1146Z" fill="#33333D"/>
<path id="Vector_7" d="M48.3697 74.9717V76.6243H45.969V82.1621H44.0033V76.6243H41.5968V74.9717H48.3697Z" fill="#33333D"/>
<path id="Vector_8" d="M49.2394 74.9717H51.2109V82.1621H49.2394V74.9717Z" fill="#33333D"/>
<path id="Vector_9" d="M56.4587 82.1621H55.7048C53.4839 82.1621 52.1792 80.695 52.1792 78.5727C52.1792 76.4503 53.4839 74.9717 55.7048 74.9717H56.4587C58.6216 74.9717 59.9031 76.375 59.9031 78.5727C59.9031 80.7704 58.6042 82.1621 56.4587 82.1621ZM57.9199 78.5727C57.9199 77.2854 57.3401 76.6243 56.2383 76.6243H55.8672C54.7944 76.6243 54.1624 77.268 54.1624 78.5727C54.1624 79.8774 54.7944 80.5153 55.8672 80.5153H56.2383C57.3517 80.4979 57.9199 79.8426 57.9199 78.5727Z" fill="#33333D"/>
<path id="Vector_10" d="M65.6726 74.9717H67.65V82.1621H65.3769L62.8545 78.0276V82.1621H60.8771V74.9717H63.1502L65.6726 79.1294V74.9717Z" fill="#33333D"/>
<path id="Vector_11" d="M15.2065 85.3452H21.069V106.661H15.2065V98.4735H6.85637V106.685H0.999664V85.3452H6.85637V93.5504H15.2065V85.3452Z" fill="#33333D"/>
<path id="Vector_12" d="M38.564 85.3452H44.4265V96.7339C44.4265 103.333 41.7069 106.673 35.3341 106.673H33.4379C27.0593 106.673 24.3513 103.333 24.3513 96.7339V85.3452H30.1906V96.9427C30.1906 100.144 30.927 101.756 33.954 101.756H34.8296C37.7985 101.756 38.5929 100.144 38.5929 96.9427L38.564 85.3452Z" fill="#33333D"/>
<path id="Vector_13" d="M68.63 100.062C68.63 104.029 65.9684 106.661 61.5208 106.661H47.7082V85.3452H60.7321C64.9188 85.3452 67.8356 87.8039 67.8356 91.9963C67.8671 93.3289 67.3926 94.6238 66.5077 95.6205C67.1918 96.1364 67.7418 96.8093 68.1111 97.5823C68.4805 98.3554 68.6585 99.206 68.63 100.062ZM53.5533 90.2393V93.8345H60.2914C61.37 93.8345 61.9615 93.3011 61.9615 91.9963C61.9615 90.9178 61.5382 90.2567 60.4364 90.2567L53.5533 90.2393ZM62.7849 100.062C62.7849 98.7924 62.2456 98.1662 61.0859 98.1662H53.5475V101.761H61.0859C62.2282 101.761 62.7965 101.251 62.7965 100.062H62.7849Z" fill="#33333D"/>
<path id="Vector_14" d="M24.7281 9.90381L35.9718 14.566L13.9947 67.6301H0.814209L24.7281 9.90381Z" fill="#FFB90B"/>
<path id="Vector_15" d="M42.0083 0L37.6593 10.5015L37.6535 10.4957L26.4098 5.83931L28.8279 0H42.0083Z" fill="#FFB90B"/>
<path id="Vector_16" d="M68.4447 0L40.431 67.6305H27.2505L55.2642 0H68.4447Z" fill="#FFB90B"/>
<path id="Vector_17" d="M68.4447 28.0136V41.1941L0.814209 13.1805V0L68.4447 28.0136Z" fill="#FFB90B"/>
<path id="Vector_18" d="M68.4447 54.4554V67.6301L0.814209 39.6165V26.436L68.4447 54.4554Z" fill="#FFB90B"/>
</g>
</svg>
