<svg width="85" height="108" viewBox="0 0 85 108" fill="none" xmlns="http://www.w3.org/2000/svg">
<g id="Group 1000004334">
<g id="Group">
<g id="Group_2">
<g id="Group_3">
<g id="Group_4">
<path id="Vector" fill-rule="evenodd" clip-rule="evenodd" d="M43.8116 47.5105V22.9024H22.6313L24.1155 32.1988H32.8914V41.1997C30.8463 42.3135 28.8611 42.8225 26.0765 42.8225C17.3559 42.8225 12.9704 36.1455 12.9704 26.6359C12.9704 17.179 17.2078 10.7348 25.935 10.7348C31.1445 10.7348 35.6058 12.6385 39.4087 15.0555L41.0978 4.14459C37.0655 1.86899 31.8655 0.410156 25.638 0.410156C10.0304 0.410156 0.435791 11.0188 0.435791 26.7036C0.435791 42.3135 9.30333 52.8606 25.3462 52.8606C32.3072 52.8606 38.5359 50.9592 43.8116 47.5105Z" fill="#006FBA"/>
<path id="Vector_2" fill-rule="evenodd" clip-rule="evenodd" d="M84.9999 36.6653C84.9999 28.6113 80.6144 24.8019 69.6286 20.7685C63.3216 18.3578 61.922 17.1112 61.922 14.5314C61.922 12.1896 63.7571 10.6017 67.5769 10.6017C71.4467 10.6017 76.2142 12.0533 80.7527 14.6861L82.6584 4.14485C78.2532 2.02138 74.0138 0.773682 67.4187 0.773682C57.7535 0.773682 50.1368 5.9629 50.1368 15.7149C50.1368 24.0627 54.526 27.3673 64.6372 31.2423C71.7481 33.9616 73.208 35.2862 73.208 38.1345C73.208 41.1369 70.7181 42.6773 67.1222 42.6773C62.0724 42.6773 56.2938 40.769 51.0843 37.9951L49.2556 48.6839C54.3878 51.0251 60.0996 52.4811 66.9021 52.4811C76.9465 52.4805 84.9999 47.6566 84.9999 36.6653Z" fill="#006FBA"/>
</g>
</g>
</g>
</g>
<g id="Group_5">
<g id="Group_6">
<path id="Vector_3" d="M26.5213 88.8594C32.3538 85.0246 40.275 80.0361 40.275 70.5389C40.275 60.111 31.4398 55.3623 23.2314 55.3623C10.9855 55.3623 6.0476 65.0972 5.3526 66.6165L14.8015 71.0376C15.3906 69.983 18.0194 65.7775 22.4141 65.7775C25.2537 65.7775 28.0244 68.1092 28.0244 71.7346C28.0244 74.6546 24.7348 76.8581 20.6391 79.6494C14.1473 84.0737 6.06958 89.5778 6.06958 100.892C6.06958 102.375 6.23675 104.023 6.59568 106.066H40.2863V95.9335H19.5048C19.5048 93.7128 22.7267 91.3528 26.5213 88.8594Z" fill="#2ABADA"/>
</g>
</g>
<path id="Vector_4" d="M66.576 80.9193C63.9001 80.9193 61.7237 78.7432 61.7237 76.0662C61.7237 73.3912 63.9001 71.2151 66.576 71.2151C69.2518 71.2151 71.4291 73.3912 71.4291 76.0662C71.4291 78.7432 69.2518 80.9193 66.576 80.9193Z" fill="white"/>
<path id="Vector_5" d="M69.5314 70.7628C68.8818 70.5514 67.7345 70.2388 66.5756 70.2388C63.3565 70.2388 60.7475 72.8481 60.7475 76.066C60.7475 78.2548 61.9075 80.125 63.738 81.1557C64.5441 81.6101 66.5938 82.227 67.1705 82.5353C69.6202 83.8452 71.2861 86.4274 71.2861 89.4C71.2861 93.6973 67.8022 97.1838 63.5035 97.1838C59.4269 97.1838 56.0832 94.0461 55.7503 90.0551L45.3224 92.3223C47.0221 100.932 54.6113 107.427 63.721 107.427C74.0791 107.427 82.477 99.0308 82.477 88.6712C82.4773 80.3384 77.0492 73.2073 69.5314 70.7628ZM66.5759 79.9433C64.4385 79.9433 62.7 78.2045 62.7 76.0663C62.7 73.9304 64.4388 72.1913 66.5759 72.1913C68.7144 72.1913 70.4526 73.9304 70.4526 76.0663C70.4526 78.2042 68.7141 79.9433 66.5759 79.9433Z" fill="#2ABADA"/>
<g id="Group_7">
<path id="Vector_6" d="M48.5786 56.0593L46.5239 79.4721H57.0143L58.3519 66.1685H70.4004C77.5271 66.1685 80.1182 60.3898 80.1182 56.0593H48.5786Z" fill="#2ABADA"/>
</g>
</g>
</svg>
