<svg width="177" height="57" viewBox="0 0 177 57" fill="none" xmlns="http://www.w3.org/2000/svg">
<path d="M47.8701 28.2385C47.8389 24.7255 50.7467 23.0182 50.8795 22.9379C49.233 20.5369 46.6794 20.2089 45.7823 20.1826C43.6388 19.9563 41.5593 21.4651 40.467 21.4651C39.3747 21.4651 37.6708 20.204 35.8585 20.2417C33.5264 20.2778 31.3435 21.6275 30.1463 23.7251C27.6764 28.0007 29.5182 34.2819 31.8847 37.7375C33.0688 39.4316 34.4514 41.3193 36.262 41.2537C38.0332 41.1815 38.6941 40.1254 40.8327 40.1254C42.9713 40.1254 43.5716 41.2537 45.4182 41.2111C47.319 41.1815 48.5163 39.5104 49.6577 37.8031C51.0255 35.8646 51.5749 33.9523 51.5962 33.8555C51.5519 33.8408 47.9062 32.4484 47.8684 28.2385H47.8701ZM44.3818 17.9096C45.3346 16.7189 45.9857 15.0986 45.8053 13.4536C44.426 13.5143 42.7024 14.4065 41.7085 15.5725C40.8295 16.5992 40.0455 18.2819 40.2472 19.8645C41.7954 19.9793 43.3863 19.0838 44.3801 17.9112L44.3818 17.9096Z" fill="white"/>
<path d="M73.5244 39.75H71.0496L69.6933 35.4909H64.9799L63.6875 39.75H61.2767L65.9475 25.2472H68.8323L73.5244 39.75ZM69.2849 33.7032L68.0582 29.9164C67.9286 29.5294 67.6843 28.6191 67.3267 27.1841H67.2824C67.1381 27.8008 66.9085 28.7126 66.5936 29.9164L65.3882 33.7032H69.2833H69.2849ZM85.513 34.3937C85.513 36.1715 85.0308 37.5786 84.0632 38.6102C83.1973 39.5286 82.1214 39.9878 80.8389 39.9878C79.4531 39.9878 78.4576 39.4942 77.8524 38.5052V43.9928H75.5285V32.7323C75.5285 31.6155 75.499 30.4707 75.4416 29.2948H77.4851L77.6146 30.9529H77.6589C78.4346 29.7048 79.6105 29.08 81.1882 29.08C82.4215 29.08 83.4515 29.5671 84.2764 30.5429C85.0997 31.5203 85.513 32.8045 85.513 34.397V34.3937ZM83.1448 34.479C83.1448 33.4605 82.9152 32.6224 82.456 31.9599C81.9541 31.2727 81.2784 30.9283 80.4322 30.9283C79.8582 30.9283 79.3383 31.1202 78.8725 31.499C78.4067 31.8812 78.1001 32.3781 77.9574 32.9947C77.8934 33.226 77.8573 33.4621 77.8491 33.7016V35.4466C77.8491 36.2059 78.082 36.8472 78.5494 37.3736C79.0152 37.8968 79.622 38.1592 80.3682 38.1592C81.244 38.1592 81.9246 37.8197 82.4117 37.1473C82.9004 36.4732 83.1448 35.5843 83.1448 34.479ZM97.5426 34.3937C97.5426 36.1715 97.0604 37.5786 96.0928 38.6102C95.2269 39.5286 94.151 39.9878 92.8669 39.9878C91.481 39.9878 90.4855 39.4942 89.8804 38.5052V43.9928H87.5565V32.7323C87.5565 31.6155 87.5269 30.4707 87.4695 29.2948H89.513L89.6426 30.9529H89.6868C90.4609 29.7048 91.6368 29.08 93.2162 29.08C94.4495 29.08 95.4794 29.5671 96.306 30.5429C97.1277 31.5203 97.5426 32.8045 97.5426 34.397V34.3937ZM95.1744 34.479C95.1744 33.4605 94.9448 32.6224 94.4839 31.9599C93.9821 31.2727 93.3097 30.9283 92.4634 30.9283C91.8894 30.9283 91.3695 31.1202 90.9021 31.499C90.4363 31.8812 90.1313 32.3781 89.9886 32.9947C89.9181 33.2817 89.8804 33.5163 89.8804 33.7016V35.4466C89.8804 36.2059 90.1149 36.8472 90.579 37.3736C91.0448 37.8951 91.6516 38.1592 92.3995 38.1592C93.2752 38.1592 93.9575 37.8197 94.4429 37.1473C94.9317 36.4732 95.176 35.5843 95.176 34.479H95.1744ZM110.994 35.6827C110.994 36.9177 110.563 37.9214 109.705 38.6955C108.76 39.5417 107.443 39.9648 105.754 39.9648C104.193 39.9648 102.942 39.6647 101.999 39.0612L102.536 37.1243C103.555 37.7278 104.675 38.028 105.894 38.028C106.769 38.028 107.452 37.8295 107.937 37.4359C108.424 37.0407 108.67 36.5142 108.67 35.8566C108.67 35.2678 108.467 34.7742 108.067 34.3707C107.665 33.9689 106.999 33.5966 106.066 33.2522C103.525 32.3059 102.254 30.9201 102.254 29.098C102.254 27.9074 102.704 26.9332 103.599 26.1722C104.495 25.4112 105.684 25.0308 107.161 25.0308C108.482 25.0308 109.58 25.2604 110.455 25.7196L109.871 27.6138C109.049 27.1694 108.121 26.9463 107.084 26.9463C106.264 26.9463 105.621 27.148 105.162 27.5482C104.775 27.9074 104.578 28.3436 104.578 28.8619C104.578 29.4342 104.801 29.9098 105.246 30.2821C105.631 30.6249 106.336 30.9988 107.353 31.4006C108.603 31.9041 109.52 32.4896 110.108 33.1637C110.701 33.8377 110.994 34.6774 110.994 35.6795V35.6827ZM118.697 31.0365H116.136V36.1141C116.136 37.4048 116.587 38.0493 117.492 38.0493C117.907 38.0493 118.251 38.0149 118.523 37.9411L118.587 39.7057C118.13 39.8763 117.526 39.9632 116.78 39.9632C115.862 39.9632 115.145 39.6828 114.627 39.1235C114.112 38.5626 113.851 37.6245 113.851 36.3043V31.0333H112.326V29.2899H113.851V27.376L116.134 26.6872V29.2899H118.696V31.0382L118.697 31.0365ZM130.232 34.4347C130.232 36.0419 129.772 37.3621 128.854 38.3937C127.893 39.4564 126.617 39.9862 125.023 39.9862C123.429 39.9862 122.264 39.4778 121.352 38.4609C120.441 37.4425 119.986 36.1583 119.986 34.6102C119.986 33.062 120.457 31.663 121.395 30.6298C122.336 29.5966 123.603 29.08 125.195 29.08C126.788 29.08 127.963 29.59 128.895 30.6085C129.787 31.5958 130.23 32.8701 130.23 34.4363L130.232 34.4347ZM127.822 34.4888C127.822 33.531 127.616 32.7094 127.199 32.0222C126.712 31.1923 126.015 30.7774 125.111 30.7774C124.208 30.7774 123.466 31.1923 122.981 32.0222C122.564 32.7094 122.358 33.5458 122.358 34.5331C122.358 35.5204 122.564 36.3158 122.981 37.0013C123.483 37.8312 124.185 38.2461 125.092 38.2461C125.999 38.2461 126.676 37.823 127.179 36.98C127.608 36.2764 127.821 35.4482 127.821 34.4888H127.822ZM137.789 31.3367C137.548 31.2924 137.302 31.2711 137.056 31.2727C136.239 31.2727 135.606 31.5794 135.162 32.1993C134.776 32.7438 134.581 33.4326 134.581 34.2641V39.7516H132.257V32.588C132.259 31.4908 132.237 30.392 132.19 29.2965H134.214L134.299 31.2973H134.363C134.609 30.6101 134.994 30.0558 135.524 29.6392C136.009 29.2768 136.598 29.08 137.203 29.0783C137.418 29.0783 137.612 29.0931 137.784 29.121V31.3383H137.786L137.789 31.3367ZM148.182 34.0279C148.188 34.3806 148.159 34.7348 148.096 35.0825H141.125C141.151 36.1157 141.489 36.9062 142.137 37.4523C142.724 37.9378 143.483 38.1821 144.416 38.1821C145.448 38.1821 146.391 38.0181 147.237 37.6885L147.601 39.3006C146.612 39.732 145.443 39.9468 144.095 39.9468C142.473 39.9468 141.2 39.4696 140.273 38.5167C139.348 37.5638 138.886 36.2813 138.886 34.6758C138.886 33.0702 139.317 31.7877 140.178 30.7397C141.08 29.6212 142.301 29.0619 143.836 29.0619C145.371 29.0619 146.484 29.6212 147.26 30.7397C147.873 31.6253 148.182 32.7241 148.182 34.0279ZM145.966 33.4261C145.982 32.7356 145.83 32.1419 145.515 31.6401C145.113 30.9923 144.493 30.6708 143.663 30.6708C142.904 30.6708 142.284 30.9857 141.813 31.6171C141.426 32.119 141.197 32.7225 141.126 33.4244H145.966V33.4261Z" fill="white"/>
<path d="M64.312 21.3807C63.6658 21.3807 63.1066 21.3495 62.6408 21.2954V14.2843C63.2919 14.1842 63.9495 14.1334 64.6088 14.1367C67.2739 14.1367 68.5006 15.447 68.5006 17.584C68.5006 20.049 67.0508 21.3807 64.312 21.3807ZM64.7023 15.0354C64.3432 15.0354 64.0365 15.0567 63.7823 15.1092V20.4393C63.92 20.4606 64.1841 20.4704 64.5547 20.4704C66.3013 20.4704 67.2952 19.4766 67.2952 17.6152C67.2952 15.9555 66.3965 15.0354 64.704 15.0354H64.7023ZM72.3252 21.4348C70.8229 21.4348 69.8504 20.313 69.8504 18.7911C69.8504 17.2691 70.8442 16.0735 72.4104 16.0735C73.8914 16.0735 74.8852 17.1412 74.8852 18.7074C74.8852 20.2736 73.8602 21.4348 72.3252 21.4348ZM72.3694 16.9083C71.5445 16.9083 71.0164 17.6791 71.0164 18.7583C71.0164 19.8374 71.556 20.5885 72.3596 20.5885C73.1632 20.5885 73.7028 19.7636 73.7028 18.7369C73.7028 17.7103 73.1747 16.9083 72.3711 16.9083H72.3694ZM83.4511 16.1785L81.8439 21.3183H80.7959L80.1301 19.0863C79.9644 18.5401 79.8266 17.9858 79.7168 17.4266H79.6954C79.6118 17.9874 79.4527 18.5483 79.2838 19.0863L78.5753 21.3183H77.5175L76.0037 16.1785H77.178L77.7602 18.6221C77.898 19.2043 78.0128 19.7538 78.1095 20.272H78.1309C78.2145 19.839 78.3523 19.2995 78.554 18.6336L79.2838 16.1801H80.2153L80.914 18.5811C81.0829 19.1633 81.2207 19.7341 81.3273 20.2736H81.3584C81.4322 19.7456 81.5487 19.1847 81.7078 18.5811L82.3326 16.1801H83.4544L83.4511 16.1785ZM89.37 21.3183H88.2269V18.3679C88.2269 17.4594 87.8775 17.0034 87.1904 17.0034C86.5032 17.0034 86.0473 17.5856 86.0473 18.2613V21.3183H84.9042V17.648C84.9042 17.1937 84.8927 16.7066 84.8615 16.1785H85.8669L85.921 16.9723H85.9521C86.2588 16.4229 86.8837 16.0735 87.5823 16.0735C88.6615 16.0735 89.37 16.8985 89.37 18.2417V21.3183ZM92.5205 21.3183H91.3774V13.8218H92.5205V21.3183ZM96.6861 21.4348C95.1855 21.4348 94.2113 20.313 94.2113 18.7911C94.2113 17.2691 95.2052 16.0735 96.7714 16.0735C98.2523 16.0735 99.2462 17.1412 99.2462 18.7074C99.2462 20.313 98.2212 21.4348 96.6861 21.4348ZM96.7288 16.9083C95.9038 16.9083 95.3757 17.6791 95.3757 18.7583C95.3757 19.8374 95.917 20.5885 96.7173 20.5885C97.5176 20.5885 98.0605 19.7636 98.0605 18.7369C98.0605 17.6906 97.534 16.9083 96.7288 16.9083ZM103.75 21.3183L103.666 20.7263H103.635C103.286 21.2019 102.777 21.4348 102.131 21.4348C101.209 21.4348 100.557 20.7903 100.557 19.9227C100.557 18.6549 101.657 17.9989 103.561 17.9989V17.9038C103.561 17.2265 103.202 16.8886 102.493 16.8886C101.987 16.8886 101.542 17.0165 101.15 17.2708L100.917 16.5196C101.393 16.2228 101.985 16.0752 102.682 16.0752C104.025 16.0752 104.703 16.7837 104.703 18.2007V20.0932C104.703 20.6115 104.726 21.0133 104.776 21.32H103.746L103.75 21.3183ZM103.592 18.7583C102.323 18.7583 101.687 19.0649 101.687 19.7948C101.687 20.3343 102.015 20.5984 102.471 20.5984C103.051 20.5984 103.592 20.1556 103.592 19.552V18.7583ZM110.252 21.3183L110.198 20.4934H110.167C109.839 21.1166 109.288 21.4348 108.517 21.4348C107.277 21.4348 106.361 20.3458 106.361 18.8124C106.361 17.279 107.312 16.0735 108.611 16.0735C109.298 16.0735 109.785 16.3064 110.061 16.7722H110.084V13.8218H111.227V19.9342C111.227 20.4311 111.238 20.8969 111.269 21.32H110.252V21.3183ZM110.084 18.2941C110.084 17.5742 109.608 16.9608 108.88 16.9608C108.033 16.9608 107.515 17.7119 107.515 18.7681C107.515 19.8243 108.053 20.5131 108.857 20.5131C109.575 20.5131 110.084 19.8882 110.084 19.1486V18.2925V18.2941ZM118.477 21.4348C116.977 21.4348 116.002 20.313 116.002 18.7911C116.002 17.2691 116.996 16.0735 118.562 16.0735C120.043 16.0735 121.037 17.1412 121.037 18.7074C121.037 20.313 120.012 21.4348 118.477 21.4348ZM118.52 16.9083C117.697 16.9083 117.167 17.6791 117.167 18.7583C117.167 19.8374 117.706 20.5885 118.508 20.5885C119.31 20.5885 119.852 19.7636 119.852 18.7369C119.853 17.6906 119.325 16.9083 118.52 16.9083ZM127.181 21.3183H126.038V18.3679C126.038 17.4594 125.688 17.0034 125.001 17.0034C124.314 17.0034 123.86 17.5856 123.86 18.2613V21.3183H122.717V17.648C122.717 17.1937 122.705 16.7066 122.674 16.1785H123.679L123.733 16.9723H123.765C124.071 16.4229 124.696 16.0735 125.393 16.0735C126.472 16.0735 127.182 16.8985 127.182 18.2417V21.32L127.181 21.3183ZM134.866 17.0362H133.61V19.5324C133.61 20.167 133.829 20.4852 134.274 20.4852C134.476 20.4852 134.645 20.4639 134.781 20.4311L134.812 21.2987C134.59 21.3839 134.294 21.4266 133.926 21.4266C133.026 21.4266 132.488 20.9297 132.488 19.6291V17.0379H131.738V16.1818H132.488V15.2404L133.61 14.9009V16.1801H134.866V17.0379V17.0362ZM140.913 21.3183H139.771V18.3893C139.771 17.4692 139.424 17.0034 138.735 17.0034C138.143 17.0034 137.592 17.4052 137.592 18.2203V21.3183H136.45V13.8218H137.592V16.9083H137.615C137.974 16.3474 138.495 16.0719 139.16 16.0719C140.247 16.0719 140.913 16.9181 140.913 18.2613V21.3183ZM147.109 19.0239H143.681C143.702 19.9965 144.347 20.5459 145.301 20.5459C145.808 20.5459 146.276 20.4606 146.687 20.3032L146.864 21.0969C146.379 21.3085 145.807 21.4135 145.141 21.4135C143.533 21.4135 142.581 20.3983 142.581 18.8239C142.581 17.2494 143.555 16.0637 145.011 16.0637C146.325 16.0637 147.148 17.0362 147.148 18.5073C147.156 18.6812 147.142 18.855 147.109 19.0256V19.0239ZM146.061 18.2105C146.061 17.4167 145.661 16.8575 144.931 16.8575C144.275 16.8575 143.757 17.4282 143.681 18.2105H146.061Z" fill="white"/>
<rect x="0.709986" y="0.643763" width="176.087" height="55.7133" rx="16.8767" stroke="white" stroke-opacity="0.5" stroke-width="0.406667"/>
</svg>
