<svg width="59" height="62" viewBox="0 0 59 62" fill="none" xmlns="http://www.w3.org/2000/svg">
<g id="Group 1000004309">
<path id="Vector" d="M44.8525 2.58721C44.7934 2.98171 44.8134 3.38405 44.9116 3.7707C45.0098 4.15734 45.1842 4.52051 45.4244 4.83897C45.6646 5.15743 45.966 5.42478 46.3108 5.62537C46.6556 5.82597 47.0369 5.95578 47.4325 6.00721C48.7962 6.21371 50.058 6.85123 51.0333 7.82649C52.0085 8.80175 52.646 10.0635 52.8525 11.4272C52.904 11.8228 53.0338 12.2042 53.2344 12.549C53.435 12.8938 53.7023 13.1951 54.0208 13.4354C54.3392 13.6756 54.7024 13.8499 55.0891 13.9481C55.4757 14.0463 55.878 14.0664 56.2725 14.0072C56.6681 13.9558 57.0495 13.826 57.3943 13.6254C57.7391 13.4248 58.0404 13.1574 58.2807 12.839C58.5209 12.5205 58.6952 12.1573 58.7934 11.7707C58.8916 11.3841 58.9117 10.9817 58.8525 10.5872C58.4677 7.91782 57.2292 5.44471 55.3221 3.53765C53.415 1.63059 50.9419 0.392047 48.2725 0.00721439C48.1327 -0.0024048 47.9924 -0.0024048 47.8525 0.00721439C47.1246 4.97177e-05 46.4188 0.257833 45.8669 0.732514C45.3149 1.2072 44.9544 1.86638 44.8525 2.58721Z" fill="black"/>
<path id="Vector_2" d="M55.3627 36.5774C55.7565 35.5787 55.9153 34.5028 55.8269 33.4329C55.7384 32.363 55.4051 31.3278 54.8527 30.4074C48.3439 19.5809 39.2791 10.5161 28.4527 4.00735C27.5319 3.45526 26.4964 3.12239 25.4263 3.03449C24.3563 2.94658 23.2803 3.106 22.2817 3.50041C21.2831 3.89482 20.3887 4.51365 19.6675 5.30903C18.9463 6.10442 18.4177 7.05503 18.1227 8.08735L13.3827 24.5774L4.18269 33.7774C1.4754 36.5621 -0.0270047 40.3005 0.00036756 44.1842C0.0277398 48.0679 1.58269 51.7848 4.32896 54.5311C7.07523 57.2774 10.7921 58.8323 14.6758 58.8597C18.5596 58.8871 22.298 57.3846 25.0827 54.6774L26.6827 53.0774L30.4927 56.8874C32.1122 58.5154 34.0384 59.8062 36.16 60.6851C38.2816 61.5639 40.5563 62.0133 42.8527 62.0074C43.6483 62.0074 44.4114 61.6913 44.974 61.1287C45.5366 60.5661 45.8527 59.803 45.8527 59.0074C45.8527 58.2117 45.5366 57.4486 44.974 56.886C44.4114 56.3234 43.6483 56.0074 42.8527 56.0074C41.3443 56.0118 39.85 55.7172 38.4562 55.1404C37.0625 54.5637 35.7969 53.7163 34.7327 52.6474L30.9227 48.8374L34.3127 45.4474L50.7727 40.7374C51.8057 40.4426 52.757 39.9141 53.5529 39.1927C54.3489 38.4713 54.9681 37.5765 55.3627 36.5774ZM20.8527 50.4374C20.0365 51.2535 19.0676 51.9009 18.0012 52.3426C16.9349 52.7843 15.7919 53.0117 14.6377 53.0117C13.4835 53.0117 12.3405 52.7843 11.2742 52.3426C10.2078 51.9009 9.23886 51.2535 8.42269 50.4374C7.60652 49.6212 6.95911 48.6523 6.5174 47.5859C6.0757 46.5195 5.84835 45.3766 5.84835 44.2224C5.84835 43.0681 6.0757 41.9252 6.5174 40.8588C6.95911 39.7924 7.60652 38.8235 8.42269 38.0074L16.6927 29.7374L29.1127 42.1674L20.8527 50.4374ZM34.5627 39.1274L19.7327 24.2974L23.9527 9.52736C23.9849 9.40223 24.0456 9.28623 24.1299 9.18837C24.2143 9.0905 24.3201 9.01342 24.4391 8.96311C24.5581 8.9128 24.6871 8.89062 24.8161 8.89829C24.945 8.90596 25.0705 8.94329 25.1827 9.00735C35.309 15.0776 43.7824 23.551 49.8527 33.6774C49.919 33.7879 49.959 33.9122 49.9696 34.0407C49.9801 34.1692 49.961 34.2984 49.9136 34.4182C49.8662 34.5381 49.7919 34.6455 49.6964 34.7321C49.6008 34.8186 49.4867 34.882 49.3627 34.9174L34.5627 39.1274Z" fill="black"/>
</g>
</svg>
