<svg width="407" height="99" viewBox="0 0 407 99" fill="none" xmlns="http://www.w3.org/2000/svg">
<path d="M45.1564 39.0183L51.3132 52.779C46.2484 57.1664 38.5721 59.6134 31.9022 59.6134C14.3461 59.6134 0 46.2736 0 29.9015C0 13.5294 14.3461 0.196289 31.9022 0.196289C38.5721 0.196289 46.2484 2.55771 51.3132 6.95167L45.1564 20.7913C42.1175 17.3314 37.4736 15.0489 32.3232 15.0489C23.4629 15.0489 16.2076 21.7188 16.2076 29.9015C16.2076 38.0843 23.4695 44.7542 32.3232 44.7542C37.4736 44.7542 42.1175 42.4782 45.1564 39.0118V39.0183Z" fill="#0C0C0C"/>
<path d="M115.666 29.9013C115.666 46.2734 101.741 59.6065 84.6054 59.6065C67.4703 59.6065 53.5452 46.2734 53.5452 29.9013C53.5452 13.5292 67.4703 0.189453 84.6054 0.189453C101.741 0.189453 115.666 13.5226 115.666 29.9013ZM99.4581 29.9013C99.4581 21.7119 92.7882 15.0487 84.6054 15.0487C76.4227 15.0487 69.7528 21.7185 69.7528 29.9013C69.7528 38.084 76.4227 44.7539 84.6054 44.7539C92.7882 44.7539 99.4581 38.084 99.4581 29.9013Z" fill="#0C0C0C"/>
<path d="M189.557 58.2619H173.356L170.652 28.5567L161.2 58.2619H147.696L138.243 28.5567L135.54 58.2619H119.339L124.739 1.54834H140.947L154.451 35.3055L167.955 1.54834H184.163L189.563 58.2619H189.557Z" fill="#0C0C0C"/>
<path d="M244.422 20.4529C244.422 31.4246 237.502 40.7058 225.517 40.7058H213.361V58.2619H197.154V1.54834H222.807C237.581 1.54834 244.415 9.48114 244.415 20.4529H244.422ZM228.221 21.1304C228.221 16.993 225.096 15.0525 221.301 15.0525H213.368V27.2082H221.301C225.096 27.2082 228.221 25.3533 228.221 21.1304Z" fill="#0C0C0C"/>
<path d="M353.669 39.7745C353.669 50.7463 346.243 59.6065 328.01 59.6065C312.9 59.6065 303.705 51.1672 303.705 51.1672L309.697 38.2551C318.136 44.7539 328.01 44.7539 328.01 44.7539C332.482 44.9249 337.462 44.4184 337.462 41.294C337.462 38.847 334.508 38.3406 327.082 37.1566C311.637 34.7096 305.053 28.3818 305.053 18.5875C305.053 8.79319 312.736 0.189453 329.529 0.189453C329.529 0.189453 343.283 0.189452 350.966 6.94483L344.553 19.1006C344.553 19.1006 339.317 15.0487 328.01 15.0487C322.695 15.0487 321.261 16.2327 321.261 17.7521C321.261 19.607 322.695 20.4556 328.687 21.212C339.823 22.646 353.669 25.4284 353.669 39.7811V39.7745Z" fill="#0C0C0C"/>
<path d="M407 39.7745C407 50.7463 399.574 59.6065 381.34 59.6065C366.231 59.6065 357.035 51.1672 357.035 51.1672L363.028 38.2551C371.467 44.7539 381.34 44.7539 381.34 44.7539C385.813 44.9249 390.792 44.4184 390.792 41.294C390.792 38.847 387.839 38.3406 380.413 37.1566C364.968 34.7096 358.384 28.3818 358.384 18.5875C358.384 8.79319 366.066 0.189453 382.86 0.189453C382.86 0.189453 396.614 0.189452 404.297 6.94483L397.883 19.1006C397.883 19.1006 392.654 15.0487 381.34 15.0487C376.025 15.0487 374.591 16.2327 374.591 17.7521C374.591 19.607 376.025 20.4556 382.018 21.212C393.16 22.646 407 25.4284 407 39.7811V39.7745Z" fill="#0C0C0C"/>
<path d="M16.4612 86.4453L17.8294 89.675C16.2441 91.1221 13.8498 91.9311 11.7646 91.9311C6.27878 91.9311 1.79932 87.5372 1.79932 82.1302C1.79932 76.7233 6.27878 72.3359 11.7646 72.3359C13.8498 72.3359 16.2441 73.1121 17.8294 74.5592L16.4612 77.7889C15.264 76.6181 13.6262 75.8945 11.8107 75.8945C8.24554 75.8945 5.35132 78.6769 5.35132 82.1302C5.35132 85.5836 8.24554 88.366 11.8107 88.366C13.6459 88.366 15.2903 87.6424 16.4612 86.4453Z" fill="#0C0C0C"/>
<path d="M33.6493 84.5813C33.6493 88.6463 30.367 91.9286 26.3019 91.9286C22.2368 91.9286 18.9545 88.6463 18.9545 84.5813C18.9545 80.5162 22.2368 77.2339 26.3019 77.2339C30.367 77.2339 33.6493 80.5162 33.6493 84.5813ZM30.0841 84.5813C30.0841 82.4961 28.3871 80.799 26.2953 80.799C24.2036 80.799 22.5131 82.4961 22.5131 84.5813C22.5131 86.6664 24.2102 88.3701 26.2953 88.3701C28.3805 88.3701 30.0841 86.673 30.0841 84.5813Z" fill="#0C0C0C"/>
<path d="M56.7364 83.4696V91.4879H53.1713V83.9169C53.1713 81.7725 52.6451 80.799 50.948 80.799C49.2509 80.799 48.2774 81.8581 48.2774 84.3642V91.4879H44.7123V83.9169C44.7123 81.7725 44.0742 80.799 42.489 80.799C40.9037 80.799 39.8184 81.8581 39.8184 84.3642V91.4879H36.2532V77.6812H39.8184V79.0165C40.6801 77.9311 41.9627 77.2339 43.3835 77.2339C45.1332 77.2339 46.4159 77.8456 47.2513 79.0954C48.2774 77.9574 49.5075 77.2339 51.3953 77.2339C54.5658 77.2339 56.7364 79.2927 56.7364 83.4696Z" fill="#0C0C0C"/>
<path d="M80.4422 83.4696V91.4879H76.877V83.9169C76.877 81.7725 76.3508 80.799 74.6537 80.799C72.9567 80.799 71.9832 81.8581 71.9832 84.3642V91.4879H68.418V83.9169C68.418 81.7725 67.78 80.799 66.1947 80.799C64.6095 80.799 63.5241 81.8581 63.5241 84.3642V91.4879H59.959V77.6812H63.5241V79.0165C64.3858 77.9311 65.6685 77.2339 67.0893 77.2339C68.839 77.2339 70.1216 77.8456 70.957 79.0954C71.9832 77.9574 73.2132 77.2339 75.101 77.2339C78.2715 77.2339 80.4422 79.2927 80.4422 83.4696Z" fill="#0C0C0C"/>
<path d="M83.3317 85.6912V77.6729H86.8968V85.2439C86.8968 87.3882 87.7322 88.3617 89.5674 88.3617C91.179 88.3617 92.6853 87.3027 92.6853 84.7966V77.6729H96.2504V91.4796H92.6853V90.1443C91.7381 91.256 90.5935 91.9269 88.5084 91.9269C85.3379 91.9269 83.3317 89.8681 83.3317 85.6912Z" fill="#0C0C0C"/>
<path d="M112.609 83.4696V91.4879H109.044V83.9169C109.044 81.7725 108.208 80.799 106.373 80.799C104.755 80.799 103.255 81.8581 103.255 84.3642V91.4879H99.6899V77.6812H103.255V79.0165C104.202 77.9048 105.34 77.2339 107.432 77.2339C110.602 77.2339 112.609 79.2927 112.609 83.4696Z" fill="#0C0C0C"/>
<path d="M115.1 73.4406C115.1 72.079 116.186 70.9937 117.547 70.9937C118.909 70.9937 119.994 72.079 119.994 73.4406C119.994 74.8022 118.909 75.8875 117.547 75.8875C116.186 75.8875 115.1 74.8022 115.1 73.4406ZM115.771 77.6701H119.336V91.4768H115.771V77.6701Z" fill="#0C0C0C"/>
<path d="M123.482 80.7898H121.699V77.6719H123.482V72.7715H127.047V77.6719H129.717V80.7898H127.047V86.5782C127.047 88.6963 127.968 88.7752 129.717 88.3608V91.4787C129.02 91.755 128.27 91.926 127.099 91.926C124.567 91.926 123.482 90.1171 123.482 87.5583V80.7964V80.7898Z" fill="#0C0C0C"/>
<path d="M145.934 77.6794L137.028 98.6099H133.022L136.587 90.4798L131.246 77.6729H135.252L138.593 85.803L141.935 77.6729H145.941L145.934 77.6794Z" fill="#0C0C0C"/>
<path d="M169.947 86.4453L171.308 89.675C169.723 91.1221 167.329 91.9311 165.244 91.9311C159.758 91.9311 155.278 87.5372 155.278 82.1302C155.278 76.7233 159.758 72.3359 165.244 72.3359C167.336 72.3359 169.723 73.1121 171.308 74.5592L169.947 77.7889C168.75 76.6181 167.105 75.8945 165.296 75.8945C161.731 75.8945 158.837 78.6769 158.837 82.1302C158.837 85.5836 161.731 88.366 165.296 88.366C167.138 88.366 168.776 87.6424 169.947 86.4453Z" fill="#0C0C0C"/>
<path d="M187.135 77.6785V91.4853H183.57V90.0118C182.458 91.2945 181.011 91.9325 179.341 91.9325C175.525 91.9325 172.44 88.6502 172.44 84.5852C172.44 80.5201 175.532 77.2378 179.341 77.2378C181.011 77.2378 182.458 77.8758 183.57 79.1585V77.6851H187.135V77.6785ZM183.57 84.5786C183.57 82.4934 181.873 80.7964 179.788 80.7964C177.703 80.7964 175.999 82.4934 175.999 84.5786C175.999 86.6637 177.696 88.3674 179.788 88.3674C181.88 88.3674 183.57 86.6703 183.57 84.5786Z" fill="#0C0C0C"/>
<path d="M199.935 77.2273V81.4305C199.041 81.2068 198.067 81.2068 197.265 81.4305C195.765 81.8515 194.147 83.2394 194.147 85.6863V91.4747H190.582V77.668H194.147V80.5885C195.061 78.4442 197.429 77.3851 199.935 77.2207V77.2273Z" fill="#0C0C0C"/>
<path d="M212.565 79.1462V71.8843H216.13V91.4795H212.565V90.0061C211.453 91.2887 210.006 91.9268 208.335 91.9268C204.52 91.9268 201.435 88.6445 201.435 84.5794C201.435 80.5143 204.527 77.232 208.335 77.232C210.006 77.232 211.453 77.8701 212.565 79.1527V79.1462ZM212.565 84.5728C212.565 82.4877 210.868 80.7906 208.783 80.7906C206.697 80.7906 204.994 82.4877 204.994 84.5728C204.994 86.658 206.691 88.3616 208.783 88.3616C210.874 88.3616 212.565 86.6646 212.565 84.5728Z" fill="#0C0C0C"/>
</svg>
