<svg width="60" height="59" viewBox="0 0 60 59" fill="none" xmlns="http://www.w3.org/2000/svg">
<path d="M47 5.1V3C47 1.3 45.7 0 44 0C42.3 0 41 1.3 41 3V5H19V3C19 1.3 17.7 0 16 0C14.3 0 13 1.3 13 3V5.1C5.7 6 0 12.3 0 19.8V44.1C0 52.3 6.7 59 14.8 59H45.1C53.3 59 60 52.3 60 44.2V19.8C60 12.3 54.3 6 47 5.1ZM54 44.2C54 49.1 50 53 45.2 53H14.8C10 53 6 49 6 44.2V19.8C6 15.6 9 12 13 11.2V12.6C13 14.3 14.3 15.6 16 15.6C17.7 15.6 19 14.3 19 12.6V11H41V12.6C41 14.3 42.3 15.6 44 15.6C45.7 15.6 47 14.3 47 12.6V11.2C51 12.1 54 15.6 54 19.8V44.2Z" fill="black"/>
<path d="M45.9 20H14.1C12.4 20 11.1 21.3 11.1 23C11.1 24.7 12.4 26 14.1 26H45.8C47.5 26 48.8 24.7 48.8 23C48.8 21.3 47.5 20 45.9 20Z" fill="black"/>
</svg>
