<svg width="42" height="42" viewBox="0 0 42 42" fill="none" xmlns="http://www.w3.org/2000/svg">
<g clip-path="url(#clip0_128_490)">
<path d="M41.2174 21.0003C41.2174 9.61853 31.9905 0.391602 20.6087 0.391602C9.22692 0.391602 0 9.61853 0 21.0003C0 30.6649 6.65414 38.7749 15.6305 41.0023V27.2983H11.3809V21.0003H15.6305V18.2865C15.6305 11.2722 18.805 8.02094 25.6916 8.02094C26.9974 8.02094 29.2503 8.27731 30.172 8.53286V14.2415C29.6856 14.1904 28.8406 14.1648 27.7912 14.1648C24.4122 14.1648 23.1065 15.445 23.1065 18.7729V21.0003H29.8381L28.6815 27.2983H23.1065V41.4581C33.3111 40.2257 41.2182 31.5371 41.2182 21.0003H41.2174Z" fill="#0866FF"/>
<path d="M28.6807 27.2984L29.8373 21.0004H23.1057V18.773C23.1057 15.4451 24.4114 14.1649 27.7904 14.1649C28.8398 14.1649 29.6848 14.1904 30.1711 14.2415V8.53292C29.2495 8.27654 26.9966 8.021 25.6908 8.021C18.8042 8.021 15.6296 11.2722 15.6296 18.2866V21.0004H11.3801V27.2984H15.6296V41.0023C17.2239 41.398 18.8916 41.609 20.6079 41.609C21.4528 41.609 22.2862 41.5571 23.1048 41.4582V27.2984H28.6799H28.6807Z" fill="white"/>
</g>
<defs>
<clipPath id="clip0_128_490">
<rect width="41.2174" height="41.2174" fill="white" transform="translate(0 0.391602)"/>
</clipPath>
</defs>
</svg>
