<svg width="388" height="40" viewBox="0 0 388 40" fill="none" xmlns="http://www.w3.org/2000/svg">
<path d="M7.56 29.76C6.89333 29.7067 6.29333 29.5867 5.76 29.4C5.25333 29.24 4.62667 28.96 3.88 28.56C3 28.0533 2.29333 27.4667 1.76 26.8C1.22667 26.1333 0.76 25.4667 0.36 24.8C0.2 24.5067 0.12 24.2267 0.12 23.96C0.12 23.6667 0.213334 23.3733 0.4 23.08C0.533333 22.8667 0.693334 22.6533 0.88 22.44C1.06667 22.2267 1.26667 22.0533 1.48 21.92C1.85333 21.7067 2.12 21.64 2.28 21.72C2.46667 21.7733 2.70667 21.84 3 21.92C3.24 21.9467 3.38667 22.0133 3.44 22.12C3.52 22.2267 3.57333 22.36 3.6 22.52C3.65333 22.68 3.73333 22.88 3.84 23.12C3.68 23.36 3.52 23.5867 3.36 23.8C3.2 23.9867 2.97333 24.1467 2.68 24.28C2.92 24.76 3.2 25.2 3.52 25.6C3.86667 25.9733 4.24 26.3067 4.64 26.6C5.04 26.92 5.57333 27.1867 6.24 27.4C6.93333 27.5867 7.44 27.6267 7.76 27.52C7.89333 27.4667 8.02667 27.48 8.16 27.56C8.32 27.64 8.48 27.64 8.64 27.56C8.85333 27.5067 9.09333 27.4933 9.36 27.52C9.65333 27.52 9.97333 27.44 10.32 27.28C11.2267 27.0133 12.04 26.6267 12.76 26.12C13.48 25.6133 14.12 25 14.68 24.28C15.16 23.64 15.48 23.0667 15.64 22.56C15.8 22.0267 15.8933 21.3867 15.92 20.64C15.9733 20.1867 15.9333 19.7467 15.8 19.32C15.6667 18.8667 15.5333 18.4267 15.4 18C15.3467 17.7867 15.2133 17.64 15 17.56C14.8133 17.4533 14.6533 17.3333 14.52 17.2C13.9067 17.04 13.3467 16.8667 12.84 16.68C12.3333 16.4933 11.68 16.5333 10.88 16.8C10.4533 16.9333 10.1467 16.9733 9.96 16.92C9.77333 16.8667 9.50667 16.7467 9.16 16.56C8.94667 16.48 8.74667 16.32 8.56 16.08C8.37333 15.8133 8.22667 15.5467 8.12 15.28C8.04 15.0133 8.05333 14.8 8.16 14.64C8.29333 14.3733 8.49333 14.2 8.76 14.12C9.02667 14.0133 9.28 13.9867 9.52 14.04C9.89333 14.12 10.2533 14.12 10.6 14.04C10.9467 13.9333 11.28 13.8267 11.6 13.72C11.8667 13.6133 12.2267 13.4133 12.68 13.12C13.1333 12.8267 13.5467 12.5333 13.92 12.24C14.2933 11.9467 14.48 11.7867 14.48 11.76C15.0667 11.0667 15.6133 10.3867 16.12 9.72C16.6267 9.02667 17.04 8.22667 17.36 7.32C17.5733 6.92 17.7067 6.41333 17.76 5.8C17.84 5.16 17.7733 4.6 17.56 4.12C17.5067 3.85333 17.3067 3.65333 16.96 3.52C16.6133 3.36 16.2533 3.26667 15.88 3.24C15.5067 3.18667 15.2133 3.2 15 3.28C14.7067 3.28 14.2933 3.36 13.76 3.52C13.2533 3.68 12.7733 3.85333 12.32 4.04C11.8667 4.22667 11.5867 4.37333 11.48 4.48C11.3733 4.56 11.12 4.77333 10.72 5.12C10.3467 5.44 9.96 5.8 9.56 6.2C9.18667 6.57333 8.92 6.88 8.76 7.12C8.68 7.25333 8.53333 7.33333 8.32 7.36C8.10667 7.38667 7.89333 7.38667 7.68 7.36C7.49333 7.33333 7.38667 7.30666 7.36 7.28C7.12 6.88 6.98667 6.49333 6.96 6.12C6.93333 5.72 7.12 5.26667 7.52 4.76C7.89333 4.30667 8.26667 3.86667 8.64 3.44C9.04 3.01333 9.49333 2.65333 10 2.36C10.4 2.14667 10.8 1.92 11.2 1.68C11.6267 1.41333 12.0533 1.21333 12.48 1.08C12.7467 0.999999 13.1467 0.866666 13.68 0.68C14.24 0.493332 14.8133 0.453332 15.4 0.559999C16.0133 0.613332 16.4933 0.706665 16.84 0.839998C17.2133 0.946665 17.5733 1.13333 17.92 1.4C18.2667 1.64 18.6933 1.98666 19.2 2.44C19.68 2.73333 20 3.28 20.16 4.08C20.32 4.85333 20.3467 5.69333 20.24 6.6C20.16 7.48 19.96 8.24 19.64 8.88C19.3733 9.38667 19.1067 9.90667 18.84 10.44C18.5733 10.9467 18.2533 11.4267 17.88 11.88C17.64 12.2 17.3867 12.52 17.12 12.84C16.88 13.16 16.6267 13.4667 16.36 13.76C16.3333 13.8133 16.1333 13.96 15.76 14.2C15.3867 14.44 15.0533 14.6 14.76 14.68C15.0533 14.7867 15.4 14.9733 15.8 15.24C16.2 15.48 16.56 15.7467 16.88 16.04C17.2267 16.3067 17.4267 16.5467 17.48 16.76C18.0133 17.5867 18.36 18.5333 18.52 19.6C18.68 20.64 18.6267 21.8933 18.36 23.36C18.1733 23.7067 17.9867 24.0533 17.8 24.4C17.6133 24.72 17.4267 25.0533 17.24 25.4C16.8667 26.0933 16.44 26.6267 15.96 27C15.48 27.3733 14.9733 27.7467 14.44 28.12C14.04 28.3867 13.6267 28.6267 13.2 28.84C12.7733 29.0533 12.32 29.2267 11.84 29.36C11.04 29.5733 10.2667 29.7067 9.52 29.76C8.77333 29.84 8.12 29.84 7.56 29.76ZM22.0769 27.56C21.9702 27.3467 21.8369 27.1867 21.6769 27.08C21.5169 26.9467 21.4369 26.8267 21.4369 26.72C21.4369 26.6133 21.4235 26.5067 21.3969 26.4C21.3969 26.2667 21.3435 26.1467 21.2369 26.04C21.1035 25.88 21.1169 25.52 21.2769 24.96C21.4369 24.3733 21.7035 23.6667 22.0769 22.84C22.4502 21.9867 22.8902 21.0933 23.3969 20.16C23.6102 19.9467 23.8235 19.6667 24.0369 19.32C24.2502 18.9733 24.4102 18.7467 24.5169 18.64C24.5169 18.5333 24.5569 18.44 24.6369 18.36C24.7169 18.2533 24.8102 18.2 24.9169 18.2V17.96C24.9169 17.8267 25.0369 17.6 25.2769 17.28C25.5435 16.96 25.8635 16.6133 26.2369 16.24C26.6102 15.84 26.9969 15.4667 27.3969 15.12C27.7969 14.7467 28.1302 14.48 28.3969 14.32C28.9569 13.9467 29.5302 13.72 30.1169 13.64C30.7302 13.56 31.2502 13.6933 31.6769 14.04C31.7569 14.12 31.8902 14.2533 32.0769 14.44C32.2635 14.6267 32.4769 14.84 32.7169 15.08C32.9835 15.2933 33.2502 15.52 33.5169 15.76L34.9969 17.08L34.2769 19.08C33.9302 20.1467 33.8369 21.08 33.9969 21.88C34.1835 22.68 34.4502 23.3733 34.7969 23.96C34.9302 24.2533 35.1969 24.5333 35.5969 24.8C36.0235 25.0667 36.4235 25.2267 36.7969 25.28C37.0102 25.3067 37.2102 25.3867 37.3969 25.52C37.5835 25.6533 37.6769 25.8667 37.6769 26.16C37.6769 26.4267 37.6235 26.64 37.5169 26.8C37.4102 26.96 37.2235 27.0667 36.9569 27.12C36.0769 27.2267 35.2502 27.0133 34.4769 26.48C33.7302 25.9467 33.0369 25.0667 32.3969 23.84C32.2902 23.68 32.1435 23.3867 31.9569 22.96C31.7969 22.5067 31.7035 22.2133 31.6769 22.08C31.5702 22.2133 31.3702 22.4667 31.0769 22.84C30.7835 23.1867 30.5569 23.44 30.3969 23.6C28.5035 25.52 26.8635 26.8133 25.4769 27.48C24.1169 28.12 22.9835 28.1467 22.0769 27.56ZM23.5169 25.32C23.5169 25.5067 23.7969 25.5067 24.3569 25.32C24.9435 25.1067 25.5702 24.7333 26.2369 24.2C27.1435 23.4267 28.0502 22.5733 28.9569 21.64C29.8902 20.7067 30.6369 19.84 31.1969 19.04L32.0769 17.6C31.8102 16.9867 31.5169 16.5733 31.1969 16.36C30.9035 16.12 30.6502 16 30.4369 16C30.0902 16 29.5702 16.32 28.8769 16.96C28.2102 17.6 27.4902 18.4533 26.7169 19.52C25.9435 20.5867 25.2102 21.76 24.5169 23.04C24.2502 23.5733 24.0102 24.0933 23.7969 24.6C23.6102 25.08 23.5169 25.32 23.5169 25.32ZM38.7488 28.84C38.6421 28.7867 38.4954 28.68 38.3088 28.52C38.1488 28.36 38.0021 28.2 37.8688 28.04C37.7888 27.96 37.7221 27.8933 37.6688 27.84C37.6154 27.76 37.5621 27.7067 37.5088 27.68C37.5088 27.4933 37.5488 27.36 37.6288 27.28C37.7354 27.2 37.8421 27.1067 37.9488 27C38.0554 26.84 38.2288 26.76 38.4688 26.76C38.7088 26.76 38.8954 26.6933 39.0288 26.56C39.5088 26.2133 40.0021 25.8533 40.5088 25.48C41.0154 25.1067 41.4421 24.6667 41.7888 24.16C42.1621 23.6267 42.5354 23.0533 42.9088 22.44C43.2821 21.8267 43.6421 21.2267 43.9888 20.64C44.0954 20.4533 44.2688 20.12 44.5088 19.64C44.7488 19.16 44.9754 18.6933 45.1888 18.24C45.4288 17.76 45.5621 17.4267 45.5888 17.24C45.3488 17.16 45.1221 17.0933 44.9088 17.04C44.7221 16.96 44.5354 16.8933 44.3488 16.84C44.1088 16.4667 43.9754 16.2533 43.9488 16.2C43.9221 16.12 43.9088 15.8667 43.9088 15.44C43.9088 15.12 44.0821 14.92 44.4288 14.84C45.2021 14.6533 45.8821 14.5333 46.4688 14.48C47.0821 14.4267 47.6821 14.32 48.2688 14.16C48.6421 14.0533 49.0954 14.0133 49.6288 14.04C50.1621 14.0667 50.6954 14.1867 51.2288 14.4C51.4688 14.5067 51.6688 14.64 51.8288 14.8C51.9888 14.96 52.1354 15.1467 52.2688 15.36C52.6154 15.84 52.7888 16.2533 52.7888 16.6C52.8154 16.9467 52.8021 17.28 52.7488 17.6C52.6954 17.92 52.7354 18.28 52.8688 18.68C52.6821 19.4 52.4954 20.04 52.3088 20.6C52.1221 21.1333 51.9488 21.64 51.7888 22.12C51.6288 22.5733 51.4821 23 51.3488 23.4C51.2154 23.8 51.1088 24.2 51.0288 24.6C50.9221 25.0267 50.7888 25.4533 50.6288 25.88C50.4688 26.3067 50.3488 26.7467 50.2688 27.2C50.2154 27.5467 50.0554 27.8 49.7888 27.96C49.5488 28.12 49.2821 28.2667 48.9888 28.4C48.8821 28.4267 48.6954 28.4 48.4288 28.32C48.1888 28.2133 47.9621 28.0667 47.7488 27.88C47.6688 27.5867 47.6421 27.32 47.6688 27.08C47.6954 26.84 47.7488 26.6 47.8288 26.36C47.9088 26.1467 48.0554 25.6667 48.2688 24.92C48.4821 24.1733 48.7221 23.3333 48.9888 22.4C49.2554 21.4667 49.5088 20.6 49.7488 19.8C49.9888 19 50.1488 18.44 50.2288 18.12C50.3621 17.6933 50.4021 17.3733 50.3488 17.16C50.3221 16.9467 50.2821 16.7467 50.2288 16.56C49.6688 16.3467 49.2821 16.28 49.0688 16.36C48.8821 16.4133 48.6421 16.4667 48.3488 16.52C48.2154 16.6267 48.1088 16.7467 48.0288 16.88C47.9488 17.0133 47.8954 17.1467 47.8688 17.28C47.5754 18.0533 47.3221 18.6667 47.1088 19.12C46.9221 19.5733 46.7354 19.9867 46.5488 20.36C46.3621 20.7067 46.1488 21.0933 45.9088 21.52C45.6954 21.9467 45.4154 22.5333 45.0688 23.28C44.8554 23.76 44.5888 24.2 44.2688 24.6C43.9754 25 43.7088 25.4267 43.4688 25.88L43.0288 26.44C43.0554 26.44 42.9488 26.5467 42.7088 26.76C42.4688 26.9733 42.2288 27.1867 41.9888 27.4C41.7754 27.6133 41.6688 27.72 41.6688 27.72L40.4288 28.68C40.2954 28.7867 40.0688 28.84 39.7488 28.84C39.4288 28.84 39.0954 28.84 38.7488 28.84ZM53.9694 38.64C53.3827 38.7467 52.9827 38.76 52.7694 38.68C52.556 38.6 52.2627 38.4667 51.8894 38.28C51.596 38.0667 51.3694 37.9067 51.2094 37.8C51.0494 37.6933 50.9694 37.5867 50.9694 37.48C50.9694 37.4 50.996 37.3067 51.0494 37.2C51.1027 37.12 51.196 37.04 51.3294 36.96C51.4894 36.9067 51.7027 36.88 51.9694 36.88C52.156 36.9867 52.4627 37.04 52.8894 37.04C53.3427 37.04 53.6227 36.9867 53.7294 36.88C53.7294 36.88 53.8494 36.8 54.0894 36.64C54.356 36.5067 54.7027 36.4 55.1294 36.32C55.956 35.92 56.6894 35.4133 57.3294 34.8C57.9694 34.1867 58.5827 33.3867 59.1694 32.4C59.4094 32.0267 59.6627 31.5867 59.9294 31.08C60.196 30.6 60.3827 30.12 60.4894 29.64C60.7027 29.1067 60.9427 28.3867 61.2094 27.48C61.5027 26.5733 61.756 25.68 61.9694 24.8C62.1827 23.8933 62.3027 23.2133 62.3294 22.76C62.4894 21.2667 62.7427 19.8933 63.0894 18.64C63.4627 17.36 63.7827 15.9333 64.0494 14.36C64.2094 13.9867 64.3294 13.7733 64.4094 13.72C64.4894 13.64 64.6627 13.6 64.9294 13.6C65.2227 13.6 65.436 13.6267 65.5694 13.68C65.7294 13.7067 65.9027 13.8667 66.0894 14.16C66.356 14.6667 66.4494 15.2667 66.3694 15.96C66.316 16.6267 66.116 17.2133 65.7694 17.72C65.5027 18.0933 65.2627 18.68 65.0494 19.48C64.8627 20.2533 64.676 21.2267 64.4894 22.4C64.356 22.9867 64.2094 23.68 64.0494 24.48C63.916 25.2533 63.7694 26.12 63.6094 27.08C63.5027 27.3467 63.356 27.76 63.1694 28.32C62.9827 28.8533 62.8627 29.28 62.8094 29.6C62.7827 29.7067 62.7027 29.92 62.5694 30.24C62.436 30.56 62.3027 30.8667 62.1694 31.16C62.036 31.48 61.9427 31.6933 61.8894 31.8C60.8494 33.96 59.6627 35.6133 58.3294 36.76C56.996 37.9067 55.5427 38.5333 53.9694 38.64ZM57.0094 27.04C56.716 27.04 56.4094 26.88 56.0894 26.56C55.796 26.24 55.596 25.9867 55.4894 25.8C55.3827 25.5333 55.2494 25.28 55.0894 25.04C54.9294 24.8 54.8094 24.5067 54.7294 24.16C54.676 23.8133 54.7027 23.3867 54.8094 22.88C54.916 22.5333 55.0627 22.04 55.2494 21.4C55.4627 20.7333 55.6894 20.0133 55.9294 19.24C56.196 18.4667 56.4627 17.7067 56.7294 16.96C57.0227 16.1867 57.2894 15.5067 57.5294 14.92C57.7694 14.3067 57.9827 13.8667 58.1694 13.6C58.3294 13.3867 58.5027 13.2533 58.6894 13.2C58.9027 13.1467 59.116 13.1733 59.3294 13.28C59.5427 13.36 59.7294 13.5333 59.8894 13.8C60.1827 14.1733 60.3027 14.4933 60.2494 14.76C60.196 15.0267 59.956 15.5467 59.5294 16.32C59.4227 16.6133 59.2894 16.9333 59.1294 17.28C58.9694 17.6 58.8894 17.8133 58.8894 17.92C58.8627 17.9733 58.8094 18.16 58.7294 18.48C58.676 18.7733 58.6094 19.0533 58.5294 19.32C58.4494 19.5867 58.3694 19.72 58.2894 19.72C58.1827 19.8267 58.0627 20.1333 57.9294 20.64C57.796 21.12 57.676 21.6667 57.5694 22.28C57.4627 22.8667 57.396 23.3867 57.3694 23.84C57.3427 24.2667 57.3827 24.48 57.4894 24.48C58.316 24.48 59.1694 24.16 60.0494 23.52C60.956 22.88 61.8627 21.9467 62.7694 20.72L63.4494 23.56C63.076 23.7467 62.7294 23.9467 62.4094 24.16C62.0894 24.3467 61.796 24.5733 61.5294 24.84C61.4494 24.9467 61.2627 25.0933 60.9694 25.28C60.676 25.4667 60.3827 25.64 60.0894 25.8C59.8227 25.9333 59.6494 26 59.5694 26C59.5694 26 59.5294 26.0133 59.4494 26.04C59.396 26.04 59.3694 26.0933 59.3694 26.2C59.3694 26.2533 59.196 26.36 58.8494 26.52C58.5027 26.6533 58.1427 26.7733 57.7694 26.88C57.396 26.9867 57.1427 27.04 57.0094 27.04ZM71.0422 38.2C71.0155 38.2533 70.8955 38.2 70.6822 38.04C70.4955 37.88 70.3089 37.68 70.1222 37.44C69.9355 37.2267 69.8555 37.04 69.8822 36.88C69.7755 36.5067 69.7889 36.04 69.9222 35.48C70.0822 34.9467 70.4155 34.1467 70.9222 33.08C71.1889 32.6533 71.4289 32.1467 71.6422 31.56C71.8822 30.9733 72.1489 30.3867 72.4422 29.8C72.5755 29.56 72.8689 29.04 73.3222 28.24C73.7755 27.44 74.2555 26.5333 74.7622 25.52C75.2955 24.5067 75.7355 23.5467 76.0822 22.64C75.3889 23.36 74.7489 24.0933 74.1622 24.84C73.5755 25.56 73.0289 26.1467 72.5222 26.6C72.0422 27.0533 71.5889 27.2667 71.1622 27.24C70.8155 27.16 70.4422 27.04 70.0422 26.88C69.6689 26.6933 69.4155 26.3733 69.2822 25.92C69.1755 25.3333 69.1355 24.5867 69.1622 23.68C69.2155 22.7733 69.3889 21.4 69.6822 19.56C69.8955 18.6533 70.0155 17.96 70.0422 17.48C70.0955 16.9733 70.0822 16.6 70.0022 16.36C69.9222 16.12 69.7755 15.9067 69.5622 15.72C69.2155 15.4 69.0289 15.12 69.0022 14.88C69.0022 14.6133 69.1889 14.3867 69.5622 14.2C70.1222 14.0667 70.5222 14.0267 70.7622 14.08C71.0022 14.1067 71.2955 14.32 71.6422 14.72C71.8555 15.0667 72.0422 15.4 72.2022 15.72C72.3889 16.0133 72.4822 16.5333 72.4822 17.28C72.4822 17.6 72.4289 18.0267 72.3222 18.56C72.2422 19.0933 72.1622 19.6 72.0822 20.08C72.0289 20.5333 71.9889 20.8533 71.9622 21.04C71.6955 22.0267 71.5222 22.88 71.4422 23.6C71.3889 24.32 71.4289 24.68 71.5622 24.68C72.0955 24.2533 72.6022 23.7733 73.0822 23.24C73.5889 22.68 74.1089 22.0533 74.6422 21.36C75.2022 20.64 75.8155 19.8267 76.4822 18.92C76.7222 18.4667 76.9622 18.0267 77.2022 17.6C77.4422 17.1733 77.6422 16.7333 77.8022 16.28C77.9622 15.9333 78.1222 15.6533 78.2822 15.44C78.4422 15.2267 78.5755 15.1067 78.6822 15.08C78.8155 15.0267 78.9755 15.04 79.1622 15.12C79.3755 15.2 79.5622 15.2933 79.7222 15.4C79.9089 15.48 80.0022 15.5467 80.0022 15.6C80.0289 15.6267 80.0955 15.6533 80.2022 15.68C80.3089 15.7067 80.4155 15.7333 80.5222 15.76C80.6555 15.76 80.7222 15.8 80.7222 15.88C80.7222 15.9333 80.6555 16.1067 80.5222 16.4C80.4155 16.6933 80.2822 17.0267 80.1222 17.4C79.9889 17.7467 79.8689 18.0667 79.7622 18.36C79.6555 18.6267 79.6155 18.7867 79.6422 18.84C79.6955 18.8933 79.6555 19.0933 79.5222 19.44C79.3889 19.76 79.2289 20.12 79.0422 20.52C78.8822 20.92 78.7355 21.28 78.6022 21.6C78.3355 22.48 78.0289 23.36 77.6822 24.24C77.3355 25.0933 76.9222 25.9467 76.4422 26.8C76.2822 27.12 76.0422 27.6133 75.7222 28.28C75.4289 28.9467 75.1355 29.6 74.8422 30.24C74.5755 30.9067 74.3622 31.4133 74.2022 31.76C74.0955 31.9733 73.9355 32.3067 73.7222 32.76C73.5355 33.24 73.3222 33.76 73.0822 34.32C72.8689 34.88 72.6555 35.4 72.4422 35.88C72.2289 36.3867 72.0689 36.7733 71.9622 37.04C71.9089 37.5467 71.7889 37.92 71.6022 38.16C71.4955 38.16 71.3755 38.16 71.2422 38.16C71.1089 38.1867 71.0422 38.2 71.0422 38.2ZM92.6825 27.52C92.6025 27.4133 92.5225 27.28 92.4425 27.12C92.3892 26.96 92.3625 26.8267 92.3625 26.72C92.3625 26.6667 92.3492 26.6 92.3225 26.52C92.3225 26.44 92.2692 26.4 92.1625 26.4C92.0825 26.32 92.1358 26.0133 92.3225 25.48C92.5358 24.92 92.8025 24.28 93.1225 23.56C93.4692 22.84 93.8158 22.1467 94.1625 21.48C94.5358 20.7867 94.8425 20.24 95.0825 19.84C95.2158 19.76 95.2958 19.6533 95.3225 19.52C95.3758 19.36 95.3758 19.28 95.3225 19.28C95.3225 19.28 95.3892 19.16 95.5225 18.92C95.6825 18.6533 95.8025 18.48 95.8825 18.4C96.0958 18.0267 96.2558 17.6533 96.3625 17.28C96.4692 16.88 96.4958 16.5467 96.4425 16.28C96.3358 16.1467 96.2158 16.1067 96.0825 16.16C95.9492 16.2133 95.8825 16.24 95.8825 16.24C95.7758 16.2667 95.6158 16.32 95.4025 16.4C95.2158 16.4533 95.0425 16.5333 94.8825 16.64C94.2692 17.0667 93.8558 17.2667 93.6425 17.24C93.4292 17.1867 93.1892 16.84 92.9225 16.2C92.8158 15.9067 92.7758 15.6933 92.8025 15.56C92.8292 15.4267 92.9358 15.28 93.1225 15.12C93.3358 14.9333 93.5358 14.8133 93.7225 14.76C93.9092 14.68 94.0558 14.6 94.1625 14.52C94.4558 14.3333 94.6958 14.2 94.8825 14.12C95.0958 14.04 95.2558 13.9867 95.3625 13.96C96.0558 13.7467 96.6425 13.7067 97.1225 13.84C97.6025 13.9733 97.9625 14.32 98.2025 14.88C98.5758 15.3333 98.7625 15.8533 98.7625 16.44C98.7625 17 98.5758 17.6533 98.2025 18.4L97.8025 19C97.6692 19.2667 97.6425 19.4 97.7225 19.4C97.8292 19.4 97.9492 19.3067 98.0825 19.12C98.1625 19.0133 98.3225 18.8533 98.5625 18.64C98.8025 18.4267 98.9625 18.32 99.0425 18.32C99.0425 18.32 99.0692 18.3067 99.1225 18.28C99.2025 18.2533 99.2425 18.1467 99.2425 17.96C99.3225 17.88 99.4025 17.8 99.4825 17.72C99.5892 17.64 99.6425 17.6 99.6425 17.6C99.7492 17.6 99.9492 17.48 100.243 17.24C100.563 16.9733 100.936 16.6667 101.363 16.32C101.656 16.1067 101.923 16 102.163 16C102.776 15.8133 103.269 16.0133 103.643 16.6C104.043 17.1867 104.243 17.9467 104.243 18.88L103.403 21.04L104.843 19.28C105.003 19.0667 105.163 18.88 105.323 18.72C105.509 18.56 105.669 18.4267 105.803 18.32C105.856 18.1333 105.936 18.0267 106.043 18C106.149 17.9733 106.203 17.96 106.203 17.96C106.203 17.96 106.229 17.96 106.283 17.96C106.336 17.9333 106.363 17.88 106.363 17.8C106.496 17.6933 106.643 17.6 106.803 17.52C106.963 17.4133 107.069 17.3067 107.123 17.2C107.576 17.0133 107.989 16.9867 108.363 17.12C108.736 17.2267 109.056 17.56 109.323 18.12C109.509 18.44 109.616 18.72 109.643 18.96C109.669 19.2 109.683 19.56 109.683 20.04C109.629 20.44 109.576 20.76 109.523 21C109.496 21.2133 109.469 21.44 109.443 21.68C109.416 21.92 109.376 22.2533 109.323 22.68C109.216 22.8933 109.149 23.12 109.123 23.36C109.123 23.6 109.123 23.8267 109.123 24.04C109.123 24.3867 109.136 24.6267 109.163 24.76C109.189 24.8667 109.296 24.92 109.483 24.92C109.856 24.84 110.363 24.6533 111.003 24.36C111.669 24.04 112.163 23.7333 112.483 23.44C112.883 23.0667 113.229 22.88 113.523 22.88C113.843 22.8533 114.043 23 114.123 23.32C114.176 23.4267 114.083 23.6667 113.843 24.04C113.629 24.4133 113.376 24.7733 113.083 25.12C112.816 25.4667 112.616 25.64 112.483 25.64C112.403 25.64 112.309 25.72 112.203 25.88C112.096 26.0133 111.976 26.12 111.843 26.2C111.656 26.3867 111.469 26.56 111.283 26.72C111.123 26.88 110.936 26.96 110.723 26.96C110.616 26.96 110.483 27 110.323 27.08C110.189 27.1333 110.029 27.16 109.843 27.16C109.576 27.24 109.163 27.2 108.603 27.04C108.069 26.88 107.723 26.5067 107.562 25.92C107.456 25.6267 107.363 25.16 107.283 24.52C107.203 23.8533 107.216 23.1867 107.323 22.52C107.429 22.04 107.496 21.6 107.523 21.2C107.549 20.8 107.603 20.52 107.683 20.36C107.683 20.28 107.683 20.0933 107.683 19.8C107.683 19.48 107.643 19.32 107.562 19.32C107.456 19.32 107.203 19.52 106.803 19.92C106.429 20.2933 105.976 20.7733 105.443 21.36C104.936 21.9467 104.429 22.56 103.923 23.2C103.416 23.84 103.003 24.4133 102.683 24.92C102.443 25.2133 102.229 25.5733 102.043 26C101.856 26.4267 101.723 26.6667 101.643 26.72C101.456 26.9333 101.229 26.96 100.963 26.8C100.723 26.64 100.496 26.3867 100.283 26.04C100.203 25.88 100.149 25.7467 100.123 25.64C100.096 25.5067 100.096 25.3333 100.123 25.12C100.176 24.88 100.269 24.5333 100.403 24.08C100.563 23.6267 100.776 22.9867 101.043 22.16C101.336 21.2533 101.589 20.44 101.803 19.72C102.043 18.9733 102.163 18.6 102.163 18.6C102.163 18.4933 101.963 18.6 101.563 18.92C101.163 19.2133 100.696 19.5867 100.163 20.04C99.9225 20.3333 99.5225 20.7733 98.9625 21.36C98.4025 21.9467 97.7892 22.6133 97.1225 23.36C96.4558 24.1067 95.8158 24.8933 95.2025 25.72C94.4292 26.8133 93.8825 27.48 93.5625 27.72C93.2692 27.96 92.9758 27.8933 92.6825 27.52ZM116.335 27.56C116.228 27.3467 116.095 27.1867 115.935 27.08C115.775 26.9467 115.695 26.8267 115.695 26.72C115.695 26.6133 115.681 26.5067 115.655 26.4C115.655 26.2667 115.601 26.1467 115.495 26.04C115.361 25.88 115.375 25.52 115.535 24.96C115.695 24.3733 115.961 23.6667 116.335 22.84C116.708 21.9867 117.148 21.0933 117.655 20.16C117.868 19.9467 118.081 19.6667 118.295 19.32C118.508 18.9733 118.668 18.7467 118.775 18.64C118.775 18.5333 118.815 18.44 118.895 18.36C118.975 18.2533 119.068 18.2 119.175 18.2V17.96C119.175 17.8267 119.295 17.6 119.535 17.28C119.801 16.96 120.121 16.6133 120.495 16.24C120.868 15.84 121.255 15.4667 121.655 15.12C122.055 14.7467 122.388 14.48 122.655 14.32C123.215 13.9467 123.788 13.72 124.375 13.64C124.988 13.56 125.508 13.6933 125.935 14.04C126.015 14.12 126.148 14.2533 126.335 14.44C126.521 14.6267 126.735 14.84 126.975 15.08C127.241 15.2933 127.508 15.52 127.775 15.76L129.255 17.08L128.535 19.08C128.188 20.1467 128.095 21.08 128.255 21.88C128.441 22.68 128.708 23.3733 129.055 23.96C129.188 24.2533 129.455 24.5333 129.855 24.8C130.281 25.0667 130.681 25.2267 131.055 25.28C131.268 25.3067 131.468 25.3867 131.655 25.52C131.841 25.6533 131.935 25.8667 131.935 26.16C131.935 26.4267 131.881 26.64 131.775 26.8C131.668 26.96 131.481 27.0667 131.215 27.12C130.335 27.2267 129.508 27.0133 128.735 26.48C127.988 25.9467 127.295 25.0667 126.655 23.84C126.548 23.68 126.401 23.3867 126.215 22.96C126.055 22.5067 125.961 22.2133 125.935 22.08C125.828 22.2133 125.628 22.4667 125.335 22.84C125.041 23.1867 124.815 23.44 124.655 23.6C122.761 25.52 121.121 26.8133 119.735 27.48C118.375 28.12 117.241 28.1467 116.335 27.56ZM117.775 25.32C117.775 25.5067 118.055 25.5067 118.615 25.32C119.201 25.1067 119.828 24.7333 120.495 24.2C121.401 23.4267 122.308 22.5733 123.215 21.64C124.148 20.7067 124.895 19.84 125.455 19.04L126.335 17.6C126.068 16.9867 125.775 16.5733 125.455 16.36C125.161 16.12 124.908 16 124.695 16C124.348 16 123.828 16.32 123.135 16.96C122.468 17.6 121.748 18.4533 120.975 19.52C120.201 20.5867 119.468 21.76 118.775 23.04C118.508 23.5733 118.268 24.0933 118.055 24.6C117.868 25.08 117.775 25.32 117.775 25.32ZM135.596 28.08C135.409 28.0267 135.156 27.9733 134.836 27.92C134.516 27.8667 134.222 27.7733 133.956 27.64C133.716 27.48 133.596 27.28 133.596 27.04C133.596 26.8267 133.609 26.64 133.636 26.48C133.689 26.2933 133.796 26.1333 133.956 26C133.982 25.9467 133.996 25.9067 133.996 25.88C133.996 25.8533 134.009 25.8267 134.036 25.8C134.036 25.6667 134.009 25.5467 133.956 25.44C133.902 25.3333 133.902 25.2 133.956 25.04C134.062 24.7467 134.142 24.5067 134.196 24.32C134.276 24.1067 134.316 23.84 134.316 23.52C134.316 23.4667 134.316 23.4133 134.316 23.36C134.316 23.28 134.329 23.2133 134.356 23.16C134.569 22.5733 134.742 21.9733 134.876 21.36C135.009 20.7467 135.209 20.16 135.476 19.6C135.796 18.9067 136.209 18 136.716 16.88C137.222 15.7333 137.649 14.68 137.996 13.72C138.102 13.4267 138.222 13.24 138.356 13.16C138.516 13.0533 138.689 13.0133 138.876 13.04C139.196 13.0667 139.516 13.2533 139.836 13.6C140.156 13.92 140.396 14.2 140.556 14.44C140.289 14.9467 139.969 15.5467 139.596 16.24C139.249 16.9067 138.916 17.56 138.596 18.2C138.302 18.8133 138.089 19.32 137.956 19.72C138.329 19.7467 138.769 19.7467 139.276 19.72C139.809 19.6667 140.329 19.6667 140.836 19.72C141.422 19.7733 141.942 19.7733 142.396 19.72C142.849 19.6667 143.356 19.6 143.916 19.52C144.049 19.12 144.182 18.6667 144.316 18.16C144.476 17.6533 144.636 17.1333 144.796 16.6C144.982 16.0667 145.209 15.5733 145.476 15.12C145.742 14.6667 146.076 14.32 146.476 14.08C146.689 14.0267 146.849 14.0267 146.956 14.08C147.062 14.1067 147.209 14.1867 147.396 14.32C147.742 14.5867 147.996 14.8 148.156 14.96C148.342 15.0933 148.409 15.2533 148.356 15.44C148.302 15.6267 148.129 15.9333 147.836 16.36C147.649 16.6533 147.516 17 147.436 17.4C147.356 17.7733 147.209 18.0933 146.996 18.36C146.942 18.4133 146.836 18.6533 146.676 19.08C146.516 19.5067 146.329 20.0267 146.116 20.64C145.902 21.2533 145.689 21.8667 145.476 22.48C145.262 23.0933 145.076 23.6267 144.916 24.08C144.782 24.5333 144.716 24.8 144.716 24.88C144.689 25.2267 144.636 25.5867 144.556 25.96C144.476 26.3067 144.436 26.6667 144.436 27.04C144.436 27.2533 144.369 27.4133 144.236 27.52C144.129 27.6 143.982 27.64 143.796 27.64C143.529 27.64 143.236 27.5733 142.916 27.44C142.596 27.3067 142.356 27.1867 142.196 27.08C142.089 27 141.996 26.8667 141.916 26.68C141.862 26.4933 141.822 26.3333 141.796 26.2C141.956 25.5333 142.142 24.9067 142.356 24.32C142.596 23.7067 142.809 23.08 142.996 22.44C143.049 22.3333 143.076 22.2267 143.076 22.12C143.076 22.0133 143.049 21.9067 142.996 21.8C142.116 21.6667 141.222 21.64 140.316 21.72C139.409 21.8 138.516 21.8667 137.636 21.92C137.502 22.0533 137.342 22.3733 137.156 22.88C136.996 23.36 136.849 23.8667 136.716 24.4C136.582 24.9067 136.476 25.2933 136.396 25.56C136.422 25.7467 136.396 26.0133 136.316 26.36C136.236 26.7067 136.129 27.0533 135.996 27.4C135.862 27.72 135.729 27.9467 135.596 28.08ZM153.958 28.76C153.878 28.7867 153.691 28.7467 153.398 28.64C153.105 28.5067 152.785 28.3467 152.438 28.16C152.118 27.9467 151.865 27.7467 151.678 27.56C151.465 27.2933 151.265 27.0267 151.078 26.76C150.918 26.4667 150.838 26.1333 150.838 25.76C150.651 25.36 150.545 24.9467 150.518 24.52C150.518 24.0667 150.505 23.6267 150.478 23.2C150.451 22.5333 150.598 21.8533 150.918 21.16C151.238 20.44 151.491 19.9067 151.678 19.56C151.811 19.1867 152.078 18.7067 152.478 18.12C152.905 17.5067 153.425 16.9067 154.038 16.32C154.651 15.7333 155.291 15.28 155.958 14.96C156.385 14.7467 156.811 14.5733 157.238 14.44C157.691 14.28 158.211 14.3067 158.798 14.52C159.091 14.6 159.305 14.7067 159.438 14.84C159.571 14.9733 159.718 15.1067 159.878 15.24C160.091 15.08 160.265 14.6933 160.398 14.08C160.558 13.44 160.651 12.72 160.678 11.92C160.731 11.0933 160.691 10.3067 160.558 9.56C160.451 8.78667 160.225 8.17333 159.878 7.72C159.238 6.84 158.531 6.26667 157.758 6C156.985 5.73333 156.105 5.81333 155.118 6.24C154.798 6.10667 154.505 5.85333 154.238 5.48C153.998 5.10667 153.931 4.73333 154.038 4.36C154.251 4.17333 154.518 3.98667 154.838 3.8C155.158 3.61333 155.478 3.49333 155.798 3.44C156.171 3.36 156.545 3.30667 156.918 3.28C157.318 3.25333 157.731 3.36 158.158 3.6C159.545 4.05333 160.585 4.69333 161.278 5.52C161.998 6.32 162.491 7.29333 162.758 8.44C163.025 9.58667 163.185 10.9067 163.238 12.4C163.291 12.8267 163.305 13.2133 163.278 13.56C163.278 13.88 163.238 14.4267 163.158 15.2C162.891 15.5467 162.785 15.96 162.838 16.44C162.918 16.8933 162.865 17.32 162.678 17.72C162.651 18.1733 162.545 18.5467 162.358 18.84C162.171 19.1333 162.078 19.4133 162.078 19.68C161.598 21.0133 160.945 22.32 160.118 23.6C159.318 24.88 158.398 25.9867 157.358 26.92C156.318 27.8533 155.185 28.4667 153.958 28.76ZM153.718 26.16C153.985 26.2667 154.385 26.16 154.918 25.84C155.451 25.4933 155.998 25.04 156.558 24.48C157.118 23.8933 157.585 23.3333 157.958 22.8C158.091 22.6133 158.265 22.3067 158.478 21.88C158.718 21.4533 158.931 21.04 159.118 20.64C159.331 20.24 159.451 19.9867 159.478 19.88C159.718 19.2133 159.851 18.5867 159.878 18C159.931 17.3867 159.865 16.9867 159.678 16.8C159.385 16.4533 158.905 16.3733 158.238 16.56C157.598 16.7467 156.985 17.0533 156.398 17.48C155.971 17.8 155.585 18.2267 155.238 18.76C154.918 19.2667 154.585 19.7333 154.238 20.16C154.265 20.3467 154.211 20.5067 154.078 20.64C153.971 20.7733 153.851 20.9067 153.718 21.04C153.371 21.7067 153.145 22.3333 153.038 22.92C152.931 23.48 152.878 23.8267 152.878 23.96C152.878 24.3867 152.945 24.8267 153.078 25.28C153.211 25.7333 153.425 26.0267 153.718 26.16ZM173.067 39.36C172.854 39.2267 172.614 39.16 172.347 39.16C172.081 39.16 171.841 39.1067 171.627 39C171.254 38.8133 170.827 38.5467 170.347 38.2C169.894 37.8533 169.601 37.48 169.467 37.08C169.441 37.0267 169.427 36.96 169.427 36.88C169.427 36.8267 169.414 36.7867 169.387 36.76C169.361 36.68 169.307 36.6 169.227 36.52C169.147 36.4667 169.094 36.4 169.067 36.32C169.014 36.16 168.987 35.9867 168.987 35.8C168.961 35.64 168.947 35.48 168.947 35.32C168.921 35.16 168.867 35 168.787 34.84C168.894 34.6533 168.987 34.4667 169.067 34.28C169.121 34.0933 169.201 33.9067 169.307 33.72C169.441 33.6933 169.574 33.6667 169.707 33.64C169.814 33.64 169.921 33.6267 170.027 33.6C170.347 33.5733 170.534 33.7867 170.587 34.24C170.667 34.6933 170.774 35.1867 170.907 35.72C171.014 36.12 171.187 36.48 171.427 36.8C171.694 37.12 172.121 37.2933 172.707 37.32C173.374 37.3467 173.947 37.1333 174.427 36.68C174.934 36.2533 175.361 35.7067 175.707 35.04C176.054 34.3733 176.321 33.72 176.507 33.08C176.561 32.9733 176.601 32.8667 176.627 32.76C176.654 32.6533 176.681 32.5467 176.707 32.44C176.761 32.36 176.801 32.2667 176.827 32.16C176.827 31.92 176.881 31.64 176.987 31.32C177.121 31.0267 177.201 30.7467 177.227 30.48C177.281 30 177.361 29.4933 177.467 28.96C177.574 28.4267 177.534 27.92 177.347 27.44C177.347 27.44 177.334 27.3333 177.307 27.12C177.281 26.9067 177.254 26.68 177.227 26.44C177.201 26.2 177.187 26.0667 177.187 26.04C177.001 25.8 176.841 25.5467 176.707 25.28C176.601 24.9867 176.441 24.72 176.227 24.48C176.227 24.2933 176.214 24.12 176.187 23.96C176.187 23.8 176.187 23.6267 176.187 23.44C176.267 23.3867 176.334 23.32 176.387 23.24C176.441 23.16 176.521 23.1067 176.627 23.08C177.427 22.7867 178.187 22.4 178.907 21.92C179.627 21.4133 180.254 20.8267 180.787 20.16C181.321 19.4933 181.707 18.7467 181.947 17.92C182.027 17.6267 182.081 17.3333 182.107 17.04C182.134 16.7467 182.107 16.4533 182.027 16.16C181.814 16 181.587 15.96 181.347 16.04C180.334 16.3333 179.574 16.72 179.067 17.2C178.587 17.68 178.174 18.2133 177.827 18.8C177.481 19.36 177.014 19.9333 176.427 20.52C176.241 20.3333 176.054 20.2533 175.867 20.28C175.707 20.28 175.534 20.2133 175.347 20.08C175.267 20 175.174 19.8933 175.067 19.76C174.987 19.6 174.881 19.3867 174.747 19.12C174.987 18.8533 175.147 18.56 175.227 18.24C175.334 17.8933 175.481 17.6 175.667 17.36C176.094 16.8533 176.481 16.3867 176.827 15.96C177.174 15.5333 177.641 15.1333 178.227 14.76C178.841 14.36 179.481 14.0667 180.147 13.88C180.841 13.6933 181.521 13.6667 182.187 13.8C182.854 13.9333 183.427 14.32 183.907 14.96C184.387 15.5467 184.627 16.2267 184.627 17C184.654 17.7467 184.521 18.5067 184.227 19.28C183.934 20.0533 183.534 20.7733 183.027 21.44C182.494 22.1333 181.894 22.6933 181.227 23.12C180.587 23.5467 179.921 24.0267 179.227 24.56C179.414 25.28 179.601 26.0133 179.787 26.76C179.974 27.48 180.041 28.2267 179.987 29C179.907 29.9333 179.787 30.84 179.627 31.72C179.494 32.6 179.281 33.4267 178.987 34.2C178.694 35 178.307 35.7467 177.827 36.44C177.347 37.1333 176.721 37.7733 175.947 38.36C175.521 38.7067 175.041 38.9467 174.507 39.08C174.001 39.2133 173.521 39.3067 173.067 39.36ZM190.411 27.48C189.851 27.5867 189.491 27.6267 189.331 27.6C189.198 27.5467 188.984 27.3867 188.691 27.12C188.264 26.9067 187.904 26.64 187.611 26.32C187.344 26 187.144 25.6667 187.011 25.32C186.904 24.9467 186.864 24.64 186.891 24.4C186.971 23.4667 187.198 22.4667 187.571 21.4C187.944 20.3333 188.398 19.3067 188.931 18.32C189.464 17.3333 190.038 16.4933 190.651 15.8C191.291 15.08 191.904 14.6133 192.491 14.4C193.024 14.1867 193.531 14.1067 194.011 14.16C194.491 14.2133 194.838 14.4667 195.051 14.92C195.451 15.6933 195.358 16.1867 194.771 16.4C194.691 16.4 194.598 16.44 194.491 16.52C194.384 16.5733 194.331 16.6533 194.331 16.76C194.438 16.8133 194.731 16.8267 195.211 16.8C195.691 16.7467 196.171 16.6667 196.651 16.56C197.158 16.4267 197.491 16.2933 197.651 16.16C197.811 16.08 197.931 16.04 198.011 16.04C198.091 16.04 198.291 16.0667 198.611 16.12C199.064 16.2533 199.291 16.4133 199.291 16.6C199.291 16.7067 199.331 16.8133 199.411 16.92C199.491 17 199.584 17.04 199.691 17.04C199.878 17.0667 199.851 17.1867 199.611 17.4C199.398 17.6133 199.024 17.9067 198.491 18.28C197.984 18.6 197.664 18.8133 197.531 18.92C197.424 19 197.411 19.1867 197.491 19.48C197.704 19.9867 197.718 20.5733 197.531 21.24C197.344 21.9067 197.011 22.5867 196.531 23.28C196.051 23.9733 195.464 24.6267 194.771 25.24C194.104 25.8267 193.384 26.3333 192.611 26.76C191.864 27.16 191.131 27.4 190.411 27.48ZM189.731 25.72C189.838 25.72 190.024 25.6667 190.291 25.56C190.558 25.4267 190.771 25.32 190.931 25.24C191.038 25.1333 191.171 25.0133 191.331 24.88C191.518 24.72 191.664 24.6267 191.771 24.6C191.878 24.6 192.011 24.56 192.171 24.48C192.331 24.3733 192.558 24.1733 192.851 23.88C193.144 23.56 193.531 23.0933 194.011 22.48C194.544 21.8933 194.958 21.36 195.251 20.88C195.544 20.3733 195.624 19.9067 195.491 19.48C195.464 19.3733 195.384 19.3067 195.251 19.28C195.144 19.2533 194.998 19.1867 194.811 19.08C194.544 19.08 194.291 19.0133 194.051 18.88C193.838 18.72 193.584 18.52 193.291 18.28L192.651 17.48L191.971 18.16C191.544 18.5867 191.091 19.2267 190.611 20.08C190.158 20.9067 189.771 21.76 189.451 22.64C189.131 23.4933 188.944 24.1733 188.891 24.68C188.864 25.08 188.931 25.3467 189.091 25.48C189.251 25.6133 189.464 25.6933 189.731 25.72ZM198.553 37.92C198.366 37.84 198.166 37.7067 197.953 37.52C197.739 37.3333 197.566 37.12 197.433 36.88C197.299 36.6667 197.233 36.48 197.233 36.32C197.233 36.16 197.299 35.7333 197.433 35.04C197.566 34.3733 197.739 33.5467 197.953 32.56C198.193 31.6 198.446 30.6133 198.713 29.6C199.006 28.6133 199.299 27.7333 199.593 26.96C199.646 26.8267 199.819 26.3867 200.113 25.64C200.433 24.8667 200.739 23.9333 201.033 22.84C201.246 22.1467 201.526 21.36 201.873 20.48C202.219 19.6 202.579 18.72 202.953 17.84C203.326 16.9333 203.633 16.1333 203.873 15.44C204.113 14.7467 204.313 14.1867 204.473 13.76C204.659 13.3067 204.766 13.0267 204.793 12.92C204.846 12.76 204.926 12.6267 205.033 12.52C205.166 12.3867 205.299 12.28 205.433 12.2C205.566 12.0933 205.673 12.0267 205.753 12C206.233 11.8667 206.646 12.0667 206.993 12.6C207.126 12.84 207.153 13.12 207.073 13.44C206.993 13.76 206.846 14.16 206.633 14.64L206.353 15.44L207.793 15.12C208.033 15.12 208.326 15.1333 208.673 15.16C209.046 15.16 209.406 15.16 209.753 15.16C210.099 15.16 210.353 15.1867 210.513 15.24C211.153 15.2667 211.593 15.3867 211.833 15.6C212.099 15.8133 212.326 16.0933 212.513 16.44C212.646 16.5733 212.806 16.76 212.993 17C213.179 17.2133 213.286 17.4267 213.313 17.64C213.419 18.0933 213.419 18.5867 213.313 19.12C213.233 19.6267 213.073 20.1333 212.833 20.64C212.619 21.1467 212.326 21.6133 211.953 22.04C211.606 22.44 211.233 22.7733 210.833 23.04C210.566 23.1467 210.326 23.2667 210.113 23.4C209.899 23.5067 209.793 23.56 209.793 23.56C209.766 23.6933 209.473 23.9067 208.913 24.2C208.353 24.4667 207.713 24.72 206.993 24.96C206.273 25.2 205.646 25.36 205.113 25.44C204.926 25.4667 204.659 25.4933 204.313 25.52C203.966 25.5467 203.699 25.5067 203.513 25.4C203.219 25.3467 203.019 25.32 202.913 25.32C202.806 25.32 202.753 25.3733 202.753 25.48C202.726 25.5333 202.539 26.0933 202.192 27.16C201.846 28.2267 201.486 29.4667 201.113 30.88C200.606 32.4267 200.193 33.6533 199.873 34.56C199.553 35.4933 199.299 36.1867 199.113 36.64C198.953 37.0933 198.833 37.4 198.753 37.56C198.673 37.7467 198.606 37.8667 198.553 37.92ZM203.553 23.16C203.633 23.32 203.886 23.3733 204.313 23.32C204.766 23.24 205.299 23.08 205.913 22.84C206.553 22.5733 207.179 22.28 207.793 21.96C208.406 21.6133 208.913 21.2667 209.313 20.92C209.899 20.2533 210.379 19.64 210.753 19.08C211.126 18.4933 211.179 18.1067 210.913 17.92C210.619 17.4933 210.073 17.2933 209.273 17.32C208.473 17.3467 207.486 17.68 206.312 18.32C205.859 18.48 205.513 18.6933 205.273 18.96C205.059 19.2 204.873 19.5067 204.713 19.88C204.553 20.2533 204.353 20.7067 204.113 21.24C203.873 21.8267 203.713 22.2667 203.633 22.56C203.553 22.8533 203.526 23.0533 203.553 23.16ZM225.59 29.04C225.323 29.1733 225.016 29.0933 224.67 28.8C224.323 28.5067 224.083 28.2667 223.95 28.08C223.71 27.76 223.536 27.32 223.43 26.76C223.323 26.2 223.27 25.7333 223.27 25.36C223.27 24.6667 223.216 24.2667 223.11 24.16C223.03 24.0533 222.856 24.1467 222.59 24.44C222.35 24.7067 221.99 25.08 221.51 25.56C221.296 25.7733 220.95 26.0533 220.47 26.4C219.99 26.7467 219.496 27.04 218.99 27.28C218.483 27.52 218.056 27.64 217.71 27.64C217.47 27.6133 217.23 27.48 216.99 27.24C216.75 27 216.536 26.7333 216.35 26.44C216.19 26.12 216.07 25.8533 215.99 25.64C215.856 25.24 215.843 24.5867 215.95 23.68C216.083 22.7467 216.296 21.72 216.59 20.6C216.91 19.4533 217.27 18.36 217.67 17.32C218.096 16.2533 218.523 15.3867 218.95 14.72C219.403 14.0267 219.843 13.68 220.27 13.68C220.563 13.68 220.79 13.8533 220.95 14.2C221.136 14.52 221.283 14.7867 221.39 15C221.523 15.2667 221.563 15.44 221.51 15.52C221.483 15.6 221.376 15.7467 221.19 15.96C220.976 16.2267 220.723 16.68 220.43 17.32C220.136 17.9333 219.83 18.6133 219.51 19.36C219.216 20.08 218.95 20.7733 218.71 21.44C218.47 22.1067 218.296 22.6133 218.19 22.96C218.136 23.1733 218.056 23.4667 217.95 23.84C217.87 24.2133 217.843 24.5067 217.87 24.72C217.87 24.7467 217.883 24.8133 217.91 24.92C217.936 25 218.043 25.04 218.23 25.04C218.816 25.04 219.403 24.8 219.99 24.32C220.603 23.8133 221.203 23.16 221.79 22.36C222.403 21.56 222.976 20.72 223.51 19.84C224.043 18.96 224.536 18.12 224.99 17.32C225.47 16.52 225.883 15.8667 226.23 15.36C226.576 14.8267 226.856 14.5467 227.07 14.52C227.256 14.4933 227.47 14.52 227.71 14.6C227.976 14.6533 228.203 14.7467 228.39 14.88C228.576 15.0133 228.656 15.2 228.63 15.44C228.31 16.4267 227.923 17.4133 227.47 18.4C227.016 19.36 226.59 20.3333 226.19 21.32C225.816 22.3067 225.55 23.32 225.39 24.36C225.283 25 225.323 25.6267 225.51 26.24C225.723 26.8533 226.056 27.4 226.51 27.88C226.776 28.1467 226.75 28.4 226.43 28.64C226.11 28.88 225.83 29.0133 225.59 29.04ZM228.808 36.96C228.168 37.1467 227.462 37.1733 226.688 37.04C225.942 36.9333 225.288 36.7067 224.728 36.36C224.142 36.0133 223.808 35.6267 223.728 35.2C223.702 35.04 223.755 34.8667 223.888 34.68C223.995 34.4933 224.142 34.36 224.328 34.28C224.488 34.2267 224.635 34.28 224.768 34.44C224.982 34.5733 225.368 34.7333 225.928 34.92C226.488 35.1333 227.115 35.1733 227.808 35.04C228.422 34.9067 229.022 34.5467 229.608 33.96C230.222 33.3733 230.715 32.8267 231.088 32.32C231.302 32 231.662 31.4267 232.168 30.6C232.675 29.7733 233.195 28.8667 233.728 27.88C234.288 26.8667 234.755 25.9333 235.128 25.08C235.208 24.8667 235.302 24.6133 235.408 24.32C235.515 24.0267 235.648 23.7867 235.808 23.6C235.968 23.28 236.102 22.9867 236.208 22.72C236.342 22.4267 236.422 22.2267 236.448 22.12C236.475 21.9867 236.595 21.72 236.808 21.32C237.022 20.92 237.222 20.52 237.408 20.12C237.542 19.72 237.742 19.1333 238.008 18.36C238.275 17.5867 238.542 16.96 238.808 16.48C239.128 15.8667 239.382 15.3733 239.568 15C239.782 14.6 240.008 14.36 240.248 14.28C240.488 14.0933 240.648 14 240.728 14C240.835 14 241.035 14.08 241.328 14.24C241.648 14.56 241.848 14.88 241.928 15.2C242.008 15.4933 241.968 15.8667 241.808 16.32C241.675 16.7467 241.408 17.3333 241.008 18.08C240.795 18.72 240.555 19.3067 240.288 19.84C240.048 20.3467 239.862 20.68 239.728 20.84C239.595 21.16 239.435 21.52 239.248 21.92C239.088 22.2933 238.942 22.64 238.808 22.96C238.328 24.0267 237.915 24.8933 237.568 25.56C237.222 26.2267 236.915 26.84 236.648 27.4C236.382 27.96 236.102 28.6133 235.808 29.36C235.195 30.3467 234.595 31.28 234.008 32.16C233.448 33.0667 232.848 33.9067 232.208 34.68C231.942 34.92 231.608 35.2 231.208 35.52C230.808 35.84 230.395 36.1333 229.968 36.4C229.568 36.6667 229.182 36.8533 228.808 36.96ZM234.208 27.36C233.808 27.3067 233.408 27.0667 233.008 26.64C232.635 26.2133 232.342 25.76 232.128 25.28C231.915 24.8 231.835 24.4533 231.888 24.24C231.888 24.1067 231.888 24 231.888 23.92C231.888 23.84 231.888 23.8 231.888 23.8C231.728 23.8 231.582 23.6 231.448 23.2C231.342 22.8 231.262 22.28 231.208 21.64C231.155 21 231.115 20.32 231.088 19.6C231.088 18.88 231.115 18.2 231.168 17.56C231.275 17.1067 231.328 16.6133 231.328 16.08C231.328 15.52 231.342 15.08 231.368 14.76C231.342 14.3333 231.382 14.0533 231.488 13.92C231.595 13.76 231.702 13.64 231.808 13.56C232.555 13.24 233.048 13.44 233.288 14.16C233.555 14.8533 233.622 16.16 233.488 18.08C233.435 19.1467 233.435 20.2133 233.488 21.28C233.542 22.3467 233.688 23.28 233.928 24.08C234.195 24.88 234.555 25.4267 235.008 25.72C235.195 25.8267 235.288 25.9733 235.288 26.16C235.288 26.3467 235.235 26.5467 235.128 26.76C235.022 26.9467 234.875 27.1067 234.688 27.24C234.528 27.3467 234.368 27.3867 234.208 27.36ZM241.171 28.84C241.064 28.7867 240.917 28.68 240.731 28.52C240.571 28.36 240.424 28.2 240.291 28.04C240.211 27.96 240.144 27.8933 240.091 27.84C240.037 27.76 239.984 27.7067 239.931 27.68C239.931 27.4933 239.971 27.36 240.051 27.28C240.157 27.2 240.264 27.1067 240.371 27C240.477 26.84 240.651 26.76 240.891 26.76C241.131 26.76 241.317 26.6933 241.451 26.56C241.931 26.2133 242.424 25.8533 242.931 25.48C243.437 25.1067 243.864 24.6667 244.211 24.16C244.584 23.6267 244.957 23.0533 245.331 22.44C245.704 21.8267 246.064 21.2267 246.411 20.64C246.517 20.4533 246.691 20.12 246.931 19.64C247.171 19.16 247.397 18.6933 247.611 18.24C247.851 17.76 247.984 17.4267 248.011 17.24C247.771 17.16 247.544 17.0933 247.331 17.04C247.144 16.96 246.957 16.8933 246.771 16.84C246.531 16.4667 246.397 16.2533 246.371 16.2C246.344 16.12 246.331 15.8667 246.331 15.44C246.331 15.12 246.504 14.92 246.851 14.84C247.624 14.6533 248.304 14.5333 248.891 14.48C249.504 14.4267 250.104 14.32 250.691 14.16C251.064 14.0533 251.517 14.0133 252.051 14.04C252.584 14.0667 253.117 14.1867 253.651 14.4C253.891 14.5067 254.091 14.64 254.251 14.8C254.411 14.96 254.557 15.1467 254.691 15.36C255.037 15.84 255.211 16.2533 255.211 16.6C255.237 16.9467 255.224 17.28 255.171 17.6C255.117 17.92 255.157 18.28 255.291 18.68C255.104 19.4 254.917 20.04 254.731 20.6C254.544 21.1333 254.371 21.64 254.211 22.12C254.051 22.5733 253.904 23 253.771 23.4C253.637 23.8 253.531 24.2 253.451 24.6C253.344 25.0267 253.211 25.4533 253.051 25.88C252.891 26.3067 252.771 26.7467 252.691 27.2C252.637 27.5467 252.477 27.8 252.211 27.96C251.971 28.12 251.704 28.2667 251.411 28.4C251.304 28.4267 251.117 28.4 250.851 28.32C250.611 28.2133 250.384 28.0667 250.171 27.88C250.091 27.5867 250.064 27.32 250.091 27.08C250.117 26.84 250.171 26.6 250.251 26.36C250.331 26.1467 250.477 25.6667 250.691 24.92C250.904 24.1733 251.144 23.3333 251.411 22.4C251.677 21.4667 251.931 20.6 252.171 19.8C252.411 19 252.571 18.44 252.651 18.12C252.784 17.6933 252.824 17.3733 252.771 17.16C252.744 16.9467 252.704 16.7467 252.651 16.56C252.091 16.3467 251.704 16.28 251.491 16.36C251.304 16.4133 251.064 16.4667 250.771 16.52C250.637 16.6267 250.531 16.7467 250.451 16.88C250.371 17.0133 250.317 17.1467 250.291 17.28C249.997 18.0533 249.744 18.6667 249.531 19.12C249.344 19.5733 249.157 19.9867 248.971 20.36C248.784 20.7067 248.571 21.0933 248.331 21.52C248.117 21.9467 247.837 22.5333 247.491 23.28C247.277 23.76 247.011 24.2 246.691 24.6C246.397 25 246.131 25.4267 245.891 25.88L245.451 26.44C245.477 26.44 245.371 26.5467 245.131 26.76C244.891 26.9733 244.651 27.1867 244.411 27.4C244.197 27.6133 244.091 27.72 244.091 27.72L242.851 28.68C242.717 28.7867 242.491 28.84 242.171 28.84C241.851 28.84 241.517 28.84 241.171 28.84ZM260.431 27.84C260.218 27.8933 259.938 27.92 259.591 27.92C259.245 27.8933 258.938 27.8533 258.671 27.8C258.431 27.72 258.311 27.64 258.311 27.56C258.311 27.4267 258.245 27.36 258.111 27.36C258.111 27.36 258.045 27.3067 257.911 27.2C257.805 27.0933 257.631 26.9867 257.391 26.88C257.151 26.5067 257.031 26.1067 257.031 25.68C257.031 25.2267 257.151 24.52 257.391 23.56C257.471 22.8933 257.725 22.12 258.151 21.24C258.605 20.3333 259.151 19.4133 259.791 18.48C260.431 17.5467 261.098 16.7067 261.791 15.96C262.511 15.2133 263.165 14.6667 263.751 14.32C264.125 13.9467 264.578 13.7467 265.111 13.72C265.645 13.6933 266.151 13.8133 266.631 14.08C266.898 14.2133 267.165 14.4267 267.431 14.72C267.698 15.0133 267.951 15.3333 268.191 15.68C268.431 16.0267 268.631 16.3733 268.791 16.72C268.871 17.0133 268.911 17.28 268.911 17.52C268.938 17.7333 268.938 18 268.911 18.32C268.911 18.64 268.871 19.12 268.791 19.76C268.658 20.24 268.538 20.8267 268.431 21.52C268.351 22.2133 268.311 22.8133 268.311 23.32C268.258 23.8267 268.311 24.1867 268.471 24.4C268.658 24.6133 268.925 24.6267 269.271 24.44C269.591 24.28 269.898 24.2133 270.191 24.24C270.485 24.24 270.711 24.32 270.871 24.48C271.058 24.64 271.151 24.88 271.151 25.2C271.151 25.52 270.991 25.8533 270.671 26.2C270.378 26.52 270.005 26.8 269.551 27.04C269.125 27.2533 268.711 27.36 268.311 27.36C268.018 27.36 267.738 27.1867 267.471 26.84C267.205 26.4667 266.965 26.0267 266.751 25.52C266.565 24.9867 266.391 24.48 266.231 24L265.991 23.08L264.271 24.72C263.925 25.0933 263.578 25.44 263.231 25.76C262.911 26.0533 262.711 26.2667 262.631 26.4C262.498 26.64 262.245 26.88 261.871 27.12C261.525 27.36 261.045 27.6 260.431 27.84ZM260.551 25.48C261.005 25.2133 261.525 24.8267 262.111 24.32C262.698 23.7867 263.271 23.2133 263.831 22.6C264.391 21.96 264.858 21.3733 265.231 20.84C265.685 20.2267 266.031 19.6533 266.271 19.12C266.511 18.5867 266.685 18.08 266.791 17.6C266.685 17.3067 266.511 17 266.271 16.68C266.031 16.3333 265.818 16.1467 265.631 16.12C265.045 16.12 264.418 16.4933 263.751 17.24C263.111 17.96 262.485 18.7467 261.871 19.6C261.765 19.7333 261.618 19.9467 261.431 20.24C261.245 20.5333 261.058 20.8133 260.871 21.08C260.711 21.32 260.605 21.48 260.551 21.56C260.471 21.6667 260.311 21.9733 260.071 22.48C259.858 22.96 259.645 23.4533 259.431 23.96C259.218 24.44 259.111 24.76 259.111 24.92C259.111 25.08 259.125 25.2533 259.151 25.44C259.205 25.6267 259.338 25.7467 259.551 25.8C259.765 25.8533 260.098 25.7467 260.551 25.48ZM282.846 28.56C282.686 28.5067 282.526 28.4667 282.366 28.44C282.206 28.3867 282.046 28.3333 281.886 28.28C281.753 28.2267 281.593 28.1867 281.406 28.16C281.139 27.7867 281.033 27.3333 281.086 26.8C281.139 26.24 281.259 25.6667 281.446 25.08C281.659 24.4933 281.859 23.92 282.046 23.36C282.259 22.8 282.379 22.32 282.406 21.92C282.379 21.8133 282.339 21.7867 282.286 21.84C282.233 21.8667 282.206 21.9067 282.206 21.96C282.019 22.1733 281.753 22.32 281.406 22.4C281.059 22.48 280.739 22.5467 280.446 22.6C279.939 22.68 279.433 22.7733 278.926 22.88C278.419 22.9867 277.926 23.1067 277.446 23.24C277.366 23.1867 277.273 23.12 277.166 23.04C277.086 22.96 277.006 22.8933 276.926 22.84C276.739 22.84 276.579 23.0133 276.446 23.36C276.313 23.7067 276.193 24.1333 276.086 24.64C275.979 25.12 275.873 25.5867 275.766 26.04C275.686 26.4667 275.606 26.7733 275.526 26.96C275.099 27.0133 274.793 27.0267 274.606 27C274.446 26.9733 274.139 26.8933 273.686 26.76C273.473 26.4667 273.353 26.1867 273.326 25.92C273.326 25.6533 273.366 25.36 273.446 25.04C273.579 24.4267 273.686 23.9333 273.766 23.56C273.873 23.1867 274.046 22.7067 274.286 22.12C274.419 21.8267 274.539 21.5467 274.646 21.28C274.779 20.9867 274.846 20.6667 274.846 20.32C275.059 20.0533 275.206 19.76 275.286 19.44C275.366 19.12 275.459 18.8 275.566 18.48C275.993 17.3867 276.326 16.5467 276.566 15.96C276.833 15.3467 277.019 14.8667 277.126 14.52C277.233 14.1733 277.299 13.8533 277.326 13.56C277.353 13.1867 277.579 13 278.006 13C278.273 13 278.553 13.1067 278.846 13.32C279.139 13.5067 279.366 13.7467 279.526 14.04C279.686 14.3333 279.699 14.64 279.566 14.96C279.486 15.1733 279.353 15.52 279.166 16C279.006 16.4533 278.819 16.96 278.606 17.52C278.419 18.0533 278.233 18.56 278.046 19.04C277.886 19.4933 277.753 19.8267 277.646 20.04C277.619 20.1467 277.566 20.24 277.486 20.32C277.406 20.3733 277.366 20.4667 277.366 20.6C277.553 20.7333 277.859 20.7867 278.286 20.76C278.739 20.7067 279.059 20.6267 279.246 20.52C279.646 20.52 280.033 20.52 280.406 20.52C280.806 20.52 281.206 20.52 281.606 20.52C282.006 20.76 282.313 21.12 282.526 21.6C282.713 21.0933 282.966 20.4267 283.286 19.6C283.606 18.7467 283.913 17.9067 284.206 17.08C284.499 16.2533 284.673 15.6267 284.726 15.2C284.779 14.96 284.886 14.7467 285.046 14.56C285.206 14.3733 285.379 14.2267 285.566 14.12C285.939 14.3067 286.299 14.4667 286.646 14.6C287.019 14.7067 287.259 15.0133 287.366 15.52C287.339 15.76 287.286 16 287.206 16.24C287.126 16.4533 287.046 16.6667 286.966 16.88C286.699 17.6533 286.366 18.5067 285.966 19.44C285.566 20.3467 285.193 21.28 284.846 22.24C284.526 23.1733 284.299 24.0533 284.166 24.88C284.166 24.96 284.099 25.2267 283.966 25.68C283.859 26.1333 283.739 26.5733 283.606 27C283.499 27.4267 283.433 27.6533 283.406 27.68C283.406 27.8667 283.353 28.04 283.246 28.2C283.139 28.3333 283.006 28.4533 282.846 28.56ZM306.388 17.28C305.535 17.5467 304.775 17.9867 304.108 18.6C303.441 19.1867 302.868 19.8267 302.388 20.52C301.881 21.24 301.468 21.9733 301.148 22.72C300.855 23.4667 300.641 24.1067 300.508 24.64C300.375 25.2533 300.401 25.7067 300.588 26C300.801 26.2667 301.068 26.4267 301.388 26.48C301.761 26.5333 302.148 26.48 302.548 26.32C302.948 26.1333 303.201 25.9067 303.308 25.64C303.921 25.0267 304.495 24.3467 305.028 23.6C305.588 22.8533 306.001 21.9733 306.268 20.96C306.561 19.9467 306.601 18.72 306.388 17.28ZM314.348 8.32C314.161 8.42667 314.028 8.57333 313.948 8.76C313.868 8.94667 313.615 8.97333 313.188 8.84C312.841 8.70667 312.615 8.56 312.508 8.4C312.428 8.21333 312.335 8.04 312.228 7.88C312.148 7.69333 311.921 7.57333 311.548 7.52C310.935 7.38667 310.308 7.45333 309.668 7.72C309.055 7.96 308.441 8.10667 307.828 8.16C307.348 8.21333 306.868 8.34666 306.388 8.56C305.935 8.74667 305.481 8.97333 305.028 9.24C305.001 9.4 305.015 9.50667 305.068 9.56C305.148 9.61333 305.201 9.66667 305.228 9.72C305.281 9.77333 305.348 9.84 305.428 9.92C305.721 10.1867 306.081 10.6 306.508 11.16C306.961 11.72 307.401 12.4 307.828 13.2C308.255 14 308.601 14.9067 308.868 15.92C309.135 16.9067 309.215 17.9733 309.108 19.12C309.001 20.3467 308.601 21.6533 307.908 23.04C307.241 24.4 306.161 25.8133 304.668 27.28C303.975 27.9467 303.455 28.3867 303.108 28.6C302.761 28.7867 302.495 28.88 302.308 28.88C302.121 28.8533 301.935 28.8667 301.748 28.92C301.535 28.9733 301.335 28.9733 301.148 28.92C300.961 28.84 300.761 28.8267 300.548 28.88C299.775 28.5867 299.215 28.2533 298.868 27.88C298.548 27.5067 298.188 26.9867 297.788 26.32C297.681 25.5467 297.708 24.8933 297.868 24.36C298.028 23.8 298.241 23.28 298.508 22.8C298.775 22.2933 299.015 21.7467 299.228 21.16C299.415 21.0267 299.521 20.8667 299.548 20.68C299.575 20.4933 299.695 20.2667 299.908 20C300.015 19.8933 300.148 19.7333 300.308 19.52C300.468 19.28 300.601 19.0667 300.708 18.88C301.161 18.1067 301.735 17.4667 302.428 16.96C303.148 16.4267 303.881 15.9867 304.628 15.64C304.841 15.6133 305.041 15.6 305.228 15.6C305.415 15.6 305.601 15.5867 305.788 15.56C305.708 14.84 305.441 14.1067 304.988 13.36C304.535 12.5867 304.068 11.8933 303.588 11.28C303.108 10.6667 302.735 10.2267 302.468 9.96C302.441 9.93333 302.348 9.74667 302.188 9.4C302.055 9.05333 301.948 8.78667 301.868 8.6C302.028 8.12 302.401 7.69333 302.988 7.32C303.601 6.92 304.255 6.6 304.948 6.36C305.641 6.09333 306.215 5.90667 306.668 5.8C306.801 5.77333 307.121 5.72 307.628 5.64C308.161 5.53333 308.695 5.42667 309.228 5.32C309.761 5.21333 310.081 5.14667 310.188 5.12C310.401 5.06667 310.588 5.05333 310.748 5.08C310.935 5.08 311.081 5.10667 311.188 5.16C311.401 5.24 311.495 5.25333 311.468 5.2C311.441 5.12 311.521 5.08 311.708 5.08C311.868 5.08 312.055 5.09333 312.268 5.12C312.508 5.12 312.761 5.18667 313.028 5.32C313.295 5.42667 313.575 5.65333 313.868 6C314.108 6.29333 314.281 6.48 314.388 6.56C314.521 6.64 314.588 6.81333 314.588 7.08C314.561 7.18667 314.535 7.34667 314.508 7.56C314.481 7.74667 314.428 8 314.348 8.32ZM312.589 39.12C312.295 39.0133 312.002 38.7733 311.709 38.4C311.415 38.0533 311.269 37.76 311.269 37.52C311.269 37.36 311.335 36.9333 311.469 36.24C311.602 35.5467 311.775 34.72 311.989 33.76C312.202 32.8 312.442 31.8133 312.709 30.8C313.002 29.8133 313.309 28.9333 313.629 28.16C313.682 28.0533 313.802 27.7733 313.989 27.32C314.175 26.84 314.375 26.2533 314.589 25.56L314.989 25.6L316.869 25.88L317.309 25.96C316.749 27.2667 316.309 28.3733 315.989 29.28C315.669 30.2133 315.389 31.1467 315.149 32.08C314.562 33.84 314.095 35.1867 313.749 36.12C313.429 37.08 313.189 37.76 313.029 38.16C312.895 38.56 312.789 38.8267 312.709 38.96C312.682 38.9867 312.655 39.0133 312.629 39.04C312.629 39.0667 312.615 39.0933 312.589 39.12ZM316.189 27.72C315.922 27.9067 315.735 28 315.629 28C315.522 27.9733 315.322 27.8133 315.029 27.52C314.522 27.04 314.162 26.1333 313.949 24.8C313.762 23.44 313.669 21.5333 313.669 19.08C313.775 17.9867 313.829 17.0533 313.829 16.28C313.855 15.5067 313.869 15.0667 313.869 14.96C313.949 14.8533 314.109 14.8 314.349 14.8C314.615 14.8 314.842 14.8533 315.029 14.96C315.295 15.0933 315.469 15.2933 315.549 15.56C315.655 15.8267 315.722 16.3067 315.749 17C315.775 17.6667 315.789 18.6933 315.789 20.08C315.709 21.1467 315.669 22.08 315.669 22.88C315.669 23.6533 315.709 24.0933 315.789 24.2C315.895 24.3867 316.015 24.44 316.149 24.36C316.309 24.2533 316.589 24 316.989 23.6C317.202 23.3067 317.469 22.92 317.789 22.44C318.109 21.9333 318.362 21.5333 318.549 21.24C318.842 20.8667 319.109 20.5067 319.349 20.16C319.615 19.8133 319.802 19.5867 319.909 19.48C320.015 19.2667 320.149 19.0667 320.309 18.88C320.469 18.6933 320.602 18.5067 320.709 18.32C321.002 17.8133 321.309 17.4 321.629 17.08C321.949 16.7333 322.162 16.56 322.269 16.56C322.375 16.64 322.469 16.6667 322.549 16.64C322.655 16.5867 322.762 16.56 322.869 16.56C323.055 16.3733 323.309 16.3733 323.629 16.56C323.735 16.64 323.829 16.7333 323.909 16.84C323.989 16.92 324.029 17.0133 324.029 17.12C324.029 17.2533 323.922 17.5333 323.709 17.96C323.522 18.3867 323.295 18.8 323.029 19.2C322.789 19.5733 322.602 19.8 322.469 19.88C322.469 19.88 322.429 19.92 322.349 20C322.269 20.08 322.175 20.1733 322.069 20.28C322.015 20.4667 321.842 20.8 321.549 21.28C321.255 21.7333 320.895 22.2533 320.469 22.84C320.042 23.4267 319.602 24.0133 319.149 24.6C318.695 25.1867 318.295 25.7067 317.949 26.16C317.682 26.5333 317.375 26.8667 317.029 27.16C316.682 27.4267 316.402 27.6133 316.189 27.72ZM326.592 27.04C326.299 26.8533 326.033 26.6133 325.793 26.32C325.553 26 325.433 25.6 325.433 25.12C325.433 24.8533 325.486 24.4 325.593 23.76C325.699 23.12 325.846 22.4 326.033 21.6C326.219 20.8 326.406 20.0533 326.592 19.36C326.859 18.88 327.086 18.4 327.273 17.92C327.459 17.44 327.553 17.1467 327.553 17.04C327.606 16.72 327.673 16.3467 327.753 15.92C327.859 15.4933 327.966 15.1067 328.073 14.76C328.179 14.4133 328.259 14.2133 328.313 14.16C328.446 14.0267 328.606 13.9467 328.793 13.92C328.979 13.8667 329.166 13.8933 329.353 14C329.566 14.08 329.726 14.2533 329.833 14.52C330.126 14.84 330.273 15.2267 330.273 15.68C330.273 16.1067 330.126 16.7467 329.833 17.6C329.593 18.1333 329.353 18.76 329.113 19.48C328.873 20.2 328.659 20.8667 328.473 21.48C328.313 22.0667 328.219 22.4667 328.193 22.68L327.393 22.92C327.846 22.4933 328.273 22.0533 328.673 21.6C329.073 21.12 329.366 20.7467 329.553 20.48C330.006 19.8667 330.393 19.36 330.713 18.96C331.059 18.5333 331.499 18.0267 332.033 17.44C332.566 16.8267 333.086 16.4533 333.593 16.32C334.126 16.16 334.539 16.08 334.833 16.08C335.419 16.1867 335.886 16.4933 336.233 17C336.606 17.48 336.846 18.2 336.953 19.16C336.953 19.5333 336.913 19.9733 336.833 20.48C336.779 20.9867 336.753 21.24 336.753 21.24C336.753 21.24 336.966 20.96 337.393 20.4C337.846 19.84 338.446 19.2267 339.193 18.56C339.699 18.1867 340.193 17.9733 340.673 17.92C341.153 17.84 341.579 18 341.953 18.4C342.646 18.7733 343.099 19.3467 343.313 20.12C343.526 20.8667 343.579 21.8267 343.473 23C343.393 23.6933 343.379 24.2133 343.433 24.56C343.486 24.88 343.566 25.2 343.673 25.52C343.886 25.6267 343.926 25.8533 343.793 26.2C343.659 26.52 343.499 26.68 343.313 26.68C343.046 26.68 342.739 26.6267 342.393 26.52C342.073 26.4133 341.779 26.24 341.512 26C341.273 25.7333 341.153 25.3733 341.153 24.92V22.44C341.153 21.8533 341.126 21.3733 341.073 21C341.046 20.6267 340.979 20.4 340.873 20.32C340.579 20.16 340.153 20.3333 339.593 20.84C339.033 21.3467 338.433 22.0267 337.793 22.88C337.153 23.7333 336.553 24.6133 335.993 25.52C335.486 26.3467 335.166 26.8267 335.033 26.96C334.926 27.0667 334.726 27.0267 334.433 26.84C333.846 26.6533 333.473 26.4 333.313 26.08C333.179 25.7333 333.166 25.3467 333.273 24.92C333.406 24.4667 333.566 23.8533 333.753 23.08C333.966 22.3067 334.166 21.56 334.353 20.84C334.539 20.0933 334.659 19.56 334.713 19.24C334.606 19.0267 334.419 18.96 334.153 19.04C333.913 19.0933 333.659 19.2133 333.393 19.4C333.073 19.6133 332.686 20.0133 332.233 20.6C331.779 21.1867 331.313 21.8667 330.833 22.64C330.513 23.1467 330.179 23.6533 329.833 24.16C329.486 24.64 329.166 25.0667 328.873 25.44C328.579 25.8133 328.326 26.0933 328.113 26.28C327.739 26.8667 327.486 27.1867 327.353 27.24C327.219 27.2933 326.966 27.2267 326.592 27.04ZM345.744 28.96C344.944 28.9867 344.357 28.8267 343.984 28.48C343.611 28.1067 343.464 27.6 343.544 26.96C343.731 26.7733 343.917 26.6533 344.104 26.6C344.291 26.5467 344.557 26.5867 344.904 26.72C345.197 26.8267 345.491 26.88 345.784 26.88C346.077 26.88 346.371 26.8267 346.664 26.72C346.797 26.64 346.944 26.6133 347.104 26.64C347.291 26.64 347.477 26.6133 347.664 26.56C348.037 26.4267 348.491 26.2267 349.024 25.96C349.584 25.6933 350.144 25.3867 350.704 25.04C351.264 24.6667 351.717 24.28 352.064 23.88C352.117 23.8267 352.197 23.6667 352.304 23.4C352.411 23.1067 352.451 22.9067 352.424 22.8C352.157 22.8 351.731 22.8533 351.144 22.96C350.584 23.04 350.171 23.1067 349.904 23.16C349.344 23.24 348.917 23.1733 348.624 22.96C348.331 22.7467 348.077 22.3867 347.864 21.88C347.784 21.6667 347.811 21.4933 347.944 21.36C348.077 21.2 348.211 20.9867 348.344 20.72C348.531 20.6933 348.704 20.68 348.864 20.68C349.051 20.6533 349.224 20.6933 349.384 20.8C349.544 20.9067 349.677 20.9067 349.784 20.8C349.917 20.6933 350.064 20.68 350.224 20.76C350.384 20.8133 350.597 20.8267 350.864 20.8C351.131 20.7733 351.704 20.7333 352.584 20.68C352.717 20.68 352.837 20.6667 352.944 20.64C353.077 20.5867 353.171 20.48 353.224 20.32C353.331 20.0267 353.384 19.72 353.384 19.4C353.384 19.0533 353.357 18.5467 353.304 17.88C353.144 17.4267 352.997 17.1333 352.864 17C352.731 16.84 352.557 16.6933 352.344 16.56C351.517 16.48 350.864 16.52 350.384 16.68C349.904 16.8133 349.584 17 349.424 17.24C348.997 17.56 348.557 17.7467 348.104 17.8C347.677 17.8533 347.437 17.76 347.384 17.52C347.384 17.3867 347.344 17.1733 347.264 16.88C347.211 16.5867 347.184 16.32 347.184 16.08C347.184 15.8133 347.251 15.68 347.384 15.68C347.757 15.2267 348.024 14.88 348.184 14.64C348.344 14.3733 348.731 14.2133 349.344 14.16C350.117 14 350.784 13.9467 351.344 14C351.904 14.0267 352.437 14.1467 352.944 14.36C353.237 14.44 353.597 14.6533 354.024 15C354.451 15.3467 354.717 15.68 354.824 16C354.957 16.1067 355.117 16.36 355.304 16.76C355.517 17.1333 355.731 17.84 355.944 18.88C355.811 19.8667 355.637 20.7467 355.424 21.52C355.237 22.2933 354.984 23.0267 354.664 23.72C354.344 24.44 354.051 24.9733 353.784 25.32C353.517 25.64 353.197 25.9867 352.824 26.36C351.704 27.0533 350.891 27.5733 350.384 27.92C349.877 28.2667 349.477 28.4933 349.184 28.6C348.891 28.7067 348.491 28.76 347.984 28.76C347.637 28.92 347.264 29 346.864 29C346.491 28.9733 346.117 28.96 345.744 28.96ZM358.049 28.96C357.249 28.9867 356.662 28.8267 356.289 28.48C355.915 28.1067 355.769 27.6 355.849 26.96C356.035 26.7733 356.222 26.6533 356.409 26.6C356.595 26.5467 356.862 26.5867 357.209 26.72C357.502 26.8267 357.795 26.88 358.089 26.88C358.382 26.88 358.675 26.8267 358.969 26.72C359.102 26.64 359.249 26.6133 359.409 26.64C359.595 26.64 359.782 26.6133 359.969 26.56C360.342 26.4267 360.795 26.2267 361.329 25.96C361.889 25.6933 362.449 25.3867 363.009 25.04C363.569 24.6667 364.022 24.28 364.369 23.88C364.422 23.8267 364.502 23.6667 364.609 23.4C364.715 23.1067 364.755 22.9067 364.729 22.8C364.462 22.8 364.035 22.8533 363.449 22.96C362.889 23.04 362.475 23.1067 362.209 23.16C361.649 23.24 361.222 23.1733 360.929 22.96C360.635 22.7467 360.382 22.3867 360.169 21.88C360.089 21.6667 360.115 21.4933 360.249 21.36C360.382 21.2 360.515 20.9867 360.649 20.72C360.835 20.6933 361.009 20.68 361.169 20.68C361.355 20.6533 361.529 20.6933 361.689 20.8C361.849 20.9067 361.982 20.9067 362.089 20.8C362.222 20.6933 362.369 20.68 362.529 20.76C362.689 20.8133 362.902 20.8267 363.169 20.8C363.435 20.7733 364.009 20.7333 364.889 20.68C365.022 20.68 365.142 20.6667 365.249 20.64C365.382 20.5867 365.475 20.48 365.529 20.32C365.635 20.0267 365.689 19.72 365.689 19.4C365.689 19.0533 365.662 18.5467 365.609 17.88C365.449 17.4267 365.302 17.1333 365.169 17C365.035 16.84 364.862 16.6933 364.649 16.56C363.822 16.48 363.169 16.52 362.689 16.68C362.209 16.8133 361.889 17 361.729 17.24C361.302 17.56 360.862 17.7467 360.409 17.8C359.982 17.8533 359.742 17.76 359.689 17.52C359.689 17.3867 359.649 17.1733 359.569 16.88C359.515 16.5867 359.489 16.32 359.489 16.08C359.489 15.8133 359.555 15.68 359.689 15.68C360.062 15.2267 360.329 14.88 360.489 14.64C360.649 14.3733 361.035 14.2133 361.649 14.16C362.422 14 363.089 13.9467 363.649 14C364.209 14.0267 364.742 14.1467 365.249 14.36C365.542 14.44 365.902 14.6533 366.329 15C366.755 15.3467 367.022 15.68 367.129 16C367.262 16.1067 367.422 16.36 367.609 16.76C367.822 17.1333 368.035 17.84 368.249 18.88C368.115 19.8667 367.942 20.7467 367.729 21.52C367.542 22.2933 367.289 23.0267 366.969 23.72C366.649 24.44 366.355 24.9733 366.089 25.32C365.822 25.64 365.502 25.9867 365.129 26.36C364.009 27.0533 363.195 27.5733 362.689 27.92C362.182 28.2667 361.782 28.4933 361.489 28.6C361.195 28.7067 360.795 28.76 360.289 28.76C359.942 28.92 359.569 29 359.169 29C358.795 28.9733 358.422 28.96 358.049 28.96ZM373.753 28.88C373.353 28.88 372.847 28.8533 372.233 28.8C371.647 28.7467 371.14 28.3733 370.713 27.68C370.447 27.2267 370.247 26.7067 370.113 26.12C370.007 25.5333 370.007 25.12 370.113 24.88C370.487 22.8267 370.78 21.4133 370.993 20.64C371.207 19.8667 371.327 19.4267 371.353 19.32C371.407 19.2133 371.513 18.96 371.673 18.56C371.86 18.1333 371.967 17.8667 371.993 17.76C372.127 17.3333 372.167 16.8533 372.113 16.32C372.087 16.1067 372.1 15.92 372.153 15.76C372.233 15.5733 372.353 15.4133 372.513 15.28C372.967 14.9333 373.327 14.48 373.593 13.92C373.673 13.7333 373.82 13.4133 374.033 12.96C374.273 12.48 374.513 12.0133 374.753 11.56C375.02 11.08 375.22 10.7467 375.353 10.56C375.78 10.0267 376.167 9.46667 376.513 8.88C376.887 8.26667 377.34 7.73333 377.873 7.28C378.22 6.69333 378.66 6.16 379.193 5.68C379.727 5.17333 380.26 4.70666 380.793 4.28C381.327 3.85333 381.753 3.48 382.073 3.16C382.207 3.02667 382.567 2.90667 383.153 2.8C383.767 2.66667 384.26 2.54667 384.633 2.44C384.793 2.36 385.1 2.42666 385.553 2.64C386.007 2.82667 386.327 3.04 386.513 3.28C386.86 3.86667 387.06 4.34666 387.113 4.72C387.193 5.09333 387.14 5.53333 386.953 6.04C386.793 6.52 386.473 7.26667 385.993 8.28C385.46 9.34667 384.7 10.36 383.713 11.32C382.753 12.2533 381.767 13.0667 380.753 13.76C380.247 14.2133 379.713 14.6267 379.153 15C378.62 15.3733 378.073 15.7067 377.513 16C377.167 16.1867 376.807 16.36 376.433 16.52C376.087 16.68 375.727 16.8267 375.353 16.96C375.167 17.0133 374.993 17.12 374.833 17.28C374.673 17.4133 374.54 17.6133 374.433 17.88C374.273 18.2533 374.18 18.5733 374.153 18.84C374.153 19.08 374.073 19.28 373.913 19.44C373.833 19.52 373.713 19.84 373.553 20.4C373.42 20.9333 373.26 21.5733 373.073 22.32C372.913 23.04 372.78 23.72 372.673 24.36C372.567 24.9733 372.527 25.3867 372.553 25.6C372.58 25.7333 372.607 25.88 372.633 26.04C372.687 26.1733 372.807 26.28 372.993 26.36C373.393 26.28 373.713 26.1467 373.953 25.96C374.193 25.7467 374.46 25.4667 374.753 25.12C375.073 24.72 375.367 24.2933 375.633 23.84C375.927 23.3867 376.167 22.92 376.353 22.44C376.46 22.1467 376.54 21.84 376.593 21.52C376.647 21.1733 376.74 20.8667 376.873 20.6C376.873 19.9867 376.86 19.5333 376.833 19.24C376.833 18.92 376.807 18.6667 376.753 18.48C376.727 18.2667 376.66 18.0267 376.553 17.76C376.767 17.6267 376.887 17.52 376.913 17.44C376.967 17.36 377.087 17.3467 377.273 17.4C377.62 17.48 377.94 17.6133 378.233 17.8C378.553 17.9867 378.86 18.2267 379.153 18.52C379.26 18.6267 379.327 18.7333 379.353 18.84C379.38 18.9467 379.367 19.0667 379.313 19.2C379.287 19.52 379.247 19.84 379.193 20.16C379.167 20.4533 379.153 20.7467 379.153 21.04C378.967 21.3867 378.847 21.76 378.793 22.16C378.74 22.5333 378.647 22.9067 378.513 23.28C378.353 23.6267 378.193 23.9733 378.033 24.32C377.873 24.6667 377.687 24.9867 377.473 25.28C377.153 25.8667 376.78 26.3867 376.353 26.84C375.953 27.2933 375.527 27.7067 375.073 28.08L373.753 28.88ZM375.593 14.12C375.913 14.1733 376.14 14.1867 376.273 14.16C376.433 14.1067 376.593 13.9733 376.753 13.76C378.007 12.9333 379.153 12.12 380.193 11.32C381.233 10.4933 382.1 9.70667 382.793 8.96C383.513 8.18667 383.98 7.50667 384.193 6.92C384.327 6.62667 384.473 6.34667 384.633 6.08C384.82 5.81333 384.94 5.50667 384.993 5.16L384.833 4.04C384.087 4.38667 383.487 4.70667 383.033 5C382.607 5.29333 382.047 5.78667 381.353 6.48C381.087 6.74667 380.687 7.2 380.153 7.84C379.647 8.45333 379.087 9.14667 378.473 9.92C377.86 10.6933 377.287 11.4533 376.753 12.2C376.247 12.9467 375.86 13.5867 375.593 14.12ZM384.464 26.92C383.957 27.1067 383.53 27.2 383.184 27.2C382.864 27.1733 382.504 27.0133 382.104 26.72C381.597 26.24 381.424 25.76 381.584 25.28C381.77 24.7733 382.21 24.28 382.904 23.8C383.384 23.5067 383.73 23.3467 383.944 23.32C384.184 23.2933 384.544 23.3867 385.024 23.6C385.824 24.1067 386.17 24.6667 386.064 25.28C385.984 25.8933 385.45 26.44 384.464 26.92Z" fill="white"/>
</svg>
