<svg width="177" height="57" viewBox="0 0 177 57" fill="none" xmlns="http://www.w3.org/2000/svg">
<path d="M64.2283 18.24C64.2283 19.1108 64.0102 19.8734 63.4657 20.4179C62.8129 21.0706 62.0503 21.3986 61.0696 21.3986C60.0889 21.3986 59.3262 21.0723 58.6735 20.4179C58.0208 19.7652 57.6928 19.0026 57.6928 18.0218C57.6928 17.0411 58.0191 16.2785 58.6735 15.6258C59.3262 14.973 60.0889 14.645 61.0696 14.645C61.5058 14.645 61.9405 14.7533 62.3767 14.9714C62.8129 15.1895 63.1393 15.4076 63.3574 15.734L62.8129 16.2785C62.3767 15.734 61.8322 15.5159 61.0696 15.5159C60.4169 15.5159 59.7625 15.734 59.3262 16.2785C58.7818 16.7147 58.5636 17.3675 58.5636 18.1301C58.5636 18.8927 58.7818 19.5454 59.3262 19.9817C59.8707 20.4179 60.4152 20.7443 61.0696 20.7443C61.8322 20.7443 62.3767 20.5262 62.9212 19.9817C63.2476 19.6553 63.4657 19.2191 63.4657 18.6746H61.0696V17.8037H64.2283V18.24ZM69.2386 15.5175H66.298V17.5872H69.0204V18.3498H66.298V20.4196H69.2386V21.2904H65.4271V14.7549H69.2386V15.5175ZM72.8335 21.2904H71.9627V15.5175H70.1111V14.7549H74.6851V15.5175H72.8335V21.2904ZM77.8438 21.2904V14.7549H78.7146V21.2904H77.8438ZM82.4178 21.2904H81.547V15.5175H79.6954V14.7549H84.1612V15.5175H82.3096V21.2904H82.4178ZM92.7647 20.4196C92.112 21.0723 91.3494 21.4003 90.3687 21.4003C89.3879 21.4003 88.6253 21.0739 87.9726 20.4196C87.3199 19.7668 86.9919 19.0042 86.9919 18.0235C86.9919 17.0427 87.3182 16.2801 87.9726 15.6274C88.6253 14.9747 89.3879 14.6467 90.3687 14.6467C91.3494 14.6467 92.112 14.973 92.7647 15.6274C93.4175 16.2801 93.7455 17.0427 93.7455 18.0235C93.7455 19.0042 93.4191 19.7668 92.7647 20.4196ZM88.6253 19.8751C89.0616 20.3113 89.7143 20.6377 90.3687 20.6377C91.023 20.6377 91.6758 20.4196 92.112 19.8751C92.5483 19.4388 92.8746 18.7861 92.8746 18.0235C92.8746 17.2609 92.6565 16.6081 92.112 16.1719C91.6758 15.7356 91.023 15.4093 90.3687 15.4093C89.7143 15.4093 89.0616 15.6274 88.6253 16.1719C88.1891 16.6081 87.8627 17.2609 87.8627 18.0235C87.8627 18.7861 88.0808 19.4388 88.6253 19.8751ZM94.9427 21.2904V14.7549H95.9234L99.0821 19.8734V14.7549H99.953V21.2904H99.0821L95.7053 15.9538V21.2904H94.9427Z" fill="white"/>
<path d="M86.7722 29.4577C84.158 29.4577 82.0883 31.4176 82.0883 34.1417C82.0883 36.8657 84.158 38.8256 86.7722 38.8256C89.3864 38.8256 91.4561 36.8657 91.4561 34.1417C91.4561 31.4176 89.3864 29.4577 86.7722 29.4577ZM86.7722 36.8641C85.3568 36.8641 84.158 35.6652 84.158 34.0318C84.158 32.3983 85.3568 31.1994 86.7722 31.1994C88.1875 31.1994 89.3864 32.2884 89.3864 34.0318C89.3864 35.6652 88.1875 36.8641 86.7722 36.8641ZM76.6434 29.4577C74.0292 29.4577 71.9595 31.4176 71.9595 34.1417C71.9595 36.8657 74.0292 38.8256 76.6434 38.8256C79.2576 38.8256 81.3273 36.8657 81.3273 34.1417C81.3273 31.4176 79.2576 29.4577 76.6434 29.4577ZM76.6434 36.8641C75.228 36.8641 74.0292 35.6652 74.0292 34.0318C74.0292 32.3983 75.228 31.1994 76.6434 31.1994C78.0587 31.1994 79.2576 32.2884 79.2576 34.0318C79.2576 35.6652 78.0587 36.8641 76.6434 36.8641ZM64.5547 30.8731V32.8329H69.2386C69.1304 33.9219 68.6942 34.7927 68.1497 35.3372C67.4969 35.99 66.4063 36.7526 64.5547 36.7526C61.6142 36.7526 59.4362 34.4647 59.4362 31.5242C59.4362 28.5836 61.724 26.2958 64.5547 26.2958C66.08 26.2958 67.2772 26.9485 68.1497 27.7111L69.565 26.2958C68.3662 25.2068 66.8426 24.3359 64.6646 24.3359C60.7433 24.3359 57.3681 27.6029 57.3681 31.5242C57.3681 35.4455 60.7449 38.7124 64.6646 38.7124C66.8426 38.7124 68.3678 38.0597 69.6749 36.6427C70.982 35.3356 71.4183 33.484 71.4183 32.0687C71.4183 31.6324 71.4182 31.1978 71.31 30.8698H64.558L64.5547 30.8731ZM114.002 32.3983C113.565 31.3093 112.476 29.4577 110.08 29.4577C107.684 29.4577 105.724 31.3093 105.724 34.1417C105.724 36.7559 107.684 38.8256 110.298 38.8256C112.368 38.8256 113.675 37.5185 114.11 36.7559L112.585 35.6669C112.04 36.4295 111.386 36.974 110.297 36.974C109.208 36.974 108.553 36.5377 108.009 35.5586L114.216 32.9444L113.998 32.3999L114.002 32.3983ZM107.684 33.9235C107.684 32.1802 109.1 31.2011 110.08 31.2011C110.843 31.2011 111.605 31.6373 111.824 32.1818L107.684 33.9252V33.9235ZM102.566 38.3893H104.635V24.7755H102.566V38.3893ZM99.2987 30.4385C98.7542 29.894 97.8834 29.3495 96.7944 29.3495C94.5065 29.3495 92.3286 31.4192 92.3286 34.0334C92.3286 36.6476 94.3983 38.6074 96.7944 38.6074C97.8834 38.6074 98.7542 38.063 99.1905 37.5185H99.2987V38.1712C99.2987 39.9145 98.318 40.8936 96.7944 40.8936C95.5955 40.8936 94.7247 40.0228 94.5065 39.2602L92.7632 40.0228C93.3077 41.2216 94.6148 42.7452 96.9026 42.7452C99.1905 42.7452 101.259 41.3299 101.259 37.9531V29.6759H99.2987V30.4385ZM96.9026 36.8641C95.4873 36.8641 94.2884 35.6652 94.2884 34.0318C94.2884 32.3983 95.4873 31.1994 96.9026 31.1994C98.318 31.1994 99.4069 32.3983 99.4069 34.0318C99.4069 35.6652 98.318 36.8641 96.9026 36.8641ZM123.478 24.7755H118.577V38.3893H120.647V33.2708H123.479C125.767 33.2708 127.945 31.6373 127.945 29.0231C127.945 26.4089 125.767 24.7755 123.479 24.7755H123.478ZM123.586 31.311H120.645V26.6271H123.586C125.111 26.6271 125.982 27.9342 125.982 28.9149C125.874 30.1138 125.001 31.311 123.586 31.311ZM136.111 29.3511C134.586 29.3511 133.062 30.0039 132.516 31.4209L134.367 32.1835C134.804 31.4209 135.456 31.2027 136.219 31.2027C137.308 31.2027 138.289 31.8555 138.397 32.9461V33.0543C138.071 32.8362 137.198 32.5098 136.327 32.5098C134.367 32.5098 132.406 33.5988 132.406 35.5586C132.406 37.4102 134.039 38.6074 135.783 38.6074C137.198 38.6074 137.852 37.9547 138.397 37.3003H138.505V38.3893H140.465V33.1609C140.247 30.7648 138.395 29.3495 136.109 29.3495L136.111 29.3511ZM135.893 36.8657C135.24 36.8657 134.259 36.5394 134.259 35.6669C134.259 34.5779 135.458 34.2515 136.437 34.2515C137.308 34.2515 137.744 34.4697 138.289 34.6878C138.071 35.9949 136.982 36.8657 135.893 36.8657ZM147.329 29.6775L145.041 35.5586H144.932L142.536 29.6775H140.358L143.953 37.9547L141.884 42.5288H143.953L149.508 29.6775H147.33H147.329ZM129.031 38.391H131.1V24.7771H129.031V38.391Z" fill="white"/>
<path d="M27.2762 13.813C26.9498 14.1394 26.84 14.6838 26.84 15.3382V39.4089C26.84 40.0616 27.0581 40.6077 27.3845 40.9341L27.4927 41.0424L40.9983 27.5367V27.3186L27.2746 13.813H27.2762Z" fill="url(#paint0_linear_541_21)"/>
<path d="M45.3552 32.111L40.8894 27.6452V27.3188L45.3552 22.853L45.4634 22.9613L50.8001 26.0101C52.3253 26.8809 52.3253 28.2979 50.8001 29.1688L45.3552 32.1093V32.111Z" fill="url(#paint1_linear_541_21)"/>
<path d="M45.4643 32.0023L40.8902 27.4282L27.2764 41.0421C27.8209 41.5866 28.5835 41.5866 29.5642 41.1503L45.4659 32.0023" fill="url(#paint2_linear_541_21)"/>
<path d="M45.4635 22.8517L29.5618 13.8119C28.5811 13.2674 27.8185 13.3756 27.274 13.9201L40.8878 27.4257L45.4619 22.8517H45.4635Z" fill="url(#paint3_linear_541_21)"/>
<rect x="0.203333" y="0.643763" width="176.087" height="55.7133" rx="16.8767" stroke="white" stroke-opacity="0.5" stroke-width="0.406667"/>
<defs>
<linearGradient id="paint0_linear_541_21" x1="33.92" y1="13.7343" x2="33.92" y2="40.839" gradientUnits="userSpaceOnUse">
<stop stop-color="#267CAF"/>
<stop offset="0.29" stop-color="#4A92B4"/>
<stop offset="0.77" stop-color="#79BCBA"/>
<stop offset="1" stop-color="#88CEBC"/>
</linearGradient>
<linearGradient id="paint1_linear_541_21" x1="47.9366" y1="24.1568" x2="44.6303" y2="31.6337" gradientUnits="userSpaceOnUse">
<stop stop-color="#F48879"/>
<stop offset="0.12" stop-color="#F5907A"/>
<stop offset="0.71" stop-color="#FBB777"/>
<stop offset="1" stop-color="#FDC874"/>
</linearGradient>
<linearGradient id="paint2_linear_541_21" x1="43.0206" y1="29.8407" x2="28.1489" y2="41.8687" gradientUnits="userSpaceOnUse">
<stop stop-color="#EB413D"/>
<stop offset="0.17" stop-color="#D94452"/>
<stop offset="0.57" stop-color="#AF487A"/>
<stop offset="0.86" stop-color="#954B92"/>
<stop offset="1" stop-color="#894A9C"/>
</linearGradient>
<linearGradient id="paint3_linear_541_21" x1="29.2027" y1="14.4695" x2="43.4299" y2="25.3331" gradientUnits="userSpaceOnUse">
<stop stop-color="#54C0AC"/>
<stop offset="1" stop-color="#DDE79A"/>
</linearGradient>
</defs>
</svg>
