<svg width="43" height="42" viewBox="0 0 43 42" fill="none" xmlns="http://www.w3.org/2000/svg">
<g clip-path="url(#clip0_128_488)">
<path d="M21.5001 4.10278C27.0064 4.10278 27.6585 4.12693 29.824 4.22353C31.8366 4.31208 32.9234 4.6502 33.6479 4.93195C34.6059 5.30227 35.2982 5.75308 36.0147 6.46956C36.7392 7.19408 37.182 7.87835 37.5523 8.83634C37.8341 9.56086 38.1722 10.6557 38.2607 12.6602C38.3573 14.8338 38.3815 15.4859 38.3815 20.9842C38.3815 26.4906 38.3573 27.1427 38.2607 29.3082C38.1722 31.3207 37.8341 32.4075 37.5523 33.1321C37.182 34.09 36.7312 34.7824 36.0147 35.4988C35.2902 36.2234 34.6059 36.6661 33.6479 37.0364C32.9234 37.3182 31.8286 37.6563 29.824 37.7449C27.6505 37.8415 26.9984 37.8656 21.5001 37.8656C15.9937 37.8656 15.3416 37.8415 13.1761 37.7449C11.1635 37.6563 10.0767 37.3182 9.35219 37.0364C8.39421 36.6661 7.70189 36.2153 6.98541 35.4988C6.26089 34.7743 5.81812 34.09 5.44781 33.1321C5.16605 32.4075 4.82794 31.3127 4.73939 29.3082C4.64278 27.1346 4.61863 26.4825 4.61863 20.9842C4.61863 15.4778 4.64278 14.8257 4.73939 12.6602C4.82794 10.6476 5.16605 9.56086 5.44781 8.83634C5.81812 7.87835 6.26894 7.18603 6.98541 6.46956C7.70994 5.74503 8.39421 5.30227 9.35219 4.93195C10.0767 4.6502 11.1716 4.31208 13.1761 4.22353C15.3416 4.12693 15.9937 4.10278 21.5001 4.10278ZM21.5001 0.391602C15.9051 0.391602 15.2047 0.415752 13.007 0.512356C10.8173 0.608959 9.31194 0.963171 8.0078 1.47034C6.6473 2.00166 5.49611 2.70203 4.35297 3.85322C3.20179 4.99636 2.50141 6.14755 1.97009 7.49999C1.46293 8.81219 1.10871 10.3095 1.01211 12.4992C0.915508 14.705 0.891357 15.4054 0.891357 21.0003C0.891357 26.5952 0.915508 27.2956 1.01211 29.4933C1.10871 31.683 1.46293 33.1884 1.97009 34.4926C2.50141 35.8531 3.20179 37.0042 4.35297 38.1474C5.49611 39.2905 6.6473 39.9989 7.99975 40.5222C9.31194 41.0294 10.8093 41.3836 12.999 41.4802C15.1967 41.5768 15.8971 41.6009 21.492 41.6009C27.0869 41.6009 27.7873 41.5768 29.985 41.4802C32.1747 41.3836 33.6801 41.0294 34.9843 40.5222C36.3367 39.9989 37.4879 39.2905 38.631 38.1474C39.7742 37.0042 40.4826 35.8531 41.0059 34.5006C41.513 33.1884 41.8672 31.6911 41.9638 29.5014C42.0604 27.3037 42.0846 26.6033 42.0846 21.0083C42.0846 15.4134 42.0604 14.713 41.9638 12.5153C41.8672 10.3256 41.513 8.82024 41.0059 7.51609C40.4987 6.14755 39.7983 4.99636 38.6471 3.85322C37.504 2.71008 36.3528 2.00166 35.0004 1.47839C33.6882 0.971221 32.1908 0.617009 30.0011 0.520406C27.7954 0.415752 27.095 0.391602 21.5001 0.391602Z" fill="white"/>
<path d="M21.5 10.4141C15.6556 10.4141 10.9139 15.1557 10.9139 21.0002C10.9139 26.8447 15.6556 31.5863 21.5 31.5863C27.3445 31.5863 32.0862 26.8447 32.0862 21.0002C32.0862 15.1557 27.3445 10.4141 21.5 10.4141ZM21.5 27.8671C17.7084 27.8671 14.6332 24.7918 14.6332 21.0002C14.6332 17.2085 17.7084 14.1333 21.5 14.1333C25.2917 14.1333 28.3669 17.2085 28.3669 21.0002C28.3669 24.7918 25.2917 27.8671 21.5 27.8671Z" fill="white"/>
<path d="M34.9762 9.99585C34.9762 11.3644 33.8653 12.4673 32.5048 12.4673C31.1362 12.4673 30.0333 11.3563 30.0333 9.99585C30.0333 8.6273 31.1443 7.52441 32.5048 7.52441C33.8653 7.52441 34.9762 8.63535 34.9762 9.99585Z" fill="white"/>
</g>
<defs>
<clipPath id="clip0_128_488">
<rect width="41.2174" height="41.2174" fill="white" transform="translate(0.891357 0.391602)"/>
</clipPath>
</defs>
</svg>
