<svg width="487" height="93" viewBox="0 0 487 93" fill="none" xmlns="http://www.w3.org/2000/svg">
<path d="M98.92 89V79.784H95.32V77.8H104.904V79.784H101.304V89H98.92ZM109.134 89.192C108.441 89.192 107.86 89.1227 107.39 88.984C106.921 88.8347 106.532 88.6373 106.222 88.392C105.924 88.136 105.7 87.848 105.55 87.528C105.412 87.208 105.326 86.872 105.294 86.52H107.406C107.46 86.7973 107.625 87.0267 107.902 87.208C108.18 87.3787 108.59 87.464 109.134 87.464C109.753 87.464 110.196 87.3787 110.462 87.208C110.729 87.0373 110.862 86.8187 110.862 86.552C110.862 86.36 110.804 86.2053 110.686 86.088C110.569 85.96 110.361 85.8533 110.062 85.768C109.764 85.672 109.342 85.576 108.798 85.48C108.329 85.416 107.897 85.3307 107.502 85.224C107.118 85.1067 106.777 84.9467 106.478 84.744C106.18 84.5413 105.945 84.2907 105.774 83.992C105.614 83.6827 105.534 83.3093 105.534 82.872C105.534 82.4027 105.673 81.976 105.95 81.592C106.238 81.208 106.649 80.904 107.182 80.68C107.726 80.4453 108.377 80.328 109.134 80.328C109.956 80.328 110.612 80.456 111.102 80.712C111.593 80.968 111.961 81.2987 112.206 81.704C112.452 82.1093 112.601 82.5413 112.654 83H110.542C110.457 82.6907 110.292 82.456 110.046 82.296C109.801 82.136 109.497 82.056 109.134 82.056C108.601 82.056 108.217 82.1413 107.982 82.312C107.758 82.472 107.646 82.6747 107.646 82.92C107.646 83.176 107.769 83.3733 108.014 83.512C108.27 83.6507 108.788 83.7733 109.566 83.88C110.046 83.944 110.489 84.04 110.894 84.168C111.31 84.2853 111.673 84.4453 111.982 84.648C112.292 84.8507 112.532 85.1067 112.702 85.416C112.884 85.7147 112.974 86.0827 112.974 86.52C112.974 87.0427 112.83 87.5067 112.542 87.912C112.265 88.3067 111.838 88.6213 111.262 88.856C110.697 89.08 109.988 89.192 109.134 89.192ZM118.316 89.192C117.548 89.192 116.838 89.0373 116.188 88.728C115.548 88.408 115.036 87.928 114.652 87.288C114.268 86.6373 114.076 85.8213 114.076 84.84V84.52C114.076 83.592 114.268 82.8187 114.652 82.2C115.036 81.5813 115.548 81.1173 116.188 80.808C116.838 80.488 117.548 80.328 118.316 80.328C119.084 80.328 119.788 80.488 120.428 80.808C121.078 81.1173 121.596 81.5813 121.98 82.2C122.364 82.8187 122.556 83.592 122.556 84.52V84.84C122.556 85.8 122.364 86.6053 121.98 87.256C121.596 87.896 121.078 88.3813 120.428 88.712C119.788 89.032 119.084 89.192 118.316 89.192ZM118.316 87.4C118.721 87.4 119.078 87.3093 119.388 87.128C119.708 86.936 119.958 86.648 120.14 86.264C120.321 85.88 120.412 85.4053 120.412 84.84V84.52C120.412 83.9973 120.321 83.56 120.14 83.208C119.958 82.856 119.708 82.5893 119.388 82.408C119.078 82.216 118.721 82.12 118.316 82.12C117.91 82.12 117.548 82.216 117.228 82.408C116.918 82.5893 116.673 82.856 116.492 83.208C116.31 83.56 116.22 83.9973 116.22 84.52V84.84C116.22 85.416 116.31 85.896 116.492 86.28C116.673 86.6533 116.918 86.936 117.228 87.128C117.548 87.3093 117.91 87.4 118.316 87.4ZM124.245 89V80.52H126.341V89H124.245ZM125.285 79.704C124.912 79.704 124.603 79.5867 124.357 79.352C124.123 79.1173 124.005 78.8133 124.005 78.44C124.005 78.0667 124.123 77.7627 124.357 77.528C124.603 77.2933 124.907 77.176 125.269 77.176C125.653 77.176 125.963 77.2933 126.197 77.528C126.443 77.7627 126.565 78.0667 126.565 78.44C126.565 78.8133 126.443 79.1173 126.197 79.352C125.963 79.5867 125.659 79.704 125.285 79.704ZM131.293 89.096C130.642 89.096 130.109 89.0107 129.693 88.84C129.288 88.6587 128.989 88.36 128.797 87.944C128.605 87.5173 128.509 86.9253 128.509 86.168V77.8H130.605V85.912C130.605 86.456 130.68 86.824 130.829 87.016C130.989 87.208 131.298 87.304 131.757 87.304C131.874 87.304 131.976 87.304 132.061 87.304C132.146 87.2933 132.232 87.2827 132.317 87.272V89.032C132.264 89.0533 132.173 89.0693 132.045 89.08C131.917 89.0907 131.784 89.096 131.645 89.096C131.506 89.096 131.389 89.096 131.293 89.096ZM137.378 89.192C136.61 89.192 135.901 89.0373 135.25 88.728C134.61 88.408 134.098 87.928 133.714 87.288C133.33 86.6373 133.138 85.8213 133.138 84.84V84.52C133.138 83.592 133.33 82.8187 133.714 82.2C134.098 81.5813 134.61 81.1173 135.25 80.808C135.901 80.488 136.61 80.328 137.378 80.328C138.146 80.328 138.85 80.488 139.49 80.808C140.141 81.1173 140.658 81.5813 141.042 82.2C141.426 82.8187 141.618 83.592 141.618 84.52V84.84C141.618 85.8 141.426 86.6053 141.042 87.256C140.658 87.896 140.141 88.3813 139.49 88.712C138.85 89.032 138.146 89.192 137.378 89.192ZM137.378 87.4C137.783 87.4 138.141 87.3093 138.45 87.128C138.77 86.936 139.021 86.648 139.202 86.264C139.383 85.88 139.474 85.4053 139.474 84.84V84.52C139.474 83.9973 139.383 83.56 139.202 83.208C139.021 82.856 138.77 82.5893 138.45 82.408C138.141 82.216 137.783 82.12 137.378 82.12C136.973 82.12 136.61 82.216 136.29 82.408C135.981 82.5893 135.735 82.856 135.554 83.208C135.373 83.56 135.282 83.9973 135.282 84.52V84.84C135.282 85.416 135.373 85.896 135.554 86.28C135.735 86.6533 135.981 86.936 136.29 87.128C136.61 87.3093 136.973 87.4 137.378 87.4ZM146.812 92.392C145.916 92.392 145.201 92.28 144.668 92.056C144.135 91.8427 143.74 91.544 143.484 91.16C143.239 90.776 143.095 90.3227 143.052 89.8H145.196C145.26 90.024 145.404 90.232 145.628 90.424C145.852 90.6267 146.247 90.728 146.812 90.728C147.527 90.728 148.06 90.5573 148.412 90.216C148.764 89.8747 148.94 89.3627 148.94 88.68V87.656C148.673 88.072 148.316 88.408 147.868 88.664C147.42 88.9093 146.908 89.032 146.332 89.032C145.596 89.032 144.956 88.872 144.412 88.552C143.879 88.232 143.463 87.7573 143.164 87.128C142.876 86.488 142.732 85.6987 142.732 84.76V84.44C142.732 83.5547 142.876 82.808 143.164 82.2C143.463 81.592 143.884 81.128 144.428 80.808C144.972 80.488 145.607 80.328 146.332 80.328C147.036 80.328 147.617 80.472 148.076 80.76C148.535 81.048 148.871 81.384 149.084 81.768V80.52H151.036V88.52C151.036 89.7787 150.689 90.7387 149.996 91.4C149.303 92.0613 148.241 92.392 146.812 92.392ZM146.828 87.24C147.255 87.24 147.623 87.1653 147.932 87.016C148.252 86.856 148.497 86.6107 148.668 86.28C148.849 85.9493 148.94 85.5493 148.94 85.08V84.12C148.94 83.672 148.849 83.304 148.668 83.016C148.487 82.728 148.236 82.5093 147.916 82.36C147.596 82.2 147.233 82.12 146.828 82.12C146.252 82.12 145.783 82.3173 145.42 82.712C145.057 83.096 144.876 83.672 144.876 84.44V84.76C144.876 85.5813 145.063 86.2 145.436 86.616C145.809 87.032 146.273 87.24 146.828 87.24ZM156.416 89.192C155.722 89.192 155.141 89.1227 154.672 88.984C154.202 88.8347 153.813 88.6373 153.504 88.392C153.205 88.136 152.981 87.848 152.832 87.528C152.693 87.208 152.608 86.872 152.576 86.52H154.688C154.741 86.7973 154.906 87.0267 155.184 87.208C155.461 87.3787 155.872 87.464 156.416 87.464C157.034 87.464 157.477 87.3787 157.744 87.208C158.01 87.0373 158.144 86.8187 158.144 86.552C158.144 86.36 158.085 86.2053 157.968 86.088C157.85 85.96 157.642 85.8533 157.344 85.768C157.045 85.672 156.624 85.576 156.08 85.48C155.61 85.416 155.178 85.3307 154.784 85.224C154.4 85.1067 154.058 84.9467 153.76 84.744C153.461 84.5413 153.226 84.2907 153.056 83.992C152.896 83.6827 152.816 83.3093 152.816 82.872C152.816 82.4027 152.954 81.976 153.232 81.592C153.52 81.208 153.93 80.904 154.464 80.68C155.008 80.4453 155.658 80.328 156.416 80.328C157.237 80.328 157.893 80.456 158.384 80.712C158.874 80.968 159.242 81.2987 159.488 81.704C159.733 82.1093 159.882 82.5413 159.936 83H157.824C157.738 82.6907 157.573 82.456 157.328 82.296C157.082 82.136 156.778 82.056 156.416 82.056C155.882 82.056 155.498 82.1413 155.264 82.312C155.04 82.472 154.928 82.6747 154.928 82.92C154.928 83.176 155.05 83.3733 155.296 83.512C155.552 83.6507 156.069 83.7733 156.848 83.88C157.328 83.944 157.77 84.04 158.176 84.168C158.592 84.2853 158.954 84.4453 159.264 84.648C159.573 84.8507 159.813 85.1067 159.984 85.416C160.165 85.7147 160.256 86.0827 160.256 86.52C160.256 87.0427 160.112 87.5067 159.824 87.912C159.546 88.3067 159.12 88.6213 158.544 88.856C157.978 89.08 157.269 89.192 156.416 89.192ZM165.597 89.192C164.829 89.192 164.12 89.0373 163.469 88.728C162.829 88.408 162.317 87.928 161.933 87.288C161.549 86.6373 161.357 85.8213 161.357 84.84V84.52C161.357 83.592 161.549 82.8187 161.933 82.2C162.317 81.5813 162.829 81.1173 163.469 80.808C164.12 80.488 164.829 80.328 165.597 80.328C166.365 80.328 167.069 80.488 167.709 80.808C168.36 81.1173 168.877 81.5813 169.261 82.2C169.645 82.8187 169.837 83.592 169.837 84.52V84.84C169.837 85.8 169.645 86.6053 169.261 87.256C168.877 87.896 168.36 88.3813 167.709 88.712C167.069 89.032 166.365 89.192 165.597 89.192ZM165.597 87.4C166.002 87.4 166.36 87.3093 166.669 87.128C166.989 86.936 167.24 86.648 167.421 86.264C167.602 85.88 167.693 85.4053 167.693 84.84V84.52C167.693 83.9973 167.602 83.56 167.421 83.208C167.24 82.856 166.989 82.5893 166.669 82.408C166.36 82.216 166.002 82.12 165.597 82.12C165.192 82.12 164.829 82.216 164.509 82.408C164.2 82.5893 163.954 82.856 163.773 83.208C163.592 83.56 163.501 83.9973 163.501 84.52V84.84C163.501 85.416 163.592 85.896 163.773 86.28C163.954 86.6533 164.2 86.936 164.509 87.128C164.829 87.3093 165.192 87.4 165.597 87.4ZM170.793 89V87.48L175.177 82.28H170.953V80.52H177.833V82.04L173.449 87.24H177.993V89H170.793ZM185.973 89.192C185.365 89.192 184.847 89.08 184.421 88.856C183.994 88.6213 183.669 88.3013 183.445 87.896C183.221 87.4907 183.109 87.032 183.109 86.52C183.109 85.6667 183.359 85.0267 183.861 84.6C184.373 84.1733 185.135 83.96 186.149 83.96H188.677V83.56C188.677 83.0053 188.549 82.616 188.293 82.392C188.047 82.168 187.653 82.056 187.109 82.056C186.629 82.056 186.282 82.1413 186.069 82.312C185.855 82.472 185.733 82.6747 185.701 82.92H183.589C183.621 82.4293 183.775 81.992 184.053 81.608C184.341 81.2133 184.746 80.904 185.269 80.68C185.802 80.4453 186.442 80.328 187.189 80.328C187.914 80.328 188.543 80.4347 189.077 80.648C189.621 80.8613 190.042 81.208 190.341 81.688C190.639 82.1573 190.789 82.792 190.789 83.592V86.84C190.789 87.288 190.794 87.6827 190.805 88.024C190.826 88.3547 190.858 88.68 190.901 89H188.933C188.89 88.7653 188.863 88.5893 188.853 88.472C188.853 88.344 188.853 88.1573 188.853 87.912C188.629 88.2533 188.277 88.552 187.797 88.808C187.317 89.064 186.709 89.192 185.973 89.192ZM186.629 87.56C186.97 87.56 187.295 87.5013 187.605 87.384C187.925 87.256 188.181 87.064 188.373 86.808C188.575 86.5413 188.677 86.2053 188.677 85.8V85.4H186.549C186.143 85.4 185.823 85.496 185.589 85.688C185.365 85.8693 185.253 86.12 185.253 86.44C185.253 86.7813 185.37 87.0533 185.605 87.256C185.839 87.4587 186.181 87.56 186.629 87.56ZM192.648 89V80.52H194.568V81.768C194.781 81.384 195.112 81.048 195.56 80.76C196.008 80.472 196.621 80.328 197.4 80.328C198.435 80.328 199.203 80.6053 199.704 81.16C200.216 81.7147 200.472 82.5147 200.472 83.56V89H198.36V84.04C198.36 83.4107 198.227 82.936 197.96 82.616C197.704 82.2853 197.261 82.12 196.632 82.12C196.184 82.12 195.821 82.2107 195.544 82.392C195.267 82.5733 195.064 82.808 194.936 83.096C194.808 83.384 194.744 83.6987 194.744 84.04V89H192.648ZM205.519 89.192C204.783 89.192 204.143 89.032 203.599 88.712C203.066 88.392 202.65 87.912 202.351 87.272C202.063 86.6213 201.919 85.8107 201.919 84.84V84.52C201.919 83.6027 202.063 82.8347 202.351 82.216C202.65 81.5973 203.071 81.128 203.615 80.808C204.159 80.488 204.794 80.328 205.519 80.328C206.106 80.328 206.618 80.456 207.055 80.712C207.503 80.9573 207.861 81.288 208.127 81.704V77.8H210.223V89H208.271V87.752C208.058 88.136 207.722 88.472 207.263 88.76C206.805 89.048 206.223 89.192 205.519 89.192ZM206.015 87.4C206.442 87.4 206.81 87.32 207.119 87.16C207.439 87 207.685 86.7547 207.855 86.424C208.037 86.0827 208.127 85.6613 208.127 85.16V84.2C208.127 83.7307 208.037 83.3467 207.855 83.048C207.674 82.7387 207.423 82.5093 207.103 82.36C206.783 82.2 206.421 82.12 206.015 82.12C205.439 82.12 204.97 82.3227 204.607 82.728C204.245 83.1227 204.063 83.72 204.063 84.52V84.84C204.063 85.7147 204.25 86.36 204.623 86.776C204.997 87.192 205.461 87.4 206.015 87.4ZM216.499 89V77.8H221.283C222.542 77.8 223.464 78.0667 224.051 78.6C224.648 79.1227 224.947 79.8533 224.947 80.792C224.947 81.368 224.803 81.864 224.515 82.28C224.238 82.6853 223.859 82.9787 223.379 83.16C224.019 83.3093 224.52 83.6133 224.883 84.072C225.246 84.52 225.427 85.1067 225.427 85.832C225.427 86.472 225.294 87.032 225.027 87.512C224.76 87.9813 224.339 88.3493 223.763 88.616C223.187 88.872 222.43 89 221.491 89H216.499ZM218.883 87.176H221.059C221.806 87.176 222.323 87.048 222.611 86.792C222.899 86.536 223.043 86.1573 223.043 85.656C223.043 85.1547 222.899 84.7653 222.611 84.488C222.334 84.2 221.811 84.056 221.043 84.056H218.883V87.176ZM218.883 82.424H220.803C221.454 82.424 221.907 82.296 222.163 82.04C222.43 81.784 222.563 81.4373 222.563 81C222.563 80.552 222.435 80.2107 222.179 79.976C221.923 79.7413 221.47 79.624 220.819 79.624H218.883V82.424ZM230.878 89.192C230.11 89.192 229.401 89.0373 228.75 88.728C228.11 88.408 227.598 87.928 227.214 87.288C226.83 86.6373 226.638 85.8213 226.638 84.84V84.52C226.638 83.592 226.83 82.8187 227.214 82.2C227.598 81.5813 228.11 81.1173 228.75 80.808C229.401 80.488 230.11 80.328 230.878 80.328C231.646 80.328 232.35 80.488 232.99 80.808C233.641 81.1173 234.158 81.5813 234.542 82.2C234.926 82.8187 235.118 83.592 235.118 84.52V84.84C235.118 85.8 234.926 86.6053 234.542 87.256C234.158 87.896 233.641 88.3813 232.99 88.712C232.35 89.032 231.646 89.192 230.878 89.192ZM230.878 87.4C231.283 87.4 231.641 87.3093 231.95 87.128C232.27 86.936 232.521 86.648 232.702 86.264C232.883 85.88 232.974 85.4053 232.974 84.84V84.52C232.974 83.9973 232.883 83.56 232.702 83.208C232.521 82.856 232.27 82.5893 231.95 82.408C231.641 82.216 231.283 82.12 230.878 82.12C230.473 82.12 230.11 82.216 229.79 82.408C229.481 82.5893 229.235 82.856 229.054 83.208C228.873 83.56 228.782 83.9973 228.782 84.52V84.84C228.782 85.416 228.873 85.896 229.054 86.28C229.235 86.6533 229.481 86.936 229.79 87.128C230.11 87.3093 230.473 87.4 230.878 87.4ZM240.312 92.392C239.416 92.392 238.701 92.28 238.168 92.056C237.635 91.8427 237.24 91.544 236.984 91.16C236.739 90.776 236.595 90.3227 236.552 89.8H238.696C238.76 90.024 238.904 90.232 239.128 90.424C239.352 90.6267 239.747 90.728 240.312 90.728C241.027 90.728 241.56 90.5573 241.912 90.216C242.264 89.8747 242.44 89.3627 242.44 88.68V87.656C242.173 88.072 241.816 88.408 241.368 88.664C240.92 88.9093 240.408 89.032 239.832 89.032C239.096 89.032 238.456 88.872 237.912 88.552C237.379 88.232 236.963 87.7573 236.664 87.128C236.376 86.488 236.232 85.6987 236.232 84.76V84.44C236.232 83.5547 236.376 82.808 236.664 82.2C236.963 81.592 237.384 81.128 237.928 80.808C238.472 80.488 239.107 80.328 239.832 80.328C240.536 80.328 241.117 80.472 241.576 80.76C242.035 81.048 242.371 81.384 242.584 81.768V80.52H244.536V88.52C244.536 89.7787 244.189 90.7387 243.496 91.4C242.803 92.0613 241.741 92.392 240.312 92.392ZM240.328 87.24C240.755 87.24 241.123 87.1653 241.432 87.016C241.752 86.856 241.997 86.6107 242.168 86.28C242.349 85.9493 242.44 85.5493 242.44 85.08V84.12C242.44 83.672 242.349 83.304 242.168 83.016C241.987 82.728 241.736 82.5093 241.416 82.36C241.096 82.2 240.733 82.12 240.328 82.12C239.752 82.12 239.283 82.3173 238.92 82.712C238.557 83.096 238.376 83.672 238.376 84.44V84.76C238.376 85.5813 238.563 86.2 238.936 86.616C239.309 87.032 239.773 87.24 240.328 87.24ZM249.676 89.192C248.94 89.192 248.3 89.032 247.756 88.712C247.222 88.392 246.806 87.912 246.508 87.272C246.22 86.6213 246.076 85.8107 246.076 84.84V84.52C246.076 83.6027 246.22 82.8347 246.508 82.216C246.806 81.5973 247.228 81.128 247.772 80.808C248.316 80.488 248.95 80.328 249.676 80.328C250.262 80.328 250.774 80.456 251.212 80.712C251.66 80.9573 252.017 81.288 252.284 81.704V77.8H254.38V89H252.428V87.752C252.214 88.136 251.878 88.472 251.42 88.76C250.961 89.048 250.38 89.192 249.676 89.192ZM250.172 87.4C250.598 87.4 250.966 87.32 251.276 87.16C251.596 87 251.841 86.7547 252.012 86.424C252.193 86.0827 252.284 85.6613 252.284 85.16V84.2C252.284 83.7307 252.193 83.3467 252.012 83.048C251.83 82.7387 251.58 82.5093 251.26 82.36C250.94 82.2 250.577 82.12 250.172 82.12C249.596 82.12 249.126 82.3227 248.764 82.728C248.401 83.1227 248.22 83.72 248.22 84.52V84.84C248.22 85.7147 248.406 86.36 248.78 86.776C249.153 87.192 249.617 87.4 250.172 87.4ZM265.039 89.192C264.335 89.192 263.754 89.048 263.295 88.76C262.837 88.472 262.501 88.136 262.287 87.752V89H260.335V77.8H262.431V81.688C262.698 81.2827 263.05 80.9573 263.487 80.712C263.935 80.456 264.453 80.328 265.039 80.328C266.17 80.328 267.05 80.68 267.679 81.384C268.319 82.0773 268.639 83.1227 268.639 84.52V84.84C268.639 85.8107 268.49 86.6213 268.191 87.272C267.903 87.912 267.493 88.392 266.959 88.712C266.426 89.032 265.786 89.192 265.039 89.192ZM264.543 87.4C265.098 87.4 265.562 87.192 265.935 86.776C266.309 86.3493 266.495 85.704 266.495 84.84V84.52C266.495 83.72 266.314 83.1227 265.951 82.728C265.599 82.3227 265.13 82.12 264.543 82.12C264.138 82.12 263.775 82.2 263.455 82.36C263.135 82.5093 262.885 82.7387 262.703 83.048C262.522 83.3467 262.431 83.7307 262.431 84.2V85.16C262.431 85.6613 262.517 86.0827 262.687 86.424C262.869 86.7547 263.119 87 263.439 87.16C263.759 87.32 264.127 87.4 264.543 87.4ZM272.707 89.192C272.099 89.192 271.582 89.08 271.155 88.856C270.728 88.6213 270.403 88.3013 270.179 87.896C269.955 87.4907 269.843 87.032 269.843 86.52C269.843 85.6667 270.094 85.0267 270.595 84.6C271.107 84.1733 271.87 83.96 272.883 83.96H275.411V83.56C275.411 83.0053 275.283 82.616 275.027 82.392C274.782 82.168 274.387 82.056 273.843 82.056C273.363 82.056 273.016 82.1413 272.803 82.312C272.59 82.472 272.467 82.6747 272.435 82.92H270.323C270.355 82.4293 270.51 81.992 270.787 81.608C271.075 81.2133 271.48 80.904 272.003 80.68C272.536 80.4453 273.176 80.328 273.923 80.328C274.648 80.328 275.278 80.4347 275.811 80.648C276.355 80.8613 276.776 81.208 277.075 81.688C277.374 82.1573 277.523 82.792 277.523 83.592V86.84C277.523 87.288 277.528 87.6827 277.539 88.024C277.56 88.3547 277.592 88.68 277.635 89H275.667C275.624 88.7653 275.598 88.5893 275.587 88.472C275.587 88.344 275.587 88.1573 275.587 87.912C275.363 88.2533 275.011 88.552 274.531 88.808C274.051 89.064 273.443 89.192 272.707 89.192ZM273.363 87.56C273.704 87.56 274.03 87.5013 274.339 87.384C274.659 87.256 274.915 87.064 275.107 86.808C275.31 86.5413 275.411 86.2053 275.411 85.8V85.4H273.283C272.878 85.4 272.558 85.496 272.323 85.688C272.099 85.8693 271.987 86.12 271.987 86.44C271.987 86.7813 272.104 87.0533 272.339 87.256C272.574 87.4587 272.915 87.56 273.363 87.56ZM279.382 89V80.52H281.302V81.768C281.516 81.384 281.846 81.048 282.294 80.76C282.742 80.472 283.356 80.328 284.134 80.328C285.169 80.328 285.937 80.6053 286.438 81.16C286.95 81.7147 287.206 82.5147 287.206 83.56V89H285.094V84.04C285.094 83.4107 284.961 82.936 284.694 82.616C284.438 82.2853 283.996 82.12 283.366 82.12C282.918 82.12 282.556 82.2107 282.278 82.392C282.001 82.5733 281.798 82.808 281.67 83.096C281.542 83.384 281.478 83.6987 281.478 84.04V89H279.382ZM289.07 89V77.8H291.166V84.008L294.302 80.52H296.718L293.47 84.152L297.038 89H294.606L292.11 85.544L291.166 86.552V89H289.07ZM302.273 92.2V80.52H304.225V81.768C304.438 81.384 304.774 81.048 305.233 80.76C305.692 80.472 306.273 80.328 306.977 80.328C308.108 80.328 308.988 80.68 309.617 81.384C310.257 82.0773 310.577 83.1227 310.577 84.52V84.84C310.577 85.8107 310.428 86.6213 310.129 87.272C309.841 87.912 309.43 88.392 308.897 88.712C308.364 89.032 307.724 89.192 306.977 89.192C306.401 89.192 305.889 89.0693 305.441 88.824C305.004 88.568 304.646 88.2373 304.369 87.832V92.2H302.273ZM306.481 87.4C307.036 87.4 307.5 87.192 307.873 86.776C308.246 86.3493 308.433 85.704 308.433 84.84V84.52C308.433 83.72 308.252 83.1227 307.889 82.728C307.537 82.3227 307.068 82.12 306.481 82.12C306.076 82.12 305.713 82.2 305.393 82.36C305.073 82.5093 304.822 82.7387 304.641 83.048C304.46 83.3467 304.369 83.7307 304.369 84.2V85.16C304.369 85.6613 304.454 86.0827 304.625 86.424C304.806 86.7547 305.057 87 305.377 87.16C305.697 87.32 306.065 87.4 306.481 87.4ZM314.645 89.192C314.037 89.192 313.519 89.08 313.093 88.856C312.666 88.6213 312.341 88.3013 312.117 87.896C311.893 87.4907 311.781 87.032 311.781 86.52C311.781 85.6667 312.031 85.0267 312.533 84.6C313.045 84.1733 313.807 83.96 314.821 83.96H317.349V83.56C317.349 83.0053 317.221 82.616 316.965 82.392C316.719 82.168 316.325 82.056 315.781 82.056C315.301 82.056 314.954 82.1413 314.741 82.312C314.527 82.472 314.405 82.6747 314.373 82.92H312.261C312.293 82.4293 312.447 81.992 312.725 81.608C313.013 81.2133 313.418 80.904 313.941 80.68C314.474 80.4453 315.114 80.328 315.861 80.328C316.586 80.328 317.215 80.4347 317.749 80.648C318.293 80.8613 318.714 81.208 319.013 81.688C319.311 82.1573 319.461 82.792 319.461 83.592V86.84C319.461 87.288 319.466 87.6827 319.477 88.024C319.498 88.3547 319.53 88.68 319.573 89H317.605C317.562 88.7653 317.535 88.5893 317.525 88.472C317.525 88.344 317.525 88.1573 317.525 87.912C317.301 88.2533 316.949 88.552 316.469 88.808C315.989 89.064 315.381 89.192 314.645 89.192ZM315.301 87.56C315.642 87.56 315.967 87.5013 316.277 87.384C316.597 87.256 316.853 87.064 317.045 86.808C317.247 86.5413 317.349 86.2053 317.349 85.8V85.4H315.221C314.815 85.4 314.495 85.496 314.261 85.688C314.037 85.8693 313.925 86.12 313.925 86.44C313.925 86.7813 314.042 87.0533 314.277 87.256C314.511 87.4587 314.853 87.56 315.301 87.56ZM321.32 89V80.52H323.24V81.784C323.357 81.5387 323.517 81.3093 323.72 81.096C323.922 80.8827 324.173 80.7013 324.472 80.552C324.77 80.4027 325.101 80.328 325.464 80.328C325.666 80.328 325.837 80.3387 325.976 80.36C326.125 80.3813 326.221 80.4027 326.264 80.424V82.296C326.157 82.2533 326.018 82.216 325.848 82.184C325.688 82.1413 325.469 82.12 325.192 82.12C324.765 82.12 324.418 82.2107 324.152 82.392C323.896 82.5733 323.709 82.8133 323.592 83.112C323.474 83.4 323.416 83.7147 323.416 84.056V89H321.32ZM331.291 89.096C330.629 89.096 330.085 89.0053 329.659 88.824C329.232 88.632 328.917 88.328 328.715 87.912C328.523 87.496 328.427 86.9573 328.427 86.296V82.28H327.291V80.52H328.427V78.6H330.523V80.52H332.571V82.28H330.523V85.96C330.523 86.44 330.608 86.7867 330.779 87C330.96 87.2027 331.291 87.304 331.771 87.304C332.091 87.304 332.411 87.288 332.731 87.256V89.016C332.528 89.0373 332.315 89.0533 332.091 89.064C331.877 89.0853 331.611 89.096 331.291 89.096ZM334.273 89V80.52H336.193V81.768C336.406 81.384 336.737 81.048 337.185 80.76C337.633 80.472 338.246 80.328 339.025 80.328C340.06 80.328 340.828 80.6053 341.329 81.16C341.841 81.7147 342.097 82.5147 342.097 83.56V89H339.985V84.04C339.985 83.4107 339.852 82.936 339.585 82.616C339.329 82.2853 338.886 82.12 338.257 82.12C337.809 82.12 337.446 82.2107 337.169 82.392C336.892 82.5733 336.689 82.808 336.561 83.096C336.433 83.384 336.369 83.6987 336.369 84.04V89H334.273ZM347.784 89.192C347.016 89.192 346.307 89.0373 345.656 88.728C345.016 88.408 344.504 87.928 344.12 87.288C343.736 86.6373 343.544 85.8213 343.544 84.84V84.52C343.544 83.5813 343.726 82.8027 344.088 82.184C344.462 81.5653 344.958 81.1013 345.576 80.792C346.195 80.4827 346.878 80.328 347.624 80.328C348.958 80.328 349.971 80.68 350.664 81.384C351.358 82.088 351.704 83.1067 351.704 84.44V85.336H345.704C345.726 85.8373 345.832 86.248 346.024 86.568C346.227 86.8773 346.483 87.1067 346.792 87.256C347.102 87.3947 347.432 87.464 347.784 87.464C348.328 87.464 348.739 87.384 349.016 87.224C349.294 87.064 349.491 86.8293 349.608 86.52H351.544C351.374 87.4053 350.952 88.072 350.28 88.52C349.608 88.968 348.776 89.192 347.784 89.192ZM347.704 82.056C347.374 82.056 347.054 82.1093 346.744 82.216C346.435 82.3227 346.19 82.5147 346.008 82.792C345.827 83.0587 345.726 83.416 345.704 83.864H349.656C349.646 83.384 349.55 83.016 349.368 82.76C349.198 82.4933 348.968 82.312 348.68 82.216C348.392 82.1093 348.067 82.056 347.704 82.056ZM353.242 89V80.52H355.162V81.784C355.279 81.5387 355.439 81.3093 355.642 81.096C355.844 80.8827 356.095 80.7013 356.394 80.552C356.692 80.4027 357.023 80.328 357.386 80.328C357.588 80.328 357.759 80.3387 357.898 80.36C358.047 80.3813 358.143 80.4027 358.186 80.424V82.296C358.079 82.2533 357.94 82.216 357.77 82.184C357.61 82.1413 357.391 82.12 357.114 82.12C356.687 82.12 356.34 82.2107 356.074 82.392C355.818 82.5733 355.631 82.8133 355.514 83.112C355.396 83.4 355.338 83.7147 355.338 84.056V89H353.242ZM362.9 89.192C362.207 89.192 361.625 89.1227 361.156 88.984C360.687 88.8347 360.297 88.6373 359.988 88.392C359.689 88.136 359.465 87.848 359.316 87.528C359.177 87.208 359.092 86.872 359.06 86.52H361.172C361.225 86.7973 361.391 87.0267 361.668 87.208C361.945 87.3787 362.356 87.464 362.9 87.464C363.519 87.464 363.961 87.3787 364.228 87.208C364.495 87.0373 364.628 86.8187 364.628 86.552C364.628 86.36 364.569 86.2053 364.452 86.088C364.335 85.96 364.127 85.8533 363.828 85.768C363.529 85.672 363.108 85.576 362.564 85.48C362.095 85.416 361.663 85.3307 361.268 85.224C360.884 85.1067 360.543 84.9467 360.244 84.744C359.945 84.5413 359.711 84.2907 359.54 83.992C359.38 83.6827 359.3 83.3093 359.3 82.872C359.3 82.4027 359.439 81.976 359.716 81.592C360.004 81.208 360.415 80.904 360.948 80.68C361.492 80.4453 362.143 80.328 362.9 80.328C363.721 80.328 364.377 80.456 364.868 80.712C365.359 80.968 365.727 81.2987 365.972 81.704C366.217 82.1093 366.367 82.5413 366.42 83H364.308C364.223 82.6907 364.057 82.456 363.812 82.296C363.567 82.136 363.263 82.056 362.9 82.056C362.367 82.056 361.983 82.1413 361.748 82.312C361.524 82.472 361.412 82.6747 361.412 82.92C361.412 83.176 361.535 83.3733 361.78 83.512C362.036 83.6507 362.553 83.7733 363.332 83.88C363.812 83.944 364.255 84.04 364.66 84.168C365.076 84.2853 365.439 84.4453 365.748 84.648C366.057 84.8507 366.297 85.1067 366.468 85.416C366.649 85.7147 366.74 86.0827 366.74 86.52C366.74 87.0427 366.596 87.5067 366.308 87.912C366.031 88.3067 365.604 88.6213 365.028 88.856C364.463 89.08 363.753 89.192 362.9 89.192ZM368.257 89V77.8H370.353V81.688C370.481 81.4747 370.657 81.2667 370.881 81.064C371.116 80.8507 371.404 80.6747 371.745 80.536C372.097 80.3973 372.519 80.328 373.009 80.328C374.044 80.328 374.812 80.6053 375.313 81.16C375.825 81.7147 376.081 82.5147 376.081 83.56V89H373.969V84.056C373.969 83.4267 373.836 82.9467 373.569 82.616C373.313 82.2853 372.871 82.12 372.241 82.12C371.793 82.12 371.431 82.2107 371.153 82.392C370.876 82.5733 370.673 82.8133 370.545 83.112C370.417 83.4 370.353 83.7147 370.353 84.056V89H368.257ZM378.105 89V80.52H380.201V89H378.105ZM379.145 79.704C378.771 79.704 378.462 79.5867 378.217 79.352C377.982 79.1173 377.865 78.8133 377.865 78.44C377.865 78.0667 377.982 77.7627 378.217 77.528C378.462 77.2933 378.766 77.176 379.129 77.176C379.513 77.176 379.822 77.2933 380.057 77.528C380.302 77.7627 380.425 78.0667 380.425 78.44C380.425 78.8133 380.302 79.1173 380.057 79.352C379.822 79.5867 379.518 79.704 379.145 79.704ZM382.289 92.2V80.52H384.241V81.768C384.454 81.384 384.79 81.048 385.249 80.76C385.707 80.472 386.289 80.328 386.993 80.328C388.123 80.328 389.003 80.68 389.633 81.384C390.273 82.0773 390.593 83.1227 390.593 84.52V84.84C390.593 85.8107 390.443 86.6213 390.145 87.272C389.857 87.912 389.446 88.392 388.913 88.712C388.379 89.032 387.739 89.192 386.993 89.192C386.417 89.192 385.905 89.0693 385.457 88.824C385.019 88.568 384.662 88.2373 384.385 87.832V92.2H382.289ZM386.497 87.4C387.051 87.4 387.515 87.192 387.889 86.776C388.262 86.3493 388.449 85.704 388.449 84.84V84.52C388.449 83.72 388.267 83.1227 387.905 82.728C387.553 82.3227 387.083 82.12 386.497 82.12C386.091 82.12 385.729 82.2 385.409 82.36C385.089 82.5093 384.838 82.7387 384.657 83.048C384.475 83.3467 384.385 83.7307 384.385 84.2V85.16C384.385 85.6613 384.47 86.0827 384.641 86.424C384.822 86.7547 385.073 87 385.393 87.16C385.713 87.32 386.081 87.4 386.497 87.4Z" fill="#0C0C0C"/>
<path d="M29.5709 2.51782L39.4983 19.687L49.4257 36.8563H41.4898C37.5369 29.9765 33.5539 23.1269 29.6011 16.2472L22.5704 28.4376H14.6346L19.6737 19.687L29.6011 2.51782H29.5709ZM29.5709 19.3551L34.61 28.1057L44.5374 45.2749H4.88825L8.8411 38.3952H32.6487L25.6181 26.2047L29.5709 19.325V19.3551ZM19.8547 2.51782L23.8076 9.39758L19.8547 16.2773L17.9538 19.5362L11.9189 30.0067H25.9802L29.933 36.8864H0L9.92737 19.7172L19.8547 2.548V2.51782Z" fill="#008739"/>
<path d="M205.111 33.2317V14.5538H210.332V22.3991L215.974 14.5538H222.1L215.009 23.6061L222.281 33.2317H215.733L210.301 25.2053V33.2317H205.081H205.111ZM184.382 33.2317V14.5538H189.873L196.693 25.5674V14.5538H201.732V33.2317H196.301L189.391 22.037V33.2317H184.351H184.382ZM173.096 18.8385L170.954 25.8994H175.239L173.096 18.8385ZM163.26 33.2317L169.898 14.5538H176.265L182.873 33.2317H177.261L176.235 30.0031H169.868L168.842 33.2317H163.229H163.26ZM152.276 29.4901H154.69C156.561 29.4901 157.496 28.8263 157.496 27.4986C157.496 26.2614 156.561 25.6278 154.69 25.6278H152.276V29.4599V29.4901ZM152.276 21.9163H154.479C156.078 21.9163 156.863 21.343 156.863 20.1662C156.863 19.6231 156.682 19.1705 156.289 18.8385C155.897 18.4765 155.294 18.2954 154.449 18.2954H152.246V21.9163H152.276ZM147.056 14.5538H156.108C157.617 14.5538 158.764 14.8254 159.608 15.3383C160.423 15.8513 160.996 16.4548 161.268 17.179C161.57 17.9031 161.691 18.5972 161.691 19.3213C161.691 20.2567 161.419 21.0413 160.876 21.7353C160.333 22.4293 159.639 22.9121 158.794 23.244V23.3044C159.729 23.5457 160.634 24.0285 161.479 24.7527C162.324 25.4769 162.716 26.5934 162.716 28.1021C162.716 29.0073 162.505 29.822 162.083 30.6066C161.691 31.4213 160.996 32.0549 160.091 32.5679C159.186 33.0809 158.009 33.3222 156.621 33.3222H147.056V14.6443V14.5538ZM123.942 28.7357H124.516C125.813 28.7357 127.02 28.4038 128.137 27.74C129.223 27.1063 129.766 25.8088 129.766 23.8777C129.766 22.2181 129.283 20.9809 128.348 20.1964C127.412 19.4119 126.145 19.0196 124.516 19.0196H123.942V28.7357ZM118.722 33.2317V14.5538H125.572C127.744 14.5538 129.525 14.9159 130.852 15.6702C132.18 16.4246 133.146 17.3298 133.749 18.3558C134.383 19.4119 134.775 20.4076 134.926 21.343C135.077 22.2784 135.167 23.1233 135.167 23.8777C135.167 25.1148 134.986 26.2916 134.624 27.4081C134.262 28.5245 133.689 29.5203 132.904 30.3953C132.12 31.2704 131.124 31.9644 129.887 32.4774C128.65 32.9903 127.201 33.2317 125.542 33.2317H118.692H118.722ZM106.109 22.3991H116.157C116.188 22.8517 116.218 23.2742 116.218 23.6966C116.218 25.2355 115.976 26.7744 115.494 28.253C114.981 29.7617 114.045 31.0592 112.657 32.1153C111.269 33.2016 109.338 33.7447 106.864 33.7447C105.476 33.7447 104.148 33.5335 102.911 33.1412C101.674 32.7188 100.557 32.0851 99.6218 31.2704C98.6562 30.4255 97.9019 29.3996 97.3889 28.1624C96.8458 26.9253 96.5742 25.5373 96.5742 23.9984C96.5742 22.4595 96.7854 21.162 97.238 19.9248C97.6907 18.6877 98.3545 17.6316 99.2295 16.7565C100.105 15.8815 101.161 15.1874 102.368 14.7047C103.605 14.2219 104.963 13.9805 106.471 13.9805C107.437 13.9805 108.342 14.071 109.247 14.2822C110.122 14.4633 110.907 14.7348 111.631 15.0969C112.355 15.459 113.019 15.9418 113.623 16.5151C114.226 17.0884 114.739 17.7523 115.131 18.5066L110.515 20.6792C110.153 19.9852 109.61 19.442 108.946 19.0498C108.282 18.6575 107.497 18.4765 106.592 18.4765C105.958 18.4765 105.325 18.5972 104.751 18.8084C104.148 19.0498 103.635 19.3817 103.213 19.8645C102.76 20.3171 102.428 20.8904 102.156 21.5844C101.915 22.2784 101.794 23.063 101.794 23.9078C101.794 25.0846 102.006 26.1106 102.428 26.9856C102.881 27.8607 103.484 28.5245 104.238 28.947C104.993 29.3996 105.838 29.641 106.773 29.641C107.829 29.641 108.734 29.3694 109.489 28.7961C110.243 28.2228 110.726 27.4684 110.937 26.5028H106.079V22.3991H106.109ZM84.8364 29.2789C85.5605 29.2789 86.2847 29.0978 87.0089 28.7357C87.7331 28.3736 88.3064 27.8003 88.7892 26.9856C89.2418 26.1709 89.4832 25.145 89.4832 23.8777C89.4832 22.6103 89.2418 21.5844 88.7892 20.7697C88.3064 19.955 87.7029 19.3817 87.0089 19.0498C86.2847 18.6877 85.5907 18.5066 84.8364 18.5066C84.082 18.5066 83.4182 18.6877 82.694 19.0498C81.9698 19.4119 81.3663 19.9852 80.9137 20.7999C80.4309 21.6146 80.1895 22.6405 80.1895 23.8777C80.1895 25.7183 80.6723 27.0762 81.6379 27.9512C82.6035 28.8263 83.6596 29.2789 84.8364 29.2789ZM84.8364 33.7749C83.2673 33.7749 81.8189 33.5033 80.5516 32.9903C79.2843 32.4774 78.2282 31.7532 77.3833 30.8178C76.5384 29.9125 75.8746 28.8564 75.4521 27.6796C75.0297 26.5028 74.8185 25.2355 74.8185 23.8777C74.8185 22.5198 75.0297 21.3128 75.4521 20.1059C75.8746 18.8989 76.5082 17.8428 77.3833 16.9376C78.2282 16.0022 79.2843 15.3081 80.5214 14.7952C81.7887 14.2822 83.2069 14.0106 84.8364 14.0106C86.4658 14.0106 87.884 14.2822 89.1513 14.7952C90.4186 15.3383 91.4747 16.0625 92.2894 16.9376C93.1343 17.8428 93.7982 18.8989 94.2206 20.1059C94.643 21.2827 94.8543 22.55 94.8543 23.8777C94.8543 25.2053 94.643 26.4727 94.2206 27.6796C93.7982 28.8564 93.1645 29.9125 92.2894 30.8178C91.4446 31.723 90.3884 32.4472 89.1513 32.9602C87.884 33.5033 86.4356 33.7749 84.8364 33.7749ZM62.7789 29.4901H65.1928C67.0636 29.4901 67.9991 28.8263 67.9991 27.4986C67.9991 26.2614 67.0636 25.6278 65.1928 25.6278H62.7789V29.4599V29.4901ZM62.7789 21.9163H64.9816C66.5809 21.9163 67.3654 21.343 67.3654 20.1662C67.3654 19.6231 67.1843 19.1705 66.7921 18.8385C66.3998 18.4765 65.7963 18.2954 64.9514 18.2954H62.7487V21.9163H62.7789ZM57.5587 14.5538H66.611C68.1198 14.5538 69.2664 14.8254 70.1113 15.3383C70.926 15.8513 71.4993 16.4548 71.7708 17.179C72.0726 17.9031 72.1933 18.5972 72.1933 19.3213C72.1933 20.2567 71.9217 21.0413 71.3786 21.7353C70.8354 22.4293 70.1414 22.9121 69.2965 23.244V23.3044C70.232 23.5457 71.1372 24.0285 71.9821 24.7527C72.827 25.4769 73.2192 26.5934 73.2192 28.1021C73.2192 29.0073 73.008 29.822 72.5856 30.6066C72.1933 31.4213 71.4993 32.0549 70.594 32.5679C69.6888 33.0809 68.512 33.3222 67.124 33.3222H57.5587V14.6443V14.5538Z" fill="#0C0C0C"/>
<path d="M303.364 8.6355H324.446V13.7632H316.742V33.2118H311.064V13.7632H303.36L303.364 8.6355Z" fill="#0C0C0C"/>
<path d="M324.661 18.3147C325.034 17.6466 325.547 17.0665 326.164 16.6137C326.907 16.0698 327.736 15.6547 328.617 15.3856C329.72 15.0498 330.869 14.8891 332.022 14.9091C333.038 14.895 334.048 15.0561 335.008 15.3856C335.846 15.6748 336.636 16.0888 337.351 16.6137C338 17.0937 338.574 17.6668 339.056 18.3147C339.49 18.8955 339.835 19.5378 340.079 20.2204L335.319 20.9544C335.035 20.488 334.662 20.0826 334.221 19.7616C333.583 19.3039 332.807 19.0785 332.022 19.1228C331.395 19.0892 330.777 19.2835 330.283 19.6698C330.102 19.7958 329.952 19.9596 329.842 20.1498C329.731 20.3399 329.664 20.5519 329.644 20.7709C329.644 21.1591 329.898 21.4767 330.413 21.7026C331.041 21.9751 331.69 22.1958 332.354 22.3625C333.135 22.5719 333.97 22.8072 334.86 23.0683C335.736 23.3174 336.579 23.6729 337.369 24.127C338.137 24.5666 338.799 25.1689 339.31 25.8915C339.852 26.7094 340.122 27.6779 340.079 28.6583C340.072 29.3253 339.896 29.9796 339.568 30.5605C339.189 31.2369 338.663 31.8194 338.029 32.265C337.243 32.8153 336.372 33.2304 335.449 33.4931C334.276 33.8294 333.059 33.99 331.839 33.9695C330.716 33.9875 329.597 33.8267 328.525 33.4931C327.623 33.2053 326.77 32.7791 325.998 32.2297C325.301 31.726 324.688 31.1136 324.184 30.4158C323.714 29.7639 323.333 29.0517 323.052 28.2984L328.179 27.5678C328.477 28.1649 328.91 28.6844 329.443 29.0853C330.142 29.5754 330.987 29.8142 331.839 29.7629C332.768 29.7629 333.459 29.5806 333.91 29.2159C334.099 29.0947 334.257 28.9329 334.374 28.7423C334.492 28.5518 334.565 28.3374 334.588 28.1148C334.588 27.7266 334.33 27.409 333.819 27.1832C333.19 26.9117 332.541 26.691 331.878 26.5232C331.094 26.3138 330.258 26.0786 329.369 25.8174C328.492 25.5684 327.649 25.2128 326.859 24.7587C326.092 24.3182 325.43 23.7161 324.918 22.9942C324.378 22.1757 324.109 21.2076 324.149 20.2274C324.158 19.5572 324.334 18.8997 324.661 18.3147Z" fill="#0C0C0C"/>
<path d="M347.413 33.1845C346.262 32.6929 345.212 31.9903 344.318 31.1129C343.438 30.2465 342.729 29.2216 342.229 28.0921C341.716 26.9395 341.453 25.6907 341.46 24.4289C341.458 23.1744 341.72 21.9335 342.229 20.7869C342.726 19.6501 343.435 18.6187 344.318 17.7484C345.212 16.8711 346.262 16.1685 347.413 15.6769C348.597 15.1644 349.875 14.9025 351.165 14.9075C352.456 14.9025 353.735 15.1644 354.92 15.6769C356.072 16.1685 357.121 16.8711 358.015 17.7484C358.898 18.6189 359.605 19.6503 360.1 20.7869C360.611 21.9329 360.873 23.1742 360.87 24.4289C360.878 25.6909 360.616 26.9401 360.1 28.0921C359.602 29.2214 358.894 30.2463 358.015 31.1129C357.121 31.9903 356.072 32.6929 354.92 33.1845C353.735 33.6969 352.456 33.9589 351.165 33.9538C349.875 33.9589 348.597 33.6969 347.413 33.1845ZM352.887 28.9884C353.442 28.7385 353.94 28.3783 354.352 27.9297C354.776 27.4654 355.117 26.9318 355.361 26.3522C355.617 25.7437 355.747 25.0893 355.742 24.4289C355.747 23.7697 355.617 23.1165 355.361 22.5091C355.117 21.9295 354.776 21.396 354.352 20.9316C353.939 20.4844 353.441 20.1244 352.887 19.8729C352.347 19.6236 351.76 19.4936 351.165 19.4918C350.571 19.4936 349.985 19.6236 349.446 19.8729C348.891 20.1234 348.391 20.4835 347.978 20.9316C347.556 21.3971 347.216 21.9304 346.972 22.5091C346.713 23.1158 346.582 23.7693 346.588 24.4289C346.582 25.0897 346.713 25.7445 346.972 26.3522C347.216 26.931 347.556 27.4643 347.978 27.9297C348.39 28.3791 348.89 28.7394 349.446 28.9884C349.984 29.2405 350.571 29.3718 351.165 29.3731C351.754 29.3692 352.336 29.2379 352.869 28.9884H352.887Z" fill="#0C0C0C"/>
<path d="M363.921 7.32686C364.193 7.05146 364.518 6.8348 364.877 6.69032C365.235 6.54584 365.62 6.47661 366.007 6.48694C366.394 6.47612 366.779 6.54509 367.139 6.68959C367.498 6.83408 367.824 7.05102 368.096 7.32686C368.372 7.59854 368.59 7.92421 368.735 8.28365C368.88 8.64308 368.95 9.02855 368.939 9.41603C368.949 9.80292 368.879 10.1877 368.734 10.5465C368.589 10.9053 368.372 11.2304 368.096 11.5017C367.824 11.7782 367.498 11.9958 367.139 12.1409C366.78 12.286 366.394 12.3555 366.007 12.3452C365.62 12.355 365.235 12.2852 364.876 12.1401C364.517 11.995 364.192 11.7777 363.921 11.5017C363.645 11.2304 363.428 10.9053 363.283 10.5465C363.137 10.1877 363.068 9.80292 363.077 9.41603C363.067 9.02855 363.137 8.64308 363.282 8.28365C363.427 7.92421 363.644 7.59854 363.921 7.32686ZM363.445 33.2195V15.6413H368.583V33.2195H363.445Z" fill="#0C0C0C"/>
<path d="M370.445 12.1647V7.5769H377.951V33.2119H372.824V12.1647H370.445Z" fill="#0C0C0C"/>
<path d="M386.483 33.1845C385.332 32.692 384.282 31.9895 383.388 31.1129C382.509 30.2463 381.801 29.2214 381.302 28.0921C380.787 26.9401 380.524 25.6909 380.533 24.4289C380.529 23.1742 380.791 21.9329 381.302 20.7869C381.797 19.6503 382.505 18.6189 383.388 17.7484C384.282 16.8719 385.332 16.1693 386.483 15.6769C387.668 15.1644 388.947 14.9025 390.238 14.9075C391.529 14.9029 392.807 15.1648 393.993 15.6769C395.143 16.1694 396.191 16.872 397.084 17.7484C397.968 18.6187 398.677 19.6501 399.173 20.7869C399.683 21.9335 399.945 23.1744 399.943 24.4289C399.949 25.6907 399.687 26.9395 399.173 28.0921C398.673 29.2216 397.965 30.2465 397.084 31.1129C396.191 31.9894 395.143 32.6919 393.993 33.1845C392.807 33.6965 391.529 33.9584 390.238 33.9538C388.947 33.9589 387.668 33.6969 386.483 33.1845ZM391.96 28.9884C392.515 28.7385 393.013 28.3783 393.425 27.9297C393.846 27.4643 394.186 26.931 394.43 26.3522C394.69 25.7445 394.821 25.0897 394.815 24.4289C394.82 23.7693 394.689 23.1158 394.43 22.5091C394.186 21.9304 393.846 21.3971 393.425 20.9316C393.012 20.4844 392.514 20.1244 391.96 19.8729C391.42 19.6239 390.833 19.494 390.238 19.4918C389.643 19.4936 389.056 19.6236 388.516 19.8729C387.962 20.1244 387.464 20.4844 387.051 20.9316C386.627 21.3953 386.287 21.929 386.045 22.5091C385.786 23.1158 385.656 23.7693 385.661 24.4289C385.655 25.0897 385.786 25.7445 386.045 26.3522C386.287 26.9323 386.627 27.4661 387.051 27.9297C387.463 28.3783 387.961 28.7385 388.516 28.9884C389.055 29.2404 389.643 29.3717 390.238 29.3731C390.833 29.3714 391.421 29.2401 391.96 28.9884Z" fill="#0C0C0C"/>
<path d="M402.257 20.4862C402.689 19.4103 403.316 18.4234 404.106 17.5748C404.857 16.7701 405.751 16.1119 406.742 15.6338C407.694 15.1693 408.739 14.9279 409.798 14.928C410.552 14.9077 411.301 15.0459 411.997 15.3338C412.535 15.559 413.04 15.8545 413.5 16.2126C413.92 16.5794 414.278 17.012 414.559 17.4936H414.912V15.662H420.04V32.7285C420.047 33.853 419.806 34.9654 419.334 35.9858C418.863 37.0042 418.212 37.9285 417.411 38.7138C416.597 39.516 415.639 40.1567 414.587 40.6018C413.482 41.072 412.292 41.3122 411.09 41.3076C409.966 41.3254 408.846 41.1646 407.773 40.8312C406.867 40.5425 406.014 40.11 405.246 39.5501C404.544 39.0313 403.933 38.4006 403.436 37.6833C402.956 36.9944 402.574 36.2427 402.299 35.4494L407.427 34.7153C407.758 35.2489 408.194 35.7099 408.708 36.0705C409.409 36.5442 410.245 36.7759 411.09 36.7304C411.6 36.7434 412.107 36.6508 412.58 36.4582C413.052 36.2657 413.48 35.9775 413.836 35.6117C414.205 35.225 414.492 34.7679 414.681 34.2677C414.869 33.7674 414.955 33.2344 414.933 32.7003V30.6887H414.58C414.31 31.1779 413.951 31.6124 413.522 31.9698C413.071 32.3463 412.564 32.6489 412.018 32.8661C411.318 33.1394 410.571 33.2701 409.82 33.2508C408.76 33.251 407.715 33.0096 406.763 32.545C405.772 32.0668 404.878 31.4087 404.127 30.604C403.341 29.7594 402.714 28.7788 402.278 27.7102C401.804 26.5673 401.564 25.3408 401.572 24.1035C401.556 22.8641 401.789 21.6341 402.257 20.4862ZM413.864 21.072C413.494 20.6561 413.069 20.2928 412.6 19.9922C412.096 19.6602 411.503 19.488 410.899 19.4981C410.34 19.4844 409.784 19.5879 409.267 19.8018C408.749 20.0158 408.283 20.3354 407.896 20.7403C407.483 21.188 407.163 21.7135 406.956 22.286C406.748 22.8586 406.656 23.4669 406.686 24.0753C406.686 25.4657 407.089 26.5762 407.896 27.4067C408.282 27.8122 408.749 28.1325 409.266 28.3471C409.783 28.5616 410.34 28.6656 410.899 28.6524C411.501 28.6616 412.092 28.4961 412.6 28.176C413.07 27.8858 413.496 27.5292 413.864 27.1173C414.296 26.6508 414.654 26.1198 414.923 25.5433V22.6142C414.648 22.0504 414.292 21.5306 413.864 21.072Z" fill="#0C0C0C"/>
<path d="M423.642 18.3147C424.015 17.6475 424.527 17.0677 425.142 16.6137C425.89 16.0685 426.726 15.6533 427.612 15.3856C428.715 15.0496 429.865 14.8888 431.018 14.9092C432.033 14.8958 433.043 15.0569 434.003 15.3856C434.841 15.6756 435.631 16.0896 436.347 16.6137C436.995 17.0928 437.569 17.6662 438.048 18.3147C438.484 18.8947 438.83 19.5371 439.075 20.2204L434.314 20.9545C434.031 20.4881 433.658 20.0826 433.216 19.7616C432.578 19.3042 431.802 19.0789 431.018 19.1229C430.391 19.0886 429.773 19.2829 429.278 19.6699C429.097 19.7958 428.946 19.9596 428.836 20.1497C428.725 20.3398 428.656 20.5518 428.636 20.7709C428.636 21.1591 428.893 21.4767 429.405 21.7026C430.033 21.974 430.682 22.1947 431.346 22.3625C432.129 22.5719 432.966 22.8072 433.855 23.0683C434.732 23.3174 435.574 23.673 436.364 24.1271C437.132 24.5676 437.794 25.1697 438.305 25.8916C438.846 26.7101 439.115 27.6782 439.075 28.6583C439.065 29.3252 438.889 29.9791 438.563 30.5605C438.183 31.2361 437.658 31.8185 437.024 32.265C436.237 32.8154 435.364 33.2305 434.441 33.4932C433.269 33.8291 432.053 33.9897 430.834 33.9696C429.711 33.9875 428.593 33.8267 427.52 33.4932C426.618 33.2053 425.766 32.7791 424.994 32.2298C424.295 31.7271 423.682 31.1145 423.18 30.4158C422.708 29.7641 422.326 29.0519 422.043 28.2984L427.171 27.5679C427.47 28.1642 427.902 28.6835 428.435 29.0854C429.135 29.5754 429.981 29.8142 430.834 29.7629C431.764 29.7629 432.453 29.5806 432.902 29.2159C433.09 29.0948 433.249 28.9329 433.366 28.7424C433.483 28.5518 433.556 28.3374 433.58 28.1149C433.58 27.7267 433.326 27.4091 432.811 27.1832C432.183 26.9107 431.533 26.69 430.87 26.5233C430.091 26.3139 429.254 26.0786 428.36 25.8175C427.485 25.5678 426.644 25.2122 425.855 24.7588C425.087 24.3192 424.424 23.7169 423.914 22.9942C423.371 22.1764 423.102 21.2078 423.144 20.2275C423.147 19.5582 423.318 18.9004 423.642 18.3147Z" fill="#0C0C0C"/>
<path d="M446.387 33.1845C445.236 32.692 444.187 31.9895 443.292 31.1129C442.413 30.2463 441.706 29.2214 441.207 28.0921C440.691 26.9401 440.429 25.6909 440.438 24.4289C440.434 23.1742 440.696 21.9329 441.207 20.7869C441.702 19.6503 442.41 18.6189 443.292 17.7484C444.187 16.8719 445.236 16.1693 446.387 15.6769C447.573 15.1644 448.851 14.9025 450.142 14.9075C451.434 14.9029 452.712 15.1648 453.897 15.6769C455.047 16.1694 456.096 16.872 456.989 17.7484C457.873 18.6187 458.582 19.6501 459.078 20.7869C459.587 21.9335 459.849 23.1744 459.847 24.4289C459.854 25.6907 459.591 26.9395 459.078 28.0921C458.578 29.2216 457.869 30.2465 456.989 31.1129C456.096 31.9894 455.047 32.6919 453.897 33.1845C452.712 33.6965 451.434 33.9584 450.142 33.9538C448.851 33.9589 447.573 33.6969 446.387 33.1845ZM451.879 28.9884C452.434 28.7385 452.932 28.3783 453.343 27.9297C453.765 27.4643 454.105 26.931 454.349 26.3522C454.608 25.7445 454.739 25.0897 454.734 24.4289C454.739 23.7693 454.608 23.1158 454.349 22.5091C454.105 21.9304 453.765 21.3971 453.343 20.9316C452.931 20.4844 452.433 20.1244 451.879 19.8729C451.339 19.6239 450.751 19.494 450.157 19.4918C449.562 19.4936 448.974 19.6236 448.434 19.8729C447.88 20.1244 447.382 20.4844 446.97 20.9316C446.546 21.3953 446.205 21.929 445.964 22.5091C445.705 23.1158 445.574 23.7693 445.579 24.4289C445.574 25.0897 445.705 25.7445 445.964 26.3522C446.205 26.9323 446.546 27.4661 446.97 27.9297C447.381 28.3783 447.879 28.7385 448.434 28.9884C448.974 29.2404 449.561 29.3717 450.157 29.3731C450.752 29.3714 451.339 29.2401 451.879 28.9884Z" fill="#0C0C0C"/>
<path d="M472.889 27.544L476.812 16.8326C476.85 16.7282 476.867 16.6172 476.862 16.5061C476.856 16.395 476.829 16.2861 476.781 16.1858C476.733 16.0855 476.665 15.9958 476.582 15.9221C476.499 15.8484 476.401 15.7921 476.296 15.7565L466.382 12.4199C466.192 12.3577 466.031 12.2296 465.928 12.0589C465.825 11.8882 465.787 11.6863 465.82 11.4897C465.853 11.2931 465.956 11.115 466.109 10.9876C466.263 10.8603 466.457 10.7923 466.656 10.7958L486.011 10.967C486.166 10.9691 486.317 11.0141 486.448 11.0971C486.578 11.1801 486.683 11.2978 486.751 11.437C486.819 11.5762 486.847 11.7314 486.832 11.8855C486.816 12.0396 486.759 12.1865 486.665 12.3097L474.337 28.3541C474.22 28.5264 474.042 28.6484 473.84 28.6963C473.637 28.7441 473.423 28.7142 473.242 28.6125C473.06 28.5108 472.923 28.3447 472.857 28.1469C472.792 27.9491 472.803 27.734 472.889 27.544Z" fill="#0C0C0C"/>
<path d="M472.761 19.995L468.837 30.7098C468.799 30.8143 468.782 30.9253 468.787 31.0364C468.792 31.1475 468.82 31.2564 468.868 31.3567C468.916 31.457 468.984 31.5466 469.067 31.6204C469.15 31.6941 469.247 31.7504 469.353 31.7859L479.267 35.1226C479.457 35.1848 479.617 35.3128 479.72 35.4835C479.823 35.6542 479.862 35.8562 479.829 36.0528C479.795 36.2494 479.693 36.4275 479.539 36.5548C479.386 36.6821 479.192 36.7502 478.993 36.7466L459.647 36.5847C459.492 36.5826 459.341 36.5375 459.21 36.4545C459.079 36.3716 458.974 36.2539 458.906 36.1147C458.838 35.9755 458.811 35.8202 458.826 35.6661C458.841 35.512 458.899 35.3652 458.993 35.242L471.32 19.201C471.442 19.0444 471.615 18.9363 471.809 18.8963C472.004 18.8562 472.206 18.8868 472.379 18.9825C472.553 19.0782 472.687 19.2328 472.757 19.4184C472.827 19.604 472.828 19.8085 472.761 19.995Z" fill="#0C0C0C"/>
<line x1="269.369" y1="1.46029e-08" x2="269.369" y2="45.2763" stroke="#0C0C0C" stroke-width="0.668153"/>
</svg>
