<svg width="60" height="60" viewBox="0 0 60 60" fill="none" xmlns="http://www.w3.org/2000/svg">
<g id="Group 1000004310">
<path id="Vector" d="M53.9998 9.00005C53.9993 8.40709 53.823 7.82758 53.4934 7.33472C53.1637 6.84186 52.6954 6.45775 52.1475 6.2309C51.5996 6.00405 50.9969 5.94465 50.4153 6.06019C49.8337 6.17572 49.2993 6.46102 48.8798 6.88005L44.8798 10.88C44.318 11.4425 44.0024 12.205 44.0024 13C44.0024 13.7951 44.318 14.5575 44.8798 15.12C45.4509 15.6653 46.2102 15.9696 46.9998 15.9696C47.7894 15.9696 48.5487 15.6653 49.1198 15.12L53.1198 11.12C53.6826 10.558 53.9991 9.79543 53.9998 9.00005Z" fill="black"/>
<path id="Vector_2" d="M32 0C31.2044 0 30.4413 0.31607 29.8787 0.878679C29.3161 1.44129 29 2.20435 29 3V8C29 8.79565 29.3161 9.55871 29.8787 10.1213C30.4413 10.6839 31.2044 11 32 11C32.7956 11 33.5587 10.6839 34.1213 10.1213C34.6839 9.55871 35 8.79565 35 8V3C35 2.20435 34.6839 1.44129 34.1213 0.878679C33.5587 0.31607 32.7956 0 32 0Z" fill="black"/>
<path id="Vector_3" d="M57 25H52C51.2044 25 50.4413 25.3161 49.8787 25.8787C49.3161 26.4413 49 27.2044 49 28C49 28.7956 49.3161 29.5587 49.8787 30.1213C50.4413 30.6839 51.2044 31 52 31H57C57.7956 31 58.5587 30.6839 59.1213 30.1213C59.6839 29.5587 60 28.7956 60 28C60 27.2044 59.6839 26.4413 59.1213 25.8787C58.5587 25.3161 57.7956 25 57 25Z" fill="black"/>
<path id="Vector_4" d="M13.2 51.0001L15.74 56.0901C16.3623 57.3354 17.3419 58.3669 18.5534 59.0527C19.7649 59.7385 21.1534 60.0475 22.5414 59.9401C23.9294 59.8328 25.2539 59.314 26.3456 58.45C27.4373 57.5861 28.2466 56.4163 28.67 55.0901L35.67 33.0901C36.0582 31.8673 36.1029 30.5613 35.7992 29.3149C35.4955 28.0684 34.8551 26.9294 33.9479 26.0222C33.0407 25.115 31.9017 24.4746 30.6552 24.1709C29.4088 23.8672 28.1028 23.9119 26.88 24.3001L4.88 31.3001C3.54353 31.7206 2.36399 32.5324 1.49398 33.6306C0.623978 34.7289 0.103539 36.0629 0 37.4601C0 37.6401 0 37.8301 0 38.0101C0.000229882 39.31 0.362393 40.5841 1.04592 41.6897C1.72944 42.7954 2.70732 43.6889 3.87 44.2701L9 46.8001L0.92 54.8701C0.39008 55.4388 0.101586 56.191 0.115299 56.9682C0.129012 57.7454 0.443861 58.4869 0.993513 59.0366C1.54317 59.5862 2.28471 59.9011 3.06191 59.9148C3.83912 59.9285 4.5913 59.64 5.16 59.1101L13.2 51.0001ZM6.7 37.0001L28.7 30.0001C28.8817 29.9273 29.0808 29.9095 29.2726 29.9489C29.4643 29.9882 29.6403 30.083 29.7787 30.2214C29.9171 30.3598 30.0119 30.5358 30.0512 30.7275C30.0905 30.9193 30.0727 31.1184 30 31.3001L23 53.3001C22.9397 53.4902 22.8239 53.658 22.6675 53.7818C22.511 53.9056 22.3212 53.9798 22.1223 53.9948C21.9234 54.0099 21.7245 53.9651 21.5512 53.8663C21.378 53.7674 21.2383 53.619 21.15 53.4401L16.3 43.7401L6.6 38.8901C6.40642 38.8123 6.242 38.676 6.12978 38.5001C6.01756 38.3242 5.96315 38.1177 5.97417 37.9093C5.98519 37.701 6.0611 37.5013 6.19125 37.3383C6.3214 37.1753 6.49929 37.057 6.7 37.0001Z" fill="black"/>
<path id="Vector_5" d="M16 2.00004H13C10.0826 2.00004 7.28473 3.15896 5.22183 5.22186C3.15893 7.28476 2.00001 10.0827 2.00001 13V15.83C1.98073 16.5982 2.24558 17.3464 2.74381 17.9314C3.24203 18.5163 3.93859 18.8968 4.70001 19C5.11844 19.0421 5.54103 18.9957 5.94037 18.8639C6.33972 18.7321 6.70689 18.5178 7.01806 18.2349C7.32924 17.952 7.57746 17.6069 7.74662 17.2219C7.91579 16.8368 8.00211 16.4206 8.00001 16V13C8.00001 11.674 8.52679 10.4022 9.46447 9.4645C10.4022 8.52682 11.6739 8.00004 13 8.00004H15.83C16.5981 8.01931 17.3464 7.75446 17.9313 7.25623C18.5163 6.75801 18.8968 6.06145 19 5.30004C19.0421 4.88161 18.9957 4.45901 18.8639 4.05967C18.7321 3.66032 18.5178 3.29315 18.2349 2.98198C17.952 2.67081 17.6068 2.42259 17.2218 2.25342C16.8368 2.08426 16.4205 1.99793 16 2.00004Z" fill="black"/>
<path id="Vector_6" d="M50.9999 44.1699V46.9999C50.9999 48.326 50.4731 49.5978 49.5354 50.5354C48.5978 51.4731 47.326 51.9999 45.9999 51.9999H43.1699C42.4018 51.9806 41.6535 52.2455 41.0686 52.7437C40.4836 53.2419 40.1031 53.9385 39.9999 54.6999C39.9578 55.1183 40.0042 55.5409 40.136 55.9403C40.2679 56.3396 40.4822 56.7068 40.765 57.018C41.0479 57.3291 41.3931 57.5774 41.7781 57.7465C42.1631 57.9157 42.5794 58.002 42.9999 57.9999H45.9999C48.9173 57.9999 51.7152 56.841 53.7781 54.7781C55.841 52.7152 56.9999 49.9173 56.9999 46.9999V43.9999C57.002 43.5794 56.9157 43.1631 56.7465 42.7781C56.5774 42.3931 56.3291 42.0479 56.018 41.765C55.7068 41.4822 55.3396 41.2679 54.9403 41.136C54.5409 41.0042 54.1183 40.9578 53.6999 40.9999C52.9385 41.1031 52.2419 41.4836 51.7437 42.0686C51.2455 42.6535 50.9806 43.4018 50.9999 44.1699Z" fill="black"/>
</g>
</svg>
