<svg width="492" height="54" viewBox="0 0 492 54" fill="none" xmlns="http://www.w3.org/2000/svg">
<path d="M10.1486 37H0.738612L12.7624 18.1801L2.30694 0.405734H11.4555L18.2516 12.4296H18.7744L25.5704 0.405734H34.719L24.2635 18.1801L36.2873 37H26.8774L18.7744 23.9306H18.2516L10.1486 37ZM61.6378 28.3742C60.4355 31.5109 58.9194 33.9156 57.0374 35.5885C55.1554 37.2614 52.6984 38.0456 49.614 38.0456H45.4318V30.7267H49.614C50.6596 30.7267 51.4437 30.4653 52.0711 29.9425C52.6461 29.4198 53.1166 28.6356 53.5348 27.59L54.8418 23.9306H45.1704L36.0219 0.405734H44.3863L50.6596 16.6118H57.717L63.7289 0.405734H72.0933L61.6378 28.3742ZM76.5431 37V43.0119H68.44V29.6811H72.3609L79.4183 0.405734H97.9768L105.034 29.6811H108.955V43.0119H100.852V37H76.5431ZM85.953 7.72459L80.7253 29.6811H96.6699L91.4422 7.72459H85.953ZM118.385 0.405734H136.944L145.831 37H137.467L135.637 29.4198H119.692L117.863 37H109.498L118.385 0.405734ZM121.522 22.1009H133.807L130.409 7.72459H124.92L121.522 22.1009ZM155.756 0.405734H174.837L183.724 37H175.36L168.302 7.72459H162.29L155.233 37H146.869L155.756 0.405734ZM192.33 37V43.0119H184.227V29.6811H188.147L195.205 0.405734H213.763L220.821 29.6811H224.742V43.0119H216.639V37H192.33ZM201.74 7.72459L196.512 29.6811H212.456L207.229 7.72459H201.74ZM234.172 0.405734H252.731L261.618 37H253.253L251.424 29.4198H235.479L233.649 37H225.285L234.172 0.405734ZM237.309 22.1009H249.594L246.196 7.72459H240.707L237.309 22.1009ZM265.269 0.405734H273.372V15.3048H288.794V0.405734H296.897V37H288.794V22.6237H273.372V37H265.269V0.405734ZM319.378 0.405734H337.937L346.824 37H338.46L336.63 29.4198H320.685L318.856 37H310.491L319.378 0.405734ZM322.515 22.1009H334.8L331.402 7.72459H325.913L322.515 22.1009ZM367.465 0.405734C369.243 0.405734 370.811 0.719401 372.275 1.24218C373.739 1.76495 374.941 2.49684 375.987 3.38555C377.032 4.27427 377.816 5.26754 378.391 6.36537C378.914 7.51548 379.228 8.66558 379.228 9.81569C379.228 11.0703 378.966 12.1159 378.496 12.9001C378.025 13.7365 377.503 14.3638 376.98 14.8343C376.353 15.4094 375.621 15.8276 374.784 16.089V16.6118C376.353 16.9254 377.816 17.5005 379.071 18.2846C379.594 18.6506 380.117 19.0688 380.639 19.5393C381.162 20.0098 381.633 20.5326 382.051 21.1599C382.469 21.7872 382.783 22.5191 383.044 23.3033C383.253 24.1397 383.41 25.0284 383.41 26.0217C383.41 27.5378 383.096 28.9493 382.469 30.3085C381.842 31.6677 381.005 32.8178 379.855 33.8111C378.705 34.8043 377.346 35.5885 375.673 36.1636C374 36.7386 372.17 37 370.079 37H350.475V0.405734H367.465ZM370.079 29.6811C371.648 29.6811 372.85 29.3152 373.739 28.4788C374.575 27.6946 375.046 26.7013 375.046 25.4989C375.046 24.3488 374.575 23.3556 373.739 22.5191C372.85 21.735 371.648 21.3167 370.079 21.3167H358.578V29.6811H370.079ZM358.578 7.72459V13.9979H367.465C368.511 13.9979 369.295 13.7365 369.922 13.1092C370.55 12.5341 370.863 11.8022 370.863 10.8612C370.863 9.97252 370.55 9.24064 369.922 8.6133C369.295 8.03825 368.511 7.72459 367.465 7.72459H358.578ZM393.864 0.405734H412.422L421.309 37H412.945L411.115 29.4198H395.17L393.341 37H384.976L393.864 0.405734ZM397 22.1009H409.285L405.887 7.72459H400.398L397 22.1009ZM431.234 0.405734H450.315L459.202 37H450.838L443.78 7.72459H437.768L430.711 37H422.347L431.234 0.405734ZM456.041 7.72459V0.405734H487.146V7.72459H475.645V37H467.542V7.72459H456.041ZM481.388 33.8633C481.388 32.7132 481.753 31.72 482.59 30.8835C483.374 30.0994 484.367 29.6811 485.57 29.6811C486.72 29.6811 487.713 30.0994 488.55 30.8835C489.334 31.72 489.752 32.7132 489.752 33.8633C489.752 34.2816 489.7 34.5952 489.595 34.9089C489.491 35.2226 489.438 35.5362 489.334 35.7453L488.968 36.4772L484.786 42.2278H481.649L483.479 37.5228C483.06 37.3137 482.747 37.0523 482.433 36.6863C482.119 36.4249 481.91 36.059 481.701 35.5885C481.492 35.118 481.388 34.543 481.388 33.8633Z" fill="white"/>
</svg>
