<svg width="446" height="46" viewBox="0 0 446 46" fill="none" xmlns="http://www.w3.org/2000/svg">
<path d="M32.8101 26.9762C32.8101 28.7013 32.4442 30.2697 31.8168 31.7334C31.1895 33.1972 30.2485 34.5041 29.0461 35.5497C27.8437 36.6475 26.38 37.484 24.6548 38.1113C22.8774 38.7386 20.9431 39 18.7474 39H0.136651V2.40573H29.1507V9.72459H8.23967V14.9523H18.7474C20.9431 14.9523 22.8774 15.266 24.6548 15.8933C26.38 16.5207 27.8437 17.3571 29.0461 18.4027C30.2485 19.5005 31.1895 20.7551 31.8168 22.2189C32.4442 23.6827 32.8101 25.3033 32.8101 26.9762ZM18.6952 31.6811C20.5249 31.6811 21.9364 31.2629 22.9297 30.3219C23.9229 29.4332 24.4457 28.3354 24.4457 26.9762C24.4457 25.6692 23.9229 24.5714 22.9297 23.6304C21.9364 22.7417 20.5249 22.2712 18.6952 22.2712H8.23967V31.6811H18.6952ZM58.4547 30.3742C57.2523 33.5109 55.7362 35.9156 53.8543 37.5885C51.9723 39.2614 49.5152 40.0456 46.4308 40.0456H42.2486V32.7267H46.4308C47.4764 32.7267 48.2606 32.4653 48.8879 31.9425C49.4629 31.4198 49.9334 30.6356 50.3517 29.59L51.6586 25.9306H41.9873L32.8387 2.40573H41.2031L47.4764 18.6118H54.5339L60.5458 2.40573H68.9102L58.4547 30.3742ZM72.0693 39V2.40573H80.1723V31.6811H94.5486V2.40573H102.652V31.6811H106.834V45.0119H98.7308V39H72.0693ZM116.785 2.40573H135.343L144.231 39H135.866L134.037 31.4198H118.092L116.262 39H107.898L116.785 2.40573ZM119.922 24.1009H132.207L128.809 9.72459H123.32L119.922 24.1009ZM154.155 2.40573H172.714L181.601 39H173.237L171.407 31.4198H155.462L153.632 39H145.268L154.155 2.40573ZM157.292 24.1009H169.577L166.179 9.72459H160.69L157.292 24.1009ZM185.252 2.40573H193.355V17.3048H208.777V2.40573H216.88V39H208.777V24.6237H193.355V39H185.252V2.40573ZM239.623 20.7029C239.623 22.4803 239.936 24.1532 240.564 25.6692C241.191 27.1853 242.08 28.4922 243.178 29.6423C244.276 30.7924 245.53 31.6811 246.994 32.3085C248.458 32.9358 249.974 33.2495 251.647 33.2495C253.267 33.2495 254.783 32.9358 256.247 32.3085C257.711 31.6811 258.966 30.7924 260.063 29.6423C261.161 28.4922 262.05 27.1853 262.677 25.6692C263.305 24.1532 263.67 22.4803 263.67 20.7029C263.67 18.9254 263.305 17.3048 262.677 15.7888C262.05 14.2727 261.161 12.9658 260.063 11.8157C258.966 10.6656 257.711 9.77687 256.247 9.14953C254.783 8.52221 253.267 8.15626 251.647 8.15626C249.974 8.15626 248.458 8.52221 246.994 9.14953C245.53 9.77687 244.276 10.6656 243.178 11.8157C242.08 12.9658 241.191 14.2727 240.564 15.7888C239.936 17.3048 239.623 18.9254 239.623 20.7029ZM271.774 20.7029C271.774 23.4736 271.251 26.0352 270.205 28.4399C269.16 30.8447 267.696 32.9881 265.918 34.7655C264.089 36.543 261.945 37.9544 259.541 39C257.084 40.0456 254.47 40.5683 251.647 40.5683C248.824 40.5683 246.158 40.0456 243.753 39C241.296 37.9544 239.152 36.543 237.375 34.7655C235.545 32.9881 234.134 30.8447 233.088 28.4399C232.043 26.0352 231.52 23.4736 231.52 20.7029C231.52 17.9844 232.043 15.3706 233.088 12.9658C234.134 10.561 235.545 8.46993 237.375 6.69249C239.152 4.91506 241.296 3.45129 243.753 2.40573C246.158 1.36018 248.824 0.83741 251.647 0.83741C254.47 0.83741 257.084 1.36018 259.541 2.40573C261.945 3.45129 264.089 4.91506 265.918 6.69249C267.696 8.46993 269.16 10.561 270.205 12.9658C271.251 15.3706 271.774 17.9844 271.774 20.7029ZM281.173 2.40573H300.255L309.142 39H300.777L293.72 9.72459H287.708L280.65 39H272.286L281.173 2.40573ZM320.884 9.72459V39H312.781V2.40573H339.181V9.72459H320.884ZM347.854 20.7029C347.854 22.4803 348.167 24.1532 348.795 25.6692C349.422 27.1853 350.311 28.4922 351.408 29.6423C352.506 30.7924 353.761 31.6811 355.225 32.3085C356.689 32.9358 358.205 33.2495 359.877 33.2495C361.498 33.2495 363.014 32.9358 364.478 32.3085C365.942 31.6811 367.196 30.7924 368.294 29.6423C369.392 28.4922 370.281 27.1853 370.908 25.6692C371.535 24.1532 371.901 22.4803 371.901 20.7029C371.901 18.9254 371.535 17.3048 370.908 15.7888C370.281 14.2727 369.392 12.9658 368.294 11.8157C367.196 10.6656 365.942 9.77687 364.478 9.14953C363.014 8.52221 361.498 8.15626 359.877 8.15626C358.205 8.15626 356.689 8.52221 355.225 9.14953C353.761 9.77687 352.506 10.6656 351.408 11.8157C350.311 12.9658 349.422 14.2727 348.795 15.7888C348.167 17.3048 347.854 18.9254 347.854 20.7029ZM380.004 20.7029C380.004 23.4736 379.482 26.0352 378.436 28.4399C377.39 30.8447 375.927 32.9881 374.149 34.7655C372.32 36.543 370.176 37.9544 367.771 39C365.314 40.0456 362.7 40.5683 359.877 40.5683C357.054 40.5683 354.388 40.0456 351.984 39C349.527 37.9544 347.383 36.543 345.606 34.7655C343.776 32.9881 342.364 30.8447 341.319 28.4399C340.273 26.0352 339.751 23.4736 339.751 20.7029C339.751 17.9844 340.273 15.3706 341.319 12.9658C342.364 10.561 343.776 8.46993 345.606 6.69249C347.383 4.91506 349.527 3.45129 351.984 2.40573C354.388 1.36018 357.054 0.83741 359.877 0.83741C362.7 0.83741 365.314 1.36018 367.771 2.40573C370.176 3.45129 372.32 4.91506 374.149 6.69249C375.927 8.46993 377.39 10.561 378.436 12.9658C379.482 15.3706 380.004 17.9844 380.004 20.7029ZM389.404 2.40573H408.485L417.373 39H409.008L401.951 9.72459H395.939L388.881 39H380.517L389.404 2.40573ZM414.211 9.72459V2.40573H445.316V9.72459H433.815V39H425.712V9.72459H414.211Z" fill="#FA6913"/>
</svg>
