<svg width="42" height="42" viewBox="0 0 42 42" fill="none" xmlns="http://www.w3.org/2000/svg">
<g clip-path="url(#clip0_128_486)">
<path d="M30.7212 19.4951C30.5437 19.41 30.3634 19.3281 30.1807 19.2497C29.8625 13.3876 26.6594 10.0315 21.2809 9.99719C21.2566 9.99704 21.2323 9.99704 21.208 9.99704C17.9909 9.99704 15.3154 11.3702 13.6686 13.869L16.6266 15.8981C17.8568 14.0316 19.7875 13.6337 21.2094 13.6337C21.2258 13.6337 21.2423 13.6337 21.2585 13.6339C23.0295 13.6452 24.3658 14.1601 25.2307 15.1642C25.8602 15.8952 26.2811 16.9054 26.4896 18.1803C24.9194 17.9134 23.2214 17.8314 21.4061 17.9355C16.2925 18.23 13.0051 21.2124 13.2259 25.3565C13.3379 27.4585 14.3851 29.267 16.1745 30.4483C17.6874 31.447 19.6359 31.9354 21.661 31.8248C24.3353 31.6782 26.4333 30.6578 27.897 28.7921C29.0086 27.3753 29.7116 25.5391 30.022 23.2256C31.2966 23.9948 32.2411 25.007 32.7628 26.2237C33.6498 28.2921 33.7015 31.6911 30.9282 34.4621C28.4983 36.8896 25.5774 37.9398 21.1632 37.9722C16.2666 37.9359 12.5634 36.3656 10.1557 33.3048C7.90107 30.4387 6.73586 26.2989 6.69239 21.0003C6.73586 15.7017 7.90107 11.5619 10.1557 8.69577C12.5634 5.63499 16.2666 4.06467 21.1631 4.02829C26.0952 4.06495 29.863 5.64283 32.3628 8.71837C33.5886 10.2266 34.5128 12.1233 35.122 14.3347L38.5884 13.4099C37.8499 10.6878 36.6879 8.3422 35.1066 6.39689C31.9017 2.45391 27.2145 0.433495 21.1752 0.391602H21.151C15.124 0.433349 10.4893 2.46144 7.37572 6.4195C4.60505 9.94167 3.17586 14.8425 3.12784 20.9858L3.12769 21.0003L3.12784 21.0148C3.17586 27.158 4.60505 32.059 7.37572 35.5812C10.4893 39.5391 15.124 41.5673 21.151 41.609H21.1752C26.5336 41.5719 30.3106 40.169 33.422 37.0603C37.4929 32.9933 37.3703 27.8954 36.0286 24.7659C35.066 22.5217 33.2308 20.6989 30.7212 19.4951ZM21.4695 28.1934C19.2283 28.3196 16.9 27.3136 16.7852 25.159C16.7001 23.5614 17.9221 21.7787 21.6071 21.5664C22.0291 21.542 22.4432 21.5301 22.85 21.5301C24.1885 21.5301 25.4407 21.6601 26.5791 21.909C26.1545 27.2119 23.6638 28.0729 21.4695 28.1934Z" fill="white"/>
</g>
<defs>
<clipPath id="clip0_128_486">
<rect width="41.2174" height="41.2174" fill="white" transform="translate(0.336914 0.391602)"/>
</clipPath>
</defs>
</svg>
