<svg width="333" height="32" viewBox="0 0 333 32" fill="none" xmlns="http://www.w3.org/2000/svg">
<path d="M20.2199 1.8374L27.0081 13.5773L33.7962 25.3173H28.3698C25.667 20.6131 22.9435 15.9295 20.2406 11.2252L15.4332 19.5608H10.0068L13.4525 13.5773L20.2406 1.8374H20.2199ZM20.2199 13.3504L23.6656 19.3338L30.4537 31.0738H3.34248L6.04535 26.3696H22.3245L17.5171 18.034L20.2199 13.3298V13.3504ZM13.5763 1.8374L16.2791 6.54163L13.5763 11.2459L12.2764 13.4742L8.14988 20.6337H17.7647L20.4675 25.3379H0L6.78812 13.598L13.5763 1.85804V1.8374Z" fill="#008739"/>
<path d="M140.251 22.8389V10.0673H143.82V15.4318L147.678 10.0673H151.867L147.018 16.2571L151.991 22.8389H147.513L143.8 17.3506V22.8389H140.23H140.251ZM126.076 22.8389V10.0673H129.831L134.494 17.5982V10.0673H137.94V22.8389H134.226L129.501 15.1842V22.8389H126.055H126.076ZM118.36 12.9971L116.895 17.8252H119.824L118.36 12.9971ZM111.633 22.8389L116.172 10.0673H120.526L125.044 22.8389H121.207L120.505 20.6312H116.152L115.45 22.8389H111.613H111.633ZM104.123 20.2804H105.774C107.053 20.2804 107.692 19.8265 107.692 18.9187C107.692 18.0728 107.053 17.6395 105.774 17.6395H104.123V20.2598V20.2804ZM104.123 15.1017H105.629C106.723 15.1017 107.259 14.7096 107.259 13.905C107.259 13.5336 107.135 13.2241 106.867 12.9971C106.599 12.7496 106.186 12.6258 105.609 12.6258H104.102V15.1017H104.123ZM100.554 10.0673H106.743C107.775 10.0673 108.559 10.253 109.137 10.6038C109.694 10.9545 110.086 11.3672 110.272 11.8623C110.478 12.3575 110.56 12.8321 110.56 13.3273C110.56 13.9669 110.375 14.5033 110.003 14.9779C109.632 15.4524 109.157 15.7825 108.58 16.0095V16.0508C109.219 16.2158 109.838 16.5459 110.416 17.0411C110.994 17.5363 111.262 18.2997 111.262 19.3313C111.262 19.9503 111.117 20.5074 110.829 21.0439C110.56 21.6009 110.086 22.0342 109.467 22.385C108.848 22.7357 108.043 22.9008 107.094 22.9008H100.554V10.1292V10.0673ZM84.749 19.7646H85.141C86.0282 19.7646 86.8535 19.5377 87.6169 19.0838C88.3597 18.6505 88.7311 17.7633 88.7311 16.4428C88.7311 15.308 88.401 14.4621 87.7614 13.9256C87.1218 13.3892 86.2552 13.1209 85.141 13.1209H84.749V19.7646ZM81.1796 22.8389V10.0673H85.8632C87.3487 10.0673 88.5661 10.3149 89.4739 10.8307C90.3817 11.3465 91.042 11.9655 91.4546 12.667C91.8879 13.3892 92.1561 14.07 92.2593 14.7096C92.3624 15.3493 92.4243 15.927 92.4243 16.4428C92.4243 17.2887 92.3006 18.0934 92.053 18.8568C91.8054 19.6202 91.4134 20.3011 90.8769 20.8994C90.3405 21.4978 89.6596 21.9723 88.8136 22.3231C87.9677 22.6738 86.9773 22.8389 85.8425 22.8389H81.159H81.1796ZM72.5551 15.4318H79.4258C79.4464 15.7413 79.4671 16.0301 79.4671 16.319C79.4671 17.3713 79.302 18.4235 78.9719 19.4345C78.6211 20.4661 77.9815 21.3533 77.0324 22.0755C76.0833 22.8183 74.7628 23.1896 73.071 23.1896C72.1219 23.1896 71.214 23.0452 70.3681 22.777C69.5222 22.4881 68.7588 22.0549 68.1191 21.4978C67.4589 20.9201 66.9431 20.2186 66.5923 19.3726C66.2209 18.5267 66.0353 17.5776 66.0353 16.5253C66.0353 15.4731 66.1797 14.5858 66.4892 13.7399C66.7987 12.894 67.2526 12.1718 67.8509 11.5735C68.4493 10.9751 69.1714 10.5006 69.9967 10.1705C70.8427 9.84035 71.7711 9.67529 72.8027 9.67529C73.463 9.67529 74.082 9.73719 74.7009 9.88162C75.2993 10.0054 75.8357 10.1911 76.3309 10.4387C76.8261 10.6863 77.28 11.0164 77.6927 11.4084C78.1053 11.8005 78.4561 12.2544 78.7243 12.7702L75.5675 14.2557C75.3199 13.7812 74.9485 13.4098 74.4946 13.1416C74.0407 12.8733 73.5042 12.7495 72.8853 12.7495C72.452 12.7495 72.0187 12.8321 71.6267 12.9765C71.214 13.1416 70.8633 13.3685 70.5744 13.6987C70.2649 14.0081 70.038 14.4002 69.8523 14.8747C69.6872 15.3493 69.6047 15.8857 69.6047 16.4634C69.6047 17.2681 69.7491 17.9696 70.038 18.5679C70.3475 19.1663 70.7601 19.6202 71.2759 19.9091C71.7917 20.2186 72.3695 20.3836 73.0091 20.3836C73.7312 20.3836 74.3502 20.1979 74.866 19.8059C75.3818 19.4139 75.7119 18.8981 75.8564 18.2378H72.5345V15.4318H72.5551ZM58.0092 20.136C58.5044 20.136 58.9995 20.0122 59.4947 19.7646C59.9899 19.517 60.3819 19.125 60.712 18.5679C61.0215 18.0109 61.1866 17.3094 61.1866 16.4428C61.1866 15.5762 61.0215 14.8747 60.712 14.3176C60.3819 13.7605 59.9693 13.3685 59.4947 13.1416C58.9995 12.894 58.525 12.7702 58.0092 12.7702C57.4934 12.7702 57.0394 12.894 56.5443 13.1416C56.0491 13.3892 55.6364 13.7812 55.3269 14.3383C54.9968 14.8953 54.8317 15.5969 54.8317 16.4428C54.8317 17.7014 55.1619 18.6298 55.8221 19.2282C56.4824 19.8265 57.2045 20.136 58.0092 20.136ZM58.0092 23.2103C56.9363 23.2103 55.9459 23.0246 55.0793 22.6738C54.2128 22.3231 53.4906 21.8279 52.9129 21.1883C52.3352 20.5693 51.8813 19.8472 51.5924 19.0425C51.3036 18.2378 51.1591 17.3713 51.1591 16.4428C51.1591 15.5143 51.3036 14.689 51.5924 13.8637C51.8813 13.0384 52.3146 12.3163 52.9129 11.6973C53.4906 11.0577 54.2128 10.5831 55.0587 10.2324C55.9253 9.88162 56.895 9.69593 58.0092 9.69593C59.1233 9.69593 60.0931 9.88162 60.9596 10.2324C61.8262 10.6038 62.5483 11.0989 63.1054 11.6973C63.6831 12.3163 64.1371 13.0384 64.4259 13.8637C64.7148 14.6684 64.8592 15.535 64.8592 16.4428C64.8592 17.3506 64.7148 18.2172 64.4259 19.0425C64.1371 19.8472 63.7038 20.5693 63.1054 21.1883C62.5277 21.8073 61.8056 22.3024 60.9596 22.6532C60.0931 23.0246 59.1027 23.2103 58.0092 23.2103ZM42.9267 20.2804H44.5773C45.8566 20.2804 46.4962 19.8265 46.4962 18.9187C46.4962 18.0728 45.8566 17.6395 44.5773 17.6395H42.9267V20.2598V20.2804ZM42.9267 15.1017H44.4329C45.5264 15.1017 46.0629 14.7096 46.0629 13.905C46.0629 13.5336 45.9391 13.2241 45.6709 12.9971C45.4027 12.7496 44.99 12.6258 44.4123 12.6258H42.9061V15.1017H42.9267ZM39.3573 10.0673H45.5471C46.5787 10.0673 47.3627 10.253 47.9405 10.6038C48.4975 10.9545 48.8896 11.3672 49.0753 11.8623C49.2816 12.3575 49.3641 12.8321 49.3641 13.3273C49.3641 13.9669 49.1784 14.5033 48.807 14.9779C48.4356 15.4524 47.9611 15.7825 47.3834 16.0095V16.0508C48.023 16.2158 48.642 16.5459 49.2197 17.0411C49.7974 17.5363 50.0656 18.2997 50.0656 19.3313C50.0656 19.9503 49.9212 20.5074 49.6323 21.0439C49.3641 21.6009 48.8896 22.0342 48.2706 22.385C47.6516 22.7357 46.8469 22.9008 45.8978 22.9008H39.3573V10.1292V10.0673Z" fill="#0C0C0C"/>
<path d="M207.434 6.02002H221.849V9.52624H216.582V22.8248H212.699V9.52624H207.431L207.434 6.02002Z" fill="#0C0C0C"/>
<path d="M221.996 12.6384C222.252 12.1815 222.602 11.7849 223.024 11.4752C223.532 11.1034 224.099 10.8195 224.701 10.6355C225.456 10.4059 226.241 10.296 227.03 10.3097C227.724 10.3001 228.415 10.4103 229.071 10.6355C229.645 10.8333 230.185 11.1164 230.674 11.4752C231.117 11.8035 231.51 12.1954 231.839 12.6384C232.136 13.0355 232.372 13.4747 232.539 13.9414L229.284 14.4434C229.09 14.1245 228.835 13.8472 228.533 13.6277C228.097 13.3148 227.566 13.1607 227.03 13.191C226.601 13.168 226.179 13.3008 225.84 13.565C225.717 13.6511 225.614 13.7631 225.539 13.8932C225.463 14.0232 225.417 14.1682 225.403 14.3179C225.403 14.5833 225.577 14.8005 225.93 14.9549C226.359 15.1413 226.803 15.2922 227.257 15.4062C227.791 15.5494 228.362 15.7102 228.97 15.8888C229.569 16.0591 230.146 16.3022 230.686 16.6127C231.211 16.9133 231.664 17.3251 232.013 17.8193C232.384 18.3785 232.568 19.0408 232.539 19.7111C232.534 20.1672 232.413 20.6146 232.189 21.0118C231.93 21.4743 231.571 21.8726 231.137 22.1773C230.6 22.5536 230.004 22.8374 229.373 23.0171C228.571 23.247 227.739 23.3568 226.904 23.3428C226.137 23.3551 225.372 23.2451 224.639 23.0171C224.021 22.8202 223.439 22.5288 222.911 22.1532C222.434 21.8088 222.015 21.39 221.67 20.9128C221.349 20.4671 221.088 19.9801 220.896 19.465L224.402 18.9655C224.606 19.3737 224.901 19.729 225.266 20.0031C225.744 20.3382 226.322 20.5015 226.904 20.4664C227.54 20.4664 228.012 20.3417 228.321 20.0924C228.45 20.0095 228.558 19.8989 228.638 19.7686C228.718 19.6383 228.768 19.4917 228.784 19.3395C228.784 19.0741 228.608 18.8569 228.258 18.7025C227.829 18.5168 227.385 18.366 226.931 18.2512C226.395 18.108 225.823 17.9472 225.215 17.7686C224.616 17.5983 224.04 17.3552 223.5 17.0447C222.975 16.7435 222.522 16.3318 222.172 15.8381C221.803 15.2784 221.619 14.6165 221.646 13.9463C221.652 13.488 221.772 13.0384 221.996 12.6384Z" fill="#0C0C0C"/>
<path d="M237.554 22.806C236.766 22.4699 236.049 21.9895 235.438 21.3895C234.836 20.7971 234.351 20.0963 234.009 19.3239C233.658 18.5358 233.478 17.682 233.483 16.8192C233.481 15.9613 233.661 15.1128 234.009 14.3288C234.348 13.5515 234.833 12.8463 235.438 12.2512C236.049 11.6513 236.766 11.1708 237.554 10.8347C238.363 10.4843 239.237 10.3052 240.119 10.3086C241.002 10.3052 241.876 10.4843 242.686 10.8347C243.474 11.1708 244.192 11.6513 244.803 12.2512C245.406 12.8464 245.89 13.5516 246.229 14.3288C246.578 15.1125 246.757 15.9612 246.755 16.8192C246.761 17.6821 246.581 18.5362 246.229 19.3239C245.888 20.0962 245.404 20.797 244.803 21.3895C244.192 21.9895 243.474 22.4699 242.686 22.806C241.876 23.1564 241.002 23.3355 240.119 23.3321C239.237 23.3355 238.363 23.1564 237.554 22.806ZM241.297 19.9369C241.676 19.7659 242.017 19.5196 242.298 19.2129C242.588 18.8954 242.821 18.5306 242.988 18.1343C243.163 17.7182 243.252 17.2707 243.249 16.8192C243.252 16.3684 243.163 15.9218 242.988 15.5064C242.821 15.1101 242.588 14.7453 242.298 14.4278C242.016 14.122 241.675 13.8758 241.297 13.7039C240.927 13.5334 240.526 13.4445 240.119 13.4432C239.713 13.4445 239.312 13.5334 238.944 13.7039C238.564 13.8751 238.222 14.1214 237.94 14.4278C237.652 14.746 237.419 15.1107 237.252 15.5064C237.075 15.9213 236.986 16.3681 236.989 16.8192C236.985 17.271 237.075 17.7187 237.252 18.1343C237.419 18.53 237.652 18.8947 237.94 19.2129C238.222 19.5202 238.563 19.7666 238.944 19.9369C239.312 20.1092 239.713 20.199 240.119 20.1999C240.522 20.1972 240.919 20.1075 241.284 19.9369H241.297Z" fill="#0C0C0C"/>
<path d="M248.841 5.12536C249.027 4.93705 249.25 4.78891 249.495 4.69011C249.74 4.59132 250.003 4.54398 250.268 4.55105C250.532 4.54365 250.796 4.59081 251.042 4.68961C251.287 4.78841 251.51 4.93675 251.696 5.12536C251.885 5.31113 252.034 5.53382 252.133 5.77959C252.232 6.02537 252.28 6.28894 252.273 6.55389C252.28 6.81844 252.232 7.08156 252.133 7.32689C252.033 7.57223 251.885 7.79455 251.696 7.98004C251.51 8.16908 251.288 8.31786 251.042 8.41708C250.796 8.51631 250.532 8.56385 250.268 8.55677C250.003 8.56352 249.74 8.5158 249.495 8.41658C249.249 8.31737 249.027 8.16878 248.841 7.98004C248.653 7.79455 248.504 7.57223 248.405 7.32689C248.306 7.08156 248.258 6.81844 248.265 6.55389C248.258 6.28894 248.305 6.02537 248.404 5.77959C248.504 5.53382 248.652 5.31113 248.841 5.12536ZM248.516 22.8302V10.8106H252.029V22.8302H248.516Z" fill="#0C0C0C"/>
<path d="M253.302 8.4334V5.29639H258.435V22.8251H254.929V8.4334H253.302Z" fill="#0C0C0C"/>
<path d="M264.269 22.806C263.482 22.4693 262.764 21.9889 262.153 21.3895C261.551 20.797 261.068 20.0962 260.726 19.3239C260.374 18.5362 260.195 17.6821 260.2 16.8192C260.198 15.9612 260.377 15.1125 260.726 14.3288C261.065 13.5516 261.549 12.8464 262.153 12.2512C262.764 11.6518 263.482 11.1714 264.269 10.8347C265.079 10.4843 265.953 10.3052 266.836 10.3086C267.719 10.3055 268.593 10.4845 269.404 10.8347C270.19 11.1715 270.907 11.6519 271.518 12.2512C272.122 12.8463 272.607 13.5515 272.946 14.3288C273.295 15.1128 273.474 15.9613 273.472 16.8192C273.477 17.682 273.297 18.5358 272.946 19.3239C272.604 20.0963 272.12 20.7971 271.518 21.3895C270.907 21.9889 270.19 22.4692 269.404 22.806C268.593 23.1562 267.719 23.3352 266.836 23.3321C265.953 23.3355 265.079 23.1564 264.269 22.806ZM268.014 19.9369C268.393 19.7659 268.734 19.5196 269.015 19.2129C269.304 18.8947 269.536 18.53 269.703 18.1343C269.88 17.7187 269.97 17.271 269.966 16.8192C269.97 16.3681 269.88 15.9213 269.703 15.5064C269.536 15.1107 269.304 14.746 269.015 14.4278C268.733 14.122 268.393 13.8758 268.014 13.7039C267.645 13.5336 267.243 13.4447 266.836 13.4432C266.43 13.4445 266.028 13.5334 265.659 13.7039C265.28 13.8758 264.94 14.122 264.657 14.4278C264.367 14.7448 264.135 15.1098 263.97 15.5064C263.793 15.9213 263.703 16.3681 263.707 16.8192C263.703 17.271 263.792 17.7187 263.97 18.1343C264.135 18.5309 264.367 18.8959 264.657 19.2129C264.939 19.5196 265.279 19.7659 265.659 19.9369C266.028 20.1092 266.429 20.1989 266.836 20.1999C267.243 20.1987 267.645 20.109 268.014 19.9369Z" fill="#0C0C0C"/>
<path d="M275.055 14.1232C275.35 13.3876 275.779 12.7127 276.319 12.1324C276.832 11.5822 277.444 11.1322 278.122 10.8052C278.772 10.4876 279.487 10.3226 280.211 10.3226C280.726 10.3087 281.239 10.4033 281.715 10.6001C282.082 10.7541 282.428 10.9562 282.743 11.201C283.03 11.4518 283.274 11.7477 283.467 12.0769H283.708V10.8245H287.214V22.4942C287.219 23.2632 287.055 24.0238 286.731 24.7215C286.41 25.4178 285.964 26.0499 285.416 26.5868C284.86 27.1354 284.205 27.5735 283.486 27.8778C282.73 28.1994 281.916 28.3636 281.094 28.3604C280.326 28.3726 279.56 28.2627 278.826 28.0347C278.207 27.8373 277.624 27.5415 277.098 27.1587C276.619 26.804 276.2 26.3727 275.861 25.8822C275.533 25.4111 275.271 24.8972 275.084 24.3547L278.59 23.8528C278.816 24.2176 279.114 24.5329 279.466 24.7794C279.945 25.1033 280.517 25.2618 281.094 25.2307C281.443 25.2396 281.79 25.1762 282.113 25.0446C282.436 24.9129 282.729 24.7158 282.972 24.4657C283.224 24.2013 283.421 23.8887 283.55 23.5467C283.679 23.2047 283.737 22.8402 283.722 22.4749V21.0995H283.481C283.296 21.434 283.051 21.7311 282.757 21.9754C282.449 22.2329 282.102 22.4398 281.729 22.5883C281.251 22.7752 280.739 22.8646 280.226 22.8514C279.502 22.8515 278.787 22.6865 278.136 22.3688C277.458 22.0418 276.847 21.5918 276.333 21.0416C275.796 20.464 275.367 19.7935 275.069 19.0628C274.745 18.2814 274.581 17.4427 274.586 16.5966C274.575 15.7492 274.735 14.9081 275.055 14.1232ZM282.991 14.5238C282.738 14.2394 282.448 13.991 282.127 13.7854C281.782 13.5584 281.377 13.4407 280.964 13.4476C280.582 13.4382 280.201 13.509 279.848 13.6553C279.494 13.8015 279.175 14.0201 278.911 14.297C278.628 14.6031 278.41 14.9624 278.267 15.3539C278.125 15.7454 278.063 16.1613 278.083 16.5773C278.083 17.5281 278.359 18.2874 278.911 18.8553C279.175 19.1326 279.494 19.3516 279.847 19.4983C280.201 19.645 280.581 19.7161 280.964 19.7071C281.375 19.7134 281.779 19.6002 282.127 19.3814C282.449 19.1829 282.74 18.9391 282.991 18.6574C283.287 18.3384 283.531 17.9753 283.715 17.5812V15.5783C283.528 15.1928 283.284 14.8373 282.991 14.5238Z" fill="#0C0C0C"/>
<path d="M289.677 12.6384C289.933 12.1822 290.282 11.7857 290.703 11.4753C291.215 11.1025 291.786 10.8186 292.392 10.6355C293.147 10.4058 293.932 10.2959 294.721 10.3098C295.415 10.3006 296.106 10.4108 296.762 10.6355C297.335 10.8338 297.875 11.1169 298.365 11.4753C298.808 11.8029 299.2 12.1949 299.528 12.6384C299.826 13.0349 300.063 13.4743 300.23 13.9415L296.975 14.4434C296.781 14.1245 296.526 13.8472 296.224 13.6278C295.787 13.315 295.257 13.1609 294.721 13.191C294.292 13.1676 293.869 13.3004 293.531 13.565C293.408 13.6512 293.305 13.7631 293.229 13.8931C293.153 14.0231 293.106 14.1681 293.092 14.3179C293.092 14.5833 293.268 14.8005 293.618 14.955C294.048 15.1406 294.492 15.2915 294.945 15.4062C295.481 15.5494 296.053 15.7103 296.661 15.8888C297.26 16.0591 297.836 16.3023 298.377 16.6128C298.901 16.914 299.354 17.3257 299.704 17.8193C300.074 18.379 300.258 19.0409 300.23 19.7112C300.224 20.1671 300.103 20.6142 299.88 21.0118C299.62 21.4738 299.261 21.872 298.828 22.1773C298.29 22.5537 297.693 22.8375 297.062 23.0171C296.26 23.2468 295.429 23.3566 294.595 23.3429C293.828 23.3551 293.063 23.2452 292.329 23.0171C291.712 22.8203 291.129 22.5288 290.602 22.1532C290.124 21.8095 289.705 21.3906 289.361 20.9129C289.039 20.4672 288.777 19.9803 288.584 19.465L292.091 18.9655C292.295 19.3733 292.59 19.7283 292.954 20.0031C293.434 20.3382 294.012 20.5015 294.595 20.4664C295.231 20.4664 295.702 20.3418 296.009 20.0924C296.138 20.0096 296.246 19.8989 296.327 19.7686C296.407 19.6383 296.457 19.4917 296.473 19.3395C296.473 19.0741 296.299 18.8569 295.947 18.7025C295.517 18.5161 295.073 18.3652 294.619 18.2512C294.087 18.1081 293.515 17.9472 292.904 17.7686C292.305 17.5979 291.73 17.3548 291.19 17.0447C290.665 16.7441 290.212 16.3323 289.863 15.8381C289.492 15.2789 289.308 14.6167 289.337 13.9463C289.339 13.4887 289.456 13.0389 289.677 12.6384Z" fill="#0C0C0C"/>
<path d="M305.23 22.806C304.443 22.4693 303.725 21.9889 303.114 21.3895C302.513 20.797 302.029 20.0962 301.688 19.3239C301.335 18.5362 301.156 17.6821 301.162 16.8192C301.159 15.9612 301.339 15.1125 301.688 14.3288C302.026 13.5516 302.51 12.8464 303.114 12.2512C303.725 11.6518 304.443 11.1714 305.23 10.8347C306.041 10.4843 306.915 10.3052 307.798 10.3086C308.681 10.3055 309.555 10.4845 310.365 10.8347C311.152 11.1715 311.869 11.6519 312.479 12.2512C313.084 12.8463 313.568 13.5515 313.908 14.3288C314.256 15.1128 314.435 15.9613 314.434 16.8192C314.438 17.682 314.259 18.5358 313.908 19.3239C313.566 20.0963 313.081 20.7971 312.479 21.3895C311.869 21.9889 311.152 22.4692 310.365 22.806C309.555 23.1562 308.681 23.3352 307.798 23.3321C306.915 23.3355 306.041 23.1564 305.23 22.806ZM308.985 19.9369C309.365 19.7659 309.705 19.5196 309.987 19.2129C310.275 18.8947 310.507 18.53 310.674 18.1343C310.852 17.7187 310.941 17.271 310.937 16.8192C310.941 16.3681 310.851 15.9213 310.674 15.5064C310.507 15.1107 310.275 14.746 309.987 14.4278C309.704 14.122 309.364 13.8758 308.985 13.7039C308.616 13.5336 308.214 13.4447 307.808 13.4432C307.401 13.4445 306.999 13.5334 306.63 13.7039C306.251 13.8758 305.911 14.122 305.629 14.4278C305.339 14.7448 305.106 15.1098 304.941 15.5064C304.764 15.9213 304.674 16.3681 304.678 16.8192C304.674 17.271 304.763 17.7187 304.941 18.1343C305.106 18.5309 305.339 18.8959 305.629 19.2129C305.91 19.5196 306.25 19.7659 306.63 19.9369C306.999 20.1092 307.401 20.1989 307.808 20.1999C308.214 20.1987 308.616 20.109 308.985 19.9369Z" fill="#0C0C0C"/>
<path d="M323.351 18.9495L326.034 11.6253C326.06 11.5539 326.071 11.478 326.068 11.402C326.064 11.326 326.045 11.2515 326.012 11.183C325.98 11.1144 325.933 11.0531 325.876 11.0027C325.819 10.9523 325.753 10.9138 325.681 10.8895L318.902 8.60793C318.772 8.56541 318.662 8.47783 318.592 8.36112C318.521 8.24441 318.495 8.1063 318.518 7.97188C318.54 7.83747 318.611 7.71565 318.716 7.6286C318.821 7.54154 318.953 7.495 319.089 7.49744L332.324 7.61445C332.43 7.61591 332.533 7.64672 332.622 7.70346C332.712 7.7602 332.784 7.84064 332.83 7.93583C332.876 8.03101 332.895 8.13719 332.885 8.24255C332.875 8.34792 332.835 8.44834 332.771 8.5326L324.341 19.5034C324.261 19.6212 324.14 19.7047 324.001 19.7374C323.863 19.7701 323.717 19.7497 323.592 19.6801C323.468 19.6106 323.374 19.497 323.33 19.3617C323.285 19.2265 323.293 19.0794 323.351 18.9495Z" fill="#0C0C0C"/>
<path d="M323.264 13.7876L320.581 21.1142C320.555 21.1856 320.543 21.2615 320.547 21.3375C320.55 21.4134 320.569 21.4879 320.602 21.5565C320.635 21.6251 320.681 21.6864 320.738 21.7368C320.795 21.7872 320.861 21.8257 320.933 21.85L327.713 24.1315C327.842 24.1741 327.952 24.2616 328.023 24.3783C328.093 24.4951 328.119 24.6332 328.097 24.7676C328.074 24.902 328.004 25.0238 327.899 25.1109C327.794 25.1979 327.661 25.2445 327.525 25.242L314.297 25.1313C314.191 25.1299 314.087 25.099 313.998 25.0423C313.909 24.9856 313.837 24.9051 313.79 24.8099C313.744 24.7148 313.725 24.6086 313.735 24.5032C313.746 24.3978 313.785 24.2974 313.849 24.2132L322.278 13.2447C322.362 13.1376 322.48 13.0637 322.613 13.0363C322.746 13.0089 322.884 13.0298 323.003 13.0953C323.122 13.1607 323.213 13.2664 323.261 13.3933C323.309 13.5203 323.31 13.6601 323.264 13.7876Z" fill="#0C0C0C"/>
<line x1="184.189" y1="0.115723" x2="184.189" y2="31.0747" stroke="#0C0C0C" stroke-width="0.456869"/>
</svg>
