<svg width="1918" height="279" viewBox="0 0 1918 279" fill="none" xmlns="http://www.w3.org/2000/svg">
<path d="M-21 269.568L46.8816 166.012L-12.025 68.202H39.4902L77.8062 134.489H80.7487L118.987 68.202H170.576L111.67 166.012L179.551 269.568H126.754L81.5 197.683H78.5611L32.9274 269.568H-21Z" fill="white"/>
<path d="M239.514 269.569H189.432L230.613 204.828C223.197 201.38 216.439 196.721 210.626 191.054C205.009 185.336 200.375 178.771 196.9 171.611C192.577 162.172 190.512 151.894 190.864 141.56C190.795 131.598 192.799 121.727 196.749 112.542C200.578 103.672 206.314 95.7103 213.569 89.1944C221.232 82.4554 230.174 77.2499 239.89 73.8742C251.089 69.9587 262.92 68.0377 274.814 68.2028H370.225V269.569H324.97V214.918H274.888L239.514 269.569ZM324.893 108.49H274.814C264.572 107.955 254.525 111.367 246.832 117.992C243.583 121.043 240.996 124.704 239.231 128.754C237.465 132.804 236.557 137.159 236.557 141.56C236.557 145.962 237.465 150.319 239.231 154.368C240.996 158.418 243.583 162.077 246.832 165.129C254.525 171.753 264.572 175.165 274.814 174.63H324.893V108.49Z" fill="white"/>
<path d="M448.743 228.397C457.674 235.177 468.824 238.554 480.117 237.898C490.422 238.773 500.725 236.173 509.307 230.533C512.149 228.333 514.446 225.534 516.024 222.346C517.603 219.157 518.422 215.661 518.422 212.12C518.422 208.578 517.603 205.082 516.024 201.894C514.446 198.705 512.149 195.906 509.307 193.707C500.725 188.066 490.422 185.467 480.117 186.341H459.526V146.128H480.117C488.767 146.637 497.308 144.015 504.103 138.762C506.717 136.993 508.852 134.63 510.327 131.879C511.802 129.128 512.573 126.069 512.573 122.964C512.573 119.858 511.802 116.798 510.327 114.047C508.852 111.295 506.717 108.935 504.103 107.165C497.325 101.881 488.772 99.2548 480.117 99.8C470.848 99.1766 461.654 101.787 454.171 107.165C447.89 112.4 443.129 119.156 440.368 126.756L394.738 121.011C396.809 112.497 400.217 104.349 404.844 96.8546C409.504 89.3432 415.449 82.6658 422.418 77.1145C429.86 71.248 438.349 66.7778 447.458 63.9305C458.004 60.6086 469.036 58.9922 480.117 59.1438C491.331 59.0041 502.486 60.7734 513.078 64.3728C522.21 67.3772 530.696 71.9966 538.117 77.9992C544.738 83.3402 550.159 89.9594 554.034 97.4426C557.673 104.268 559.585 111.844 559.614 119.538C559.958 126.765 558.068 133.926 554.185 140.088C550.915 145.027 546.778 149.365 541.966 152.903C536.625 156.661 530.649 159.479 524.314 161.227V164.098C531.727 166.124 538.706 169.443 544.908 173.895C547.586 175.92 550.107 178.135 552.451 180.523C559.418 188.212 563.833 197.785 565.112 207.977C566.392 218.168 564.473 228.498 559.614 237.603C555.49 245.431 549.737 252.33 542.721 257.857C534.698 264.269 525.581 269.255 515.792 272.588C504.296 276.341 492.237 278.184 480.117 278.038C468.103 278.217 456.139 276.527 444.67 273.03C434.88 269.921 425.735 265.133 417.667 258.89C410.091 252.892 403.657 245.635 398.66 237.456C393.595 229.015 389.786 219.914 387.347 210.426L432.601 204.681C435.486 213.959 441.1 222.206 448.743 228.397Z" fill="white"/>
<path d="M634.662 269.568H589.028V68.3495H737.766V108.637H634.662V269.568Z" fill="white"/>
<path d="M880.618 68.3495L930.623 269.715H883.561L873.227 227.953H783.396L773.065 269.715H725.999L776.004 68.3495H880.618ZM862.893 187.74L843.812 108.637H812.737L793.579 187.74H862.893Z" fill="white"/>
<path d="M1094.75 68.3495L1144.83 269.715H1097.69L1087.36 227.953H997.526L987.269 269.715H940.129L990.208 68.3495H1094.75ZM1077.1 187.74L1057.94 108.637H1027.02L1007.86 187.74H1077.1Z" fill="white"/>
<path d="M1339.65 172.2C1335.68 181.237 1329.82 189.365 1322.45 196.063C1314.63 203.086 1305.45 208.518 1295.45 212.045C1284.18 216.002 1272.28 217.948 1260.3 217.79H1207.5V269.347H1161.87V68.3492H1260.53C1272.51 68.1752 1284.42 70.1476 1295.67 74.168C1305.67 77.6696 1314.85 83.0769 1322.68 90.0763C1330.02 96.8018 1335.87 104.923 1339.88 113.94C1343.86 123.185 1345.9 133.114 1345.9 143.143C1345.9 153.173 1343.86 163.102 1339.88 172.347L1339.65 172.2ZM1297.11 129.776C1295.17 125.604 1292.4 121.849 1288.96 118.728C1285.32 115.499 1281.07 112.997 1276.44 111.363C1271.28 109.487 1265.81 108.562 1260.3 108.637H1207.5V177.65H1260.3C1265.81 177.725 1271.28 176.8 1276.44 174.924C1281.06 173.274 1285.31 170.774 1288.96 167.559C1292.42 164.425 1295.19 160.642 1297.11 156.437C1299.05 152.286 1300.05 147.778 1300.05 143.217C1300.05 138.656 1299.05 134.148 1297.11 129.997V129.776Z" fill="white"/>
<path d="M1411 269.568H1365.29V68.3495H1514.18V108.637H1411.15L1411 269.568Z" fill="white"/>
<path d="M1598.51 269.568V203.281L1520.44 68.3495H1571.96L1620.6 154.67H1622.03L1670.61 68.3495H1722.2L1644.14 203.576V269.863L1598.51 269.568Z" fill="white"/>
<path d="M1736.83 269.568V68.3495H1782.54V197.831H1785.48L1867.92 68.3495H1918V269.716H1872.37V140.308H1869.43L1786.91 269.716L1736.83 269.568ZM1809.77 41.246C1804.37 39.1798 1799.46 36.0446 1795.36 32.0395C1791.26 28.0343 1788.05 23.2446 1785.93 17.9707C1783.62 12.2508 1782.47 6.14827 1782.54 0H1811.95C1811.95 4.19977 1813.66 8.22741 1816.7 11.1971C1819.75 14.1668 1823.87 15.8363 1828.17 15.8363C1832.47 15.8363 1836.6 14.1668 1839.64 11.1971C1842.68 8.22741 1844.38 4.19977 1844.38 0H1873.8C1873.87 6.14827 1872.72 12.2508 1870.41 17.9707C1868.29 23.2446 1865.08 28.0343 1860.98 32.0395C1856.88 36.0446 1851.97 39.1798 1846.57 41.246C1834.72 45.6652 1821.62 45.6652 1809.77 41.246Z" fill="white"/>
</svg>
