<svg width="1586" height="279" viewBox="0 0 1586 279" fill="none" xmlns="http://www.w3.org/2000/svg">
<path d="M0 269.568L67.8816 166.013L8.97501 68.2021H60.4902L98.8062 134.489H101.749L139.987 68.2021H191.576L132.67 166.013L200.551 269.568H147.754L102.5 197.683H99.5611L53.9274 269.568H0Z" fill="#FA6913"/>
<path d="M260.514 269.569H210.432L251.613 204.828C244.197 201.38 237.439 196.721 231.626 191.054C226.009 185.336 221.375 178.771 217.9 171.611C213.577 162.172 211.512 151.894 211.864 141.56C211.795 131.598 213.799 121.727 217.749 112.542C221.578 103.672 227.314 95.7104 234.569 89.1945C242.232 82.4555 251.174 77.25 260.89 73.8742C272.089 69.9588 283.92 68.0378 295.814 68.2029H391.225V269.569H345.97V214.918H295.888L260.514 269.569ZM345.893 108.49H295.814C285.572 107.955 275.525 111.367 267.832 117.992C264.583 121.043 261.996 124.704 260.231 128.754C258.465 132.804 257.557 137.159 257.557 141.56C257.557 145.962 258.465 150.319 260.231 154.368C261.996 158.418 264.583 162.077 267.832 165.129C275.525 171.753 285.572 175.165 295.814 174.63H345.893V108.49Z" fill="#FA6913"/>
<path d="M469.743 228.397C478.674 235.177 489.824 238.554 501.117 237.898C511.422 238.773 521.725 236.173 530.307 230.533C533.149 228.333 535.446 225.534 537.024 222.346C538.603 219.157 539.422 215.661 539.422 212.12C539.422 208.578 538.603 205.082 537.024 201.894C535.446 198.705 533.149 195.906 530.307 193.707C521.725 188.066 511.422 185.467 501.117 186.341H480.526V146.128H501.117C509.767 146.637 518.308 144.015 525.103 138.762C527.717 136.993 529.852 134.63 531.327 131.879C532.802 129.128 533.573 126.069 533.573 122.964C533.573 119.858 532.802 116.798 531.327 114.047C529.852 111.295 527.717 108.935 525.103 107.165C518.325 101.881 509.772 99.2548 501.117 99.8C491.848 99.1766 482.654 101.787 475.171 107.165C468.89 112.4 464.129 119.156 461.368 126.756L415.738 121.011C417.809 112.497 421.217 104.349 425.844 96.8546C430.504 89.3432 436.449 82.6658 443.418 77.1145C450.86 71.248 459.349 66.7778 468.458 63.9305C479.004 60.6086 490.036 58.9922 501.117 59.1438C512.331 59.0041 523.486 60.7734 534.078 64.3728C543.21 67.3772 551.696 71.9966 559.117 77.9992C565.738 83.3402 571.159 89.9594 575.034 97.4426C578.673 104.268 580.585 111.844 580.614 119.538C580.958 126.765 579.068 133.926 575.185 140.088C571.915 145.027 567.778 149.365 562.966 152.903C557.625 156.661 551.649 159.479 545.314 161.227V164.098C552.727 166.124 559.706 169.443 565.908 173.895C568.586 175.92 571.107 178.135 573.451 180.523C580.418 188.212 584.833 197.785 586.112 207.977C587.392 218.168 585.473 228.498 580.614 237.603C576.49 245.431 570.737 252.33 563.721 257.857C555.698 264.269 546.581 269.255 536.792 272.588C525.296 276.341 513.237 278.184 501.117 278.038C489.103 278.217 477.139 276.527 465.67 273.03C455.88 269.921 446.735 265.133 438.667 258.89C431.091 252.892 424.657 245.635 419.66 237.456C414.595 229.015 410.786 219.914 408.347 210.426L453.601 204.681C456.486 213.959 462.1 222.206 469.743 228.397Z" fill="#FA6913"/>
<path d="M655.662 269.568H610.028V68.3495H758.766V108.637H655.662V269.568Z" fill="#FA6913"/>
<path d="M901.618 68.3495L951.623 269.715H904.561L894.227 227.953H804.396L794.065 269.715H746.999L797.004 68.3495H901.618ZM883.893 187.74L864.812 108.637H833.737L814.579 187.74H883.893Z" fill="#FA6913"/>
<path d="M1115.75 68.3495L1165.83 269.715H1118.69L1108.36 227.953H1018.53L1008.27 269.715H961.129L1011.21 68.3495H1115.75ZM1098.1 187.74L1078.94 108.637H1048.02L1028.86 187.74H1098.1Z" fill="#FA6913"/>
<path d="M1360.65 172.2C1356.68 181.237 1350.82 189.365 1343.45 196.063C1335.63 203.086 1326.45 208.518 1316.45 212.045C1305.18 216.002 1293.28 217.948 1281.3 217.79H1228.5V269.347H1182.87V68.3493H1281.53C1293.51 68.1752 1305.42 70.1476 1316.67 74.1681C1326.67 77.6696 1335.85 83.0769 1343.68 90.0763C1351.02 96.8018 1356.87 104.923 1360.88 113.94C1364.86 123.185 1366.9 133.114 1366.9 143.143C1366.9 153.173 1364.86 163.102 1360.88 172.347L1360.65 172.2ZM1318.11 129.776C1316.17 125.604 1313.4 121.849 1309.96 118.728C1306.32 115.499 1302.07 112.997 1297.44 111.363C1292.28 109.487 1286.81 108.562 1281.3 108.637H1228.5V177.65H1281.3C1286.81 177.725 1292.28 176.8 1297.44 174.924C1302.06 173.274 1306.31 170.774 1309.96 167.559C1313.42 164.425 1316.19 160.642 1318.11 156.437C1320.05 152.286 1321.05 147.778 1321.05 143.217C1321.05 138.656 1320.05 134.148 1318.11 129.997V129.776Z" fill="#FA6913"/>
<path d="M1432 269.568H1386.29V68.3495H1535.18V108.637H1432.15L1432 269.568Z" fill="#FA6913"/>
<path d="M1619.51 269.568V203.281L1541.44 68.3495H1592.96L1641.6 154.67H1643.03L1691.61 68.3495H1743.2L1665.14 203.576V269.863L1619.51 269.568Z" fill="#FA6913"/>
</svg>
