<svg width="42" height="42" viewBox="0 0 42 42" fill="none" xmlns="http://www.w3.org/2000/svg">
<g clip-path="url(#clip0_128_487)">
<path d="M41.1791 11.0144C40.946 10.1375 40.4868 9.33721 39.8473 8.69359C39.2078 8.04998 38.4104 7.58561 37.5351 7.34697C34.3126 6.48047 21.4322 6.48047 21.4322 6.48047C21.4322 6.48047 8.55175 6.48047 5.3293 7.34697C4.45393 7.58561 3.6566 8.04998 3.01709 8.69359C2.37758 9.33721 1.91833 10.1375 1.6853 11.0144C0.823486 14.2509 0.823486 21.0002 0.823486 21.0002C0.823486 21.0002 0.823486 27.7496 1.6853 30.9861C1.91833 31.863 2.37758 32.6632 3.01709 33.3069C3.6566 33.9505 4.45393 34.4149 5.3293 34.6535C8.55175 35.52 21.4322 35.52 21.4322 35.52C21.4322 35.52 34.3126 35.52 37.5351 34.6535C38.4104 34.4149 39.2078 33.9505 39.8473 33.3069C40.4868 32.6632 40.946 31.863 41.1791 30.9861C42.0409 27.7496 42.0409 21.0002 42.0409 21.0002C42.0409 21.0002 42.0409 14.2509 41.1791 11.0144Z" fill="#FF0302"/>
<path d="M17.2168 27.1291V14.8716L27.9895 21.0003L17.2168 27.1291Z" fill="#FEFEFE"/>
</g>
<defs>
<clipPath id="clip0_128_487">
<rect width="41.2174" height="41.2174" fill="white" transform="translate(0.782593 0.391602)"/>
</clipPath>
</defs>
</svg>
