<svg width="142" height="106" viewBox="0 0 142 106" fill="none" xmlns="http://www.w3.org/2000/svg">
<path d="M77.9346 25.3393C77.9346 22.8184 79.9781 20.7748 82.499 20.7748H137.435C139.956 20.7748 141.999 22.8184 141.999 25.3393V32.5119C141.999 35.0328 139.956 37.0763 137.435 37.0763H82.499C79.9781 37.0763 77.9346 35.0328 77.9346 32.5119V25.3393Z" fill="#DB1A32"/>
<path d="M131.32 32.1692C130.797 32.1692 130.361 32.0474 130.01 31.8039C129.659 31.5603 129.394 31.229 129.216 30.81C129.04 30.391 128.953 29.9184 128.953 29.3923C128.953 28.8661 129.04 28.3935 129.216 27.9746C129.391 27.5556 129.649 27.2243 129.99 26.9807C130.331 26.7371 130.752 26.6153 131.252 26.6153C131.756 26.6153 132.194 26.7355 132.568 26.9758C132.941 27.2162 133.23 27.5458 133.435 27.9648C133.643 28.3805 133.747 28.8564 133.747 29.3923C133.747 29.9184 133.644 30.391 133.44 30.81C133.238 31.229 132.956 31.5603 132.592 31.8039C132.228 32.0474 131.804 32.1692 131.32 32.1692ZM128.729 34.3616V26.7615H129.898V30.3666H130.063V34.3616H128.729ZM131.106 30.9902C131.392 30.9902 131.626 30.9188 131.808 30.7759C131.989 30.633 132.124 30.4413 132.212 30.201C132.3 29.9574 132.343 29.6878 132.343 29.3923C132.343 29.1 132.298 28.8336 132.207 28.5933C132.116 28.3497 131.975 28.1564 131.783 28.0135C131.595 27.8674 131.353 27.7943 131.057 27.7943C130.781 27.7943 130.557 27.8609 130.385 27.994C130.216 28.1272 130.093 28.314 130.015 28.5543C129.937 28.7947 129.898 29.074 129.898 29.3923C129.898 29.7106 129.937 29.9899 130.015 30.2302C130.093 30.4706 130.219 30.6573 130.395 30.7905C130.573 30.9237 130.81 30.9902 131.106 30.9902Z" fill="white"/>
<path d="M124.997 32.1692C124.468 32.1692 124.003 32.0507 123.604 31.8136C123.204 31.5765 122.892 31.2501 122.668 30.8343C122.447 30.4154 122.337 29.9347 122.337 29.3923C122.337 28.8434 122.451 28.3611 122.678 27.9453C122.905 27.5263 123.219 27.1999 123.618 26.9661C124.018 26.7322 124.477 26.6153 124.997 26.6153C125.526 26.6153 125.991 26.7338 126.39 26.9709C126.793 27.208 127.106 27.5361 127.331 27.9551C127.555 28.3708 127.667 28.8499 127.667 29.3923C127.667 29.9379 127.553 30.4202 127.326 30.8392C127.102 31.255 126.788 31.5814 126.385 31.8185C125.986 32.0523 125.523 32.1692 124.997 32.1692ZM124.997 30.9318C125.422 30.9318 125.739 30.7889 125.947 30.5031C126.158 30.214 126.264 29.8437 126.264 29.3923C126.264 28.9246 126.156 28.5511 125.942 28.2717C125.731 27.9924 125.416 27.8528 124.997 27.8528C124.708 27.8528 124.471 27.9177 124.286 28.0476C124.101 28.1775 123.962 28.3578 123.872 28.5884C123.784 28.819 123.74 29.087 123.74 29.3923C123.74 29.8632 123.846 30.2384 124.057 30.5177C124.271 30.7937 124.584 30.9318 124.997 30.9318Z" fill="white"/>
<path d="M120.02 32.0232V29.5385C120.02 29.4184 120.014 29.2657 120.001 29.0806C119.988 28.8922 119.947 28.7038 119.879 28.5154C119.811 28.3271 119.699 28.1695 119.543 28.0429C119.39 27.9162 119.173 27.8529 118.89 27.8529C118.776 27.8529 118.655 27.8707 118.525 27.9065C118.395 27.9422 118.273 28.012 118.159 28.116C118.046 28.2166 117.951 28.366 117.877 28.5642C117.805 28.7623 117.769 29.0254 117.769 29.3534L117.009 28.9929C117.009 28.5772 117.094 28.1874 117.263 27.8236C117.432 27.4599 117.685 27.1659 118.023 26.9418C118.364 26.7177 118.793 26.6057 119.309 26.6057C119.721 26.6057 120.058 26.6755 120.317 26.8152C120.577 26.9548 120.779 27.1318 120.922 27.3462C121.068 27.5606 121.172 27.7847 121.233 28.0185C121.295 28.2491 121.332 28.4602 121.345 28.6519C121.358 28.8435 121.365 28.9831 121.365 29.0708V32.0232H120.02ZM116.425 32.0232V25.0077H117.604V28.6129H117.769V32.0232H116.425Z" fill="white"/>
<path d="M113.163 32.1692C112.5 32.1692 111.964 32.0198 111.555 31.721C111.149 31.419 110.902 30.9935 110.814 30.4446L112.169 30.24C112.224 30.4868 112.346 30.6801 112.534 30.8197C112.726 30.9594 112.968 31.0292 113.26 31.0292C113.5 31.0292 113.686 30.9838 113.816 30.8928C113.945 30.7986 114.01 30.6687 114.01 30.5031C114.01 30.3991 113.984 30.3163 113.932 30.2546C113.88 30.1896 113.764 30.1263 113.582 30.0646C113.403 30.0029 113.124 29.9217 112.744 29.821C112.315 29.7106 111.972 29.5871 111.716 29.4507C111.459 29.3143 111.274 29.1519 111.16 28.9635C111.047 28.7719 110.99 28.5413 110.99 28.2717C110.99 27.934 111.076 27.6416 111.248 27.3948C111.42 27.1447 111.662 26.9531 111.974 26.8199C112.289 26.6835 112.659 26.6153 113.085 26.6153C113.497 26.6153 113.863 26.6786 114.181 26.8053C114.499 26.932 114.756 27.1122 114.951 27.3461C115.149 27.5799 115.271 27.856 115.316 28.1743L113.962 28.4179C113.939 28.223 113.855 28.0687 113.708 27.9551C113.562 27.8414 113.364 27.7748 113.114 27.7553C112.87 27.7391 112.674 27.7716 112.524 27.8528C112.378 27.934 112.305 28.0509 112.305 28.2035C112.305 28.2945 112.336 28.3708 112.398 28.4325C112.463 28.4942 112.594 28.5576 112.792 28.6225C112.994 28.6875 113.299 28.7719 113.708 28.8758C114.108 28.9798 114.428 29.1016 114.668 29.2412C114.912 29.3777 115.089 29.5433 115.199 29.7382C115.31 29.9298 115.365 30.162 115.365 30.4349C115.365 30.974 115.17 31.3979 114.78 31.7064C114.39 32.015 113.851 32.1692 113.163 32.1692Z" fill="white"/>
<path d="M105.814 32.0232L105.824 25.0077H107.169V29.2949L108.952 26.7616H110.589L108.689 29.3924L110.716 32.0232H108.991L107.169 29.4898V32.0232H105.814Z" fill="white"/>
<path d="M101.811 32.0232V26.7616H102.98V28.0477L102.853 27.8821C102.921 27.7002 103.012 27.5346 103.126 27.3852C103.24 27.2358 103.379 27.1123 103.545 27.0149C103.672 26.9369 103.81 26.8769 103.959 26.8346C104.108 26.7892 104.263 26.7616 104.422 26.7518C104.581 26.7388 104.74 26.7421 104.899 26.7616V27.999C104.753 27.9535 104.583 27.9389 104.388 27.9552C104.196 27.9682 104.022 28.012 103.866 28.0867C103.711 28.1582 103.579 28.254 103.472 28.3742C103.365 28.4911 103.283 28.6307 103.228 28.7931C103.173 28.9523 103.145 29.1325 103.145 29.3339V32.0232H101.811Z" fill="white"/>
<path d="M98.0692 32.1692C97.5398 32.1692 97.0754 32.0507 96.6759 31.8136C96.2764 31.5765 95.9646 31.2501 95.7405 30.8343C95.5196 30.4154 95.4092 29.9347 95.4092 29.3923C95.4092 28.8434 95.5229 28.3611 95.7502 27.9453C95.9776 27.5263 96.291 27.1999 96.6905 26.9661C97.09 26.7322 97.5496 26.6153 98.0692 26.6153C98.5986 26.6153 99.0631 26.7338 99.4626 26.9709C99.8653 27.208 100.179 27.5361 100.403 27.9551C100.627 28.3708 100.739 28.8499 100.739 29.3923C100.739 29.9379 100.625 30.4202 100.398 30.8392C100.174 31.255 99.8605 31.5814 99.4577 31.8185C99.0582 32.0523 98.5954 32.1692 98.0692 32.1692ZM98.0692 30.9318C98.4947 30.9318 98.8114 30.7889 99.0192 30.5031C99.2304 30.214 99.3359 29.8437 99.3359 29.3923C99.3359 28.9246 99.2287 28.5511 99.0144 28.2717C98.8033 27.9924 98.4882 27.8528 98.0692 27.8528C97.7802 27.8528 97.5431 27.9177 97.3579 28.0476C97.1728 28.1775 97.0348 28.3578 96.9438 28.5884C96.8561 28.819 96.8123 29.087 96.8123 29.3923C96.8123 29.8632 96.9178 30.2384 97.129 30.5177C97.3433 30.7937 97.6567 30.9318 98.0692 30.9318Z" fill="white"/>
<path d="M88.1136 32.0232L86.0576 25.0077H87.451L88.7664 29.8309L90.0818 25.0174L91.4752 25.0077L92.7906 29.8309L94.106 25.0077H95.4993L93.4434 32.0232H92.1377L90.7785 27.2877L89.4192 32.0232H88.1136Z" fill="white"/>
<path d="M11.4334 21.3026C12.2339 22.0195 13.0343 22.8371 13.8348 23.7555C14.6575 24.6739 15.3357 25.7715 15.8693 27.0483C16.4252 28.3251 16.7031 29.8707 16.7031 31.6852V38.9092C16.7031 40.9925 15.9916 42.7733 14.5686 44.2517C13.0788 45.7525 11.3 46.5029 9.23215 46.5029C7.14206 46.5029 5.36326 45.7525 3.89575 44.2517C2.40601 42.7733 1.66113 40.9925 1.66113 38.9092V29.7363H7.36441V39.5476C7.36441 40.0853 7.54229 40.5333 7.89805 40.8917C8.27605 41.2501 8.72075 41.4293 9.23215 41.4293C9.74356 41.4293 10.1771 41.2501 10.5329 40.8917C10.8887 40.5333 11.0665 40.0853 11.0665 39.5476V32.1892C11.0665 30.9123 10.7552 29.7139 10.1327 28.5939C9.53232 27.4739 8.69851 26.4211 7.63123 25.4355C6.83077 24.7187 5.96361 23.8115 5.02974 22.7139C4.1181 21.5938 3.32876 20.2274 2.66171 18.6146C1.99466 16.9794 1.66113 15.0418 1.66113 12.8017V7.59369C1.66113 5.51046 2.38377 3.72964 3.82905 2.25123C5.31879 0.750408 7.09759 0 9.16545 0C11.2333 0 13.0121 0.750408 14.5019 2.25123C15.9694 3.72964 16.7031 5.51046 16.7031 7.59369V15.4898H11.0332V6.95528C11.0332 6.41767 10.8553 5.96967 10.4995 5.61126C10.0993 5.25286 9.65462 5.07366 9.16545 5.07366C8.63181 5.07366 8.19822 5.25286 7.8647 5.61126C7.50894 5.96967 7.33106 6.41767 7.33106 6.95528V12.8017C7.33106 14.213 7.53117 15.4338 7.9314 16.4642C8.33163 17.4946 8.84304 18.4018 9.46562 19.1858C10.0882 19.9698 10.7441 20.6754 11.4334 21.3026Z" fill="#291956"/>
<path d="M24.0073 12.8017L24.0407 12.7681C24.0851 12.7233 24.1518 12.6673 24.2408 12.6001C24.4854 12.3985 24.7522 12.2081 25.0412 12.0289C25.9973 11.4689 27.0535 11.1889 28.2097 11.1889C30.3888 11.1889 31.8896 12.1409 32.7123 14.045C32.8457 13.5746 33.157 13.1041 33.6462 12.6337C34.6245 11.6705 35.9586 11.1889 37.6485 11.1889C41.1839 11.1889 42.9515 13.7314 42.9515 18.8162V45.7301H37.2816V18.1442C37.2816 17.629 37.0926 17.181 36.7146 16.8002C36.3589 16.4418 35.9253 16.2626 35.4139 16.2626C34.9025 16.2626 34.4578 16.4418 34.0798 16.8002C33.724 17.181 33.5461 17.629 33.5461 18.1442V45.7301H27.8095V18.1442C27.8095 17.629 27.6316 17.181 27.2759 16.8002C26.8979 16.4418 26.4532 16.2626 25.9418 16.2626C25.4304 16.2626 24.9968 16.4418 24.641 16.8002C24.263 17.181 24.074 17.629 24.074 18.1442V45.7301H18.4041V11.9281H24.0073V12.8017Z" fill="#291956"/>
<path d="M46.8204 13.4066C48.3102 11.9281 50.089 11.1889 52.1568 11.1889C54.2469 11.1889 56.0257 11.9281 57.4932 13.4066C58.983 14.9074 59.7278 16.6994 59.7278 18.7826V45.7301H55.4254C54.3803 46.2453 53.2908 46.5029 52.1568 46.5029C51.0006 46.5029 49.9 46.2453 48.8549 45.7301C47.5875 45.1029 46.5647 44.1845 45.7865 42.9749C45.0083 41.7429 44.6192 40.3877 44.6192 38.9092V33.5668C44.6192 33.2084 44.6525 32.8276 44.7192 32.4244C44.986 30.7892 45.8087 29.2995 47.1873 27.9555C47.6987 27.4627 48.2768 26.9923 48.9216 26.5443C49.1662 26.3651 49.6554 26.0515 50.3891 25.6035L54.0246 23.5203V18.1106C54.0246 17.5954 53.8467 17.1586 53.4909 16.8002C53.1129 16.4418 52.6682 16.2626 52.1568 16.2626C51.6454 16.2626 51.2118 16.4418 50.8561 16.8002C50.4781 17.1586 50.2891 17.5954 50.2891 18.1106V24.4947H44.6192V18.7826C44.6192 16.6994 45.3529 14.9074 46.8204 13.4066ZM52.1568 41.4293C52.7794 41.4293 53.2463 41.2501 53.5576 40.8917C53.8689 40.5333 54.0246 40.0965 54.0246 39.5813V30.1059L53.691 30.3075L53.3242 30.5091C51.9456 31.2708 51.034 32.2228 50.5893 33.3652C50.3891 33.9252 50.2891 34.418 50.2891 34.8436V39.5813C50.2891 40.0965 50.4781 40.5333 50.8561 40.8917C51.2118 41.2501 51.6454 41.4293 52.1568 41.4293Z" fill="#291956"/>
<path d="M71.2678 11.5249V16.733C70.6008 16.4194 69.9448 16.2626 69.3 16.2626C68.5663 16.2626 68.0215 16.4418 67.6657 16.8002C67.31 17.181 67.1321 17.629 67.1321 18.1442V45.7301H61.4288V18.8162C61.4288 16.7106 62.1626 14.9186 63.6301 13.4402C65.1198 11.9393 66.8986 11.1889 68.9665 11.1889C69.7892 11.1889 70.5563 11.3009 71.2678 11.5249Z" fill="#291956"/>
<path d="M83.0413 40.9253V46.0997C82.352 46.3237 81.4848 46.4357 80.4398 46.4357C76.682 46.4357 74.8032 43.9493 74.8032 38.9764V17.573H72.9688V11.9617H74.8032V4.97286H80.4064V11.9617H82.2741V17.573H80.4064V26.8803L80.4398 38.4724C80.4398 40.1525 81.0623 40.9925 82.3075 40.9925C82.5743 40.9925 82.8189 40.9701 83.0413 40.9253Z" fill="#291956"/>
<path d="M5.61183 51.4715V63.4027H6.98139C7.49358 63.4027 7.93896 63.2138 8.31754 62.8361C8.67384 62.4806 8.852 62.0474 8.852 61.5364V53.3378C8.852 52.8268 8.67384 52.3935 8.31754 52.038C7.93896 51.6603 7.49358 51.4715 6.98139 51.4715H5.61183ZM5.61183 68.7351V84.5656H6.98139C7.49358 84.5656 7.93896 84.3768 8.31754 83.9991C8.67384 83.6436 8.852 83.2103 8.852 82.6993V70.6014C8.852 70.0904 8.67384 69.6572 8.31754 69.3017C7.93896 68.924 7.49358 68.7351 6.98139 68.7351H5.61183ZM0 90.3646V45.6725H8.0169C10.0879 45.6725 11.6913 46.2502 12.827 47.4055C13.985 48.5386 14.564 50.1384 14.564 52.2047V61.6697C14.564 63.6915 13.6844 65.1579 11.9251 66.0689C13.6844 66.9798 14.564 68.4463 14.564 70.4681V83.8324C14.564 85.8987 13.985 87.5096 12.827 88.6649C11.6913 89.7981 10.0879 90.3646 8.0169 90.3646H0Z" fill="#291956"/>
<path d="M25.6541 84.2657V56.8705H31.3661V83.5991C31.3661 85.6654 30.6201 87.4429 29.1281 88.9315C27.6583 90.3979 25.8768 91.1311 23.7835 91.1311C21.7124 91.1311 19.9309 90.3979 18.4389 88.9315C16.9691 87.4429 16.2342 85.6654 16.2342 83.5991V56.8705H21.9463V84.2657C21.9463 84.7767 22.1244 85.21 22.4807 85.5655C22.837 85.921 23.2713 86.0987 23.7835 86.0987C24.2957 86.0987 24.7411 85.921 25.1196 85.5655C25.4759 85.21 25.6541 84.7767 25.6541 84.2657Z" fill="#291956"/>
<path d="M42.4896 84.2657V62.9694C42.4896 62.4584 42.3114 62.0252 41.9551 61.6697C41.5765 61.3142 41.1312 61.1364 40.619 61.1364C40.1068 61.1364 39.6725 61.3142 39.3162 61.6697C38.9599 62.0252 38.7818 62.4584 38.7818 62.9694V84.2657C38.7818 84.7767 38.9599 85.21 39.3162 85.5655C39.6725 85.921 40.1068 86.0987 40.619 86.0987C41.1312 86.0987 41.5765 85.921 41.9551 85.5655C42.3114 85.21 42.4896 84.7767 42.4896 84.2657ZM42.5898 45.6725H48.2016V83.5991C48.2016 85.6654 47.4556 87.4429 45.9636 88.9315C44.4938 90.3979 42.7123 91.1311 40.619 91.1311C38.5479 91.1311 36.7664 90.3979 35.2744 88.9315C33.8046 87.4429 33.0697 85.6654 33.0697 83.5991V63.636C33.0697 61.5697 33.6933 59.7922 34.9403 58.3036C36.4324 56.8372 37.9355 56.104 39.4498 56.104C40.8751 56.104 41.9217 56.415 42.5898 57.0372V45.6725Z" fill="#291956"/>
<path d="M59.7593 78.5V63.0028C59.7593 62.4917 59.5812 62.0585 59.2249 61.703C58.8686 61.3253 58.4232 61.1364 57.8887 61.1364C57.3765 61.1364 56.9423 61.3253 56.586 61.703C56.2297 62.0585 56.0515 62.4917 56.0515 63.0028V78.5C56.0515 79.0111 56.2297 79.4443 56.586 79.7998C56.9423 80.1553 57.3765 80.333 57.8887 80.333C58.4232 80.333 58.8686 80.1553 59.2249 79.7998C59.5812 79.4443 59.7593 79.0111 59.7593 78.5ZM56.0515 93.4641V98.5965C56.0515 99.1075 56.2297 99.5408 56.586 99.8963C56.9423 100.252 57.3765 100.43 57.8887 100.43C58.4232 100.43 58.8686 100.252 59.2249 99.8963C59.5812 99.5408 59.7593 99.1075 59.7593 98.5965V93.4641C59.7593 92.9531 59.5812 92.5087 59.2249 92.131C58.8686 91.7755 58.4232 91.5977 57.8887 91.5977C57.3765 91.5977 56.9423 91.7755 56.586 92.131C56.2297 92.5087 56.0515 92.9531 56.0515 93.4641ZM65.8388 56.9372V60.5699H64.8033C65.2487 61.5697 65.4714 62.6028 65.4714 63.6693V77.8335C65.4714 79.8998 64.7253 81.6773 63.2333 83.1659C61.7636 84.6323 59.982 85.3655 57.8887 85.3655C57.3097 85.3655 56.7196 85.2877 56.1183 85.1322C55.9402 85.0433 55.7397 84.9878 55.5171 84.9656C55.4948 84.9656 55.4502 84.9656 55.3834 84.9656C54.7376 85.01 54.4147 85.2766 54.4147 85.7654C54.4147 86.2764 54.7599 86.532 55.4502 86.532C55.4725 86.532 56.3187 86.5431 57.9889 86.5653C60.06 86.5875 61.8192 87.3429 63.2667 88.8316C64.7365 90.298 65.4714 92.0643 65.4714 94.1306V97.93C65.4714 99.9963 64.7253 101.774 63.2333 103.262C61.7636 104.729 59.982 105.462 57.8887 105.462C55.8177 105.462 54.0473 104.729 52.5775 103.262C51.0855 101.774 50.3395 99.9963 50.3395 97.93V94.1306C50.3395 92.642 50.7514 91.2645 51.5754 89.998L51.2748 89.7647C50.8071 89.2981 50.4285 88.776 50.139 88.1983C49.7605 87.3985 49.5712 86.5209 49.5712 85.5655V85.3988C49.5712 85.2877 49.5823 85.1877 49.6046 85.0989C49.6491 84.7878 49.7271 84.4768 49.8384 84.1657C50.1502 83.2325 50.6846 82.4216 51.4418 81.7328C50.7069 80.533 50.3395 79.2332 50.3395 77.8335V63.6693C50.3395 61.5808 51.0855 59.8033 52.5775 58.3369C54.0473 56.8705 55.8177 56.1373 57.8887 56.1373C59.0913 56.1373 60.2381 56.4039 61.3293 56.9372H65.8388Z" fill="#291956"/>
<path d="M73.221 69.4683H76.9623V62.9694C76.9623 62.4584 76.7841 62.0252 76.4278 61.6697C76.0492 61.3142 75.6038 61.1364 75.0917 61.1364C74.5795 61.1364 74.1452 61.3142 73.7889 61.6697C73.4103 62.0252 73.221 62.4584 73.221 62.9694V69.4683ZM69.747 58.3036C71.2391 56.8372 73.0206 56.104 75.0917 56.104C77.185 56.104 78.9665 56.8372 80.4362 58.3036C81.9283 59.7922 82.6743 61.5697 82.6743 63.636V75.0673H73.221V84.2657C73.221 84.7767 73.4103 85.21 73.7889 85.5655C74.1452 85.921 74.5795 86.0987 75.0917 86.0987C75.6038 86.0987 76.0492 85.921 76.4278 85.5655C76.7841 85.21 76.9623 84.7767 76.9623 84.2657V77.5002H82.6743V83.5991C82.6743 85.6654 81.9283 87.4429 80.4362 88.9315C78.9665 90.3979 77.185 91.1311 75.0917 91.1311C73.0206 91.1311 71.2391 90.3979 69.747 88.9315C68.2773 87.4429 67.5424 85.6654 67.5424 83.5991V63.636C67.5424 61.5697 68.2773 59.7922 69.747 58.3036Z" fill="#291956"/>
<path d="M94.4658 85.5988V90.7312C93.7755 90.9534 92.907 91.0645 91.8603 91.0645C88.0968 91.0645 86.2151 88.5983 86.2151 83.6658V62.4362H84.3779V56.8705H86.2151V49.9384H91.8269V56.8705H93.6975V62.4362H91.8269V71.6679L91.8603 83.1659C91.8603 84.8323 92.4839 85.6654 93.7309 85.6654C93.9982 85.6654 94.2431 85.6432 94.4658 85.5988Z" fill="#291956"/>
<path d="M101.748 90.3646H96.136V56.8372H101.748V90.3646ZM101.748 52.9045H96.136V47.0056H101.748V52.9045Z" fill="#291956"/>
<path d="M109.03 57.7037L109.063 57.6704C109.108 57.6259 109.175 57.5704 109.264 57.5037C109.509 57.3038 109.776 57.1149 110.065 56.9372C111.023 56.3817 112.07 56.104 113.205 56.104C116.768 56.104 118.55 58.6258 118.55 63.6693V90.3646H112.838V63.0028C112.838 62.4917 112.66 62.0474 112.303 61.6697C111.925 61.3142 111.479 61.1364 110.967 61.1364C110.455 61.1364 110.021 61.3142 109.665 61.6697C109.286 62.0474 109.097 62.4917 109.097 63.0028V90.3646H103.418V56.8372H109.03V57.7037Z" fill="#291956"/>
<path d="M130.108 78.5V63.0028C130.108 62.4917 129.929 62.0585 129.573 61.703C129.217 61.3253 128.771 61.1364 128.237 61.1364C127.725 61.1364 127.291 61.3253 126.934 61.703C126.578 62.0585 126.4 62.4917 126.4 63.0028V78.5C126.4 79.0111 126.578 79.4443 126.934 79.7998C127.291 80.1553 127.725 80.333 128.237 80.333C128.771 80.333 129.217 80.1553 129.573 79.7998C129.929 79.4443 130.108 79.0111 130.108 78.5ZM126.4 93.4641V98.5965C126.4 99.1075 126.578 99.5408 126.934 99.8963C127.291 100.252 127.725 100.43 128.237 100.43C128.771 100.43 129.217 100.252 129.573 99.8963C129.929 99.5408 130.108 99.1075 130.108 98.5965V93.4641C130.108 92.9531 129.929 92.5087 129.573 92.131C129.217 91.7755 128.771 91.5977 128.237 91.5977C127.725 91.5977 127.291 91.7755 126.934 92.131C126.578 92.5087 126.4 92.9531 126.4 93.4641ZM136.187 56.9372V60.5699H135.152C135.597 61.5697 135.82 62.6028 135.82 63.6693V77.8335C135.82 79.8998 135.074 81.6773 133.582 83.1659C132.112 84.6323 130.33 85.3655 128.237 85.3655C127.658 85.3655 127.068 85.2877 126.467 85.1322C126.288 85.0433 126.088 84.9878 125.865 84.9656C125.843 84.9656 125.799 84.9656 125.732 84.9656C125.086 85.01 124.763 85.2766 124.763 85.7654C124.763 86.2764 125.108 86.532 125.799 86.532C125.821 86.532 126.667 86.5431 128.337 86.5653C130.408 86.5875 132.168 87.3429 133.615 88.8316C135.085 90.298 135.82 92.0643 135.82 94.1306V97.93C135.82 99.9963 135.074 101.774 133.582 103.262C132.112 104.729 130.33 105.462 128.237 105.462C126.166 105.462 124.396 104.729 122.926 103.262C121.434 101.774 120.688 99.9963 120.688 97.93V94.1306C120.688 92.642 121.1 91.2645 121.924 89.998L121.623 89.7647C121.155 89.2981 120.777 88.776 120.487 88.1983C120.109 87.3985 119.92 86.5209 119.92 85.5655V85.3988C119.92 85.2877 119.931 85.1877 119.953 85.0989C119.997 84.7878 120.075 84.4768 120.187 84.1657C120.498 83.2325 121.033 82.4216 121.79 81.7328C121.055 80.533 120.688 79.2332 120.688 77.8335V63.6693C120.688 61.5808 121.434 59.8033 122.926 58.3369C124.396 56.8705 126.166 56.1373 128.237 56.1373C129.44 56.1373 130.586 56.4039 131.678 56.9372H136.187Z" fill="#291956"/>
</svg>
